<?xml version="1.0" encoding="utf-8"?>
<!-- Generator: Adobe Illustrator 23.0.1, SVG Export Plug-In . SVG Version: 6.00 Build 0)  -->
<svg version="1.1" id="Layer_1" xmlns="http://www.w3.org/2000/svg" xmlns:xlink="http://www.w3.org/1999/xlink" x="0px" y="0px"
	 viewBox="0 0 512 139" style="enable-background:new 0 0 512 139;" xml:space="preserve">
<style type="text/css">
	.st0{fill-rule:evenodd;clip-rule:evenodd;fill:#9E2A2B;}
	.st1{fill-rule:evenodd;clip-rule:evenodd;fill:#FFFFFF;}
</style>
<g>
	<g>
		<g transform="translate(150.000000, 31.000000)">
			<path class="st0" d="M0.6,71.8v-63h8.1l38.5,50.7V8.8h7.7v63h-8.1L8.3,20.6v51.2H0.6L0.6,71.8z"/>
			<path class="st0" d="M117.6,69.3c-5.1,1.9-10.6,2.9-16.4,2.9C78.4,72.2,67,61.3,67,39.4c0-20.7,11-31.1,33-31.1
				c6.3,0,12.2,0.9,17.6,2.6v7c-5.4-2.1-11-3.1-16.7-3.1c-17.2,0-25.8,8.2-25.8,24.4c0,17.5,8.5,26.2,25.4,26.2c2.7,0,5.7-0.4,9-1.1
				V43.2h8.1V69.3L117.6,69.3z"/>
			<path class="st0" d="M130.6,47.5V8.8h8.1v38.7c0,12.1,6,18.2,18.1,18.2c12,0,18.1-6.1,18.1-18.2V8.8h8.1v38.7
				c0,16.5-8.7,24.8-26.2,24.8S130.6,64,130.6,47.5L130.6,47.5L130.6,47.5z"/>
			<path class="st0" d="M205.6,8.8v56.4h33v6.6h-41.1v-63H205.6L205.6,8.8z"/>
			<path class="st0" d="M250.3,71.8h-8.5l31.3-71.3l31.3,71.3h-9L287.3,52h-20.8l2.2-6.6h15.9l-11.8-28.5L250.3,71.8L250.3,71.8z"/>
			<path class="st0" d="M313.1,71.8v-63H340c12,0,18,5,18,15.1c0,8.2-5.9,14.3-17.6,18.2L362,71.8h-10.7l-20-28.3v-5.3
				c12-1.9,18.1-6.5,18.1-13.9c0-5.8-3.3-8.7-10-8.7h-18v56.2H313.1L313.1,71.8z"/>
		</g>
		<g>
			<path class="st0" d="M0,23L64.5,0l66.2,22.6L120,107.9l-55.5,30.7L9.9,108.3L0,23L0,23z"/>
			<path class="st0" d="M130.7,22.6L64.5,0v138.6l55.5-30.7L130.7,22.6L130.7,22.6z"/>
			<path class="st1" d="M64.6,16.2L64.6,16.2l-40.2,89.4l15-0.3l8.1-20.2h17.1h18.8l8.8,20.4l14.3,0.3L64.6,16.2L64.6,16.2z
				 M64.7,44.9l13.6,28.4h-13h-0.7H52.8L64.7,44.9L64.7,44.9z"/>
		</g>
	</g>
</g>
</svg>
