<?xml version="1.0" encoding="utf-8"?>
<!-- Generator: Adobe Illustrator 23.0.1, SVG Export Plug-In . SVG Version: 6.00 Build 0)  -->
<svg version="1.1" id="Layer_1" xmlns="http://www.w3.org/2000/svg" xmlns:xlink="http://www.w3.org/1999/xlink" x="0px" y="0px"
	 viewBox="0 0 310.1 81.6" style="enable-background:new 0 0 310.1 81.6;" xml:space="preserve">
<style type="text/css">
	.st0{fill:#9E2A2B;}
	.st1{fill:none;stroke:#9E2A2B;stroke-width:5;stroke-linecap:round;}
</style>
<g>
	<path class="st0" d="M97.6,63.1l21.5-46.7c0.5-1.1,1.2-1.8,2.5-1.8h0.1c1.3,0,2,0.7,2.5,1.8l21.5,46.5c0.2,0.4,0.3,0.8,0.3,1.2
		c0,0.9-0.8,1.7-1.8,1.7c-0.9,0-1.5-0.6-1.9-1.4l-5.9-13h-29.7l-5.9,13c-0.4,0.9-0.9,1.4-1.8,1.4c-0.9,0-1.7-0.7-1.7-1.6
		C97.3,63.9,97.4,63.5,97.6,63.1z M134.9,48l-13.2-29.2L108.3,48H134.9z"/>
	<path class="st0" d="M165.2,18.6H149c-0.9,0-1.7-0.8-1.7-1.7c0-0.9,0.8-1.7,1.7-1.7h36c0.9,0,1.7,0.8,1.7,1.7
		c0,0.9-0.8,1.7-1.7,1.7h-16.1v45.4c0,1-0.9,1.9-1.9,1.9c-1,0-1.9-0.9-1.9-1.9V18.6z"/>
	<path class="st0" d="M191.7,40.5v-0.1c0-13.8,10.2-26.1,25.4-26.1s25.3,12.2,25.3,25.9v0.1c0,13.8-10.2,26.1-25.4,26.1
		C201.7,66.4,191.7,54.2,191.7,40.5z M238.5,40.5v-0.1c0-12.5-9.1-22.7-21.5-22.7s-21.4,10.1-21.4,22.5v0.1
		c0,12.5,9.1,22.7,21.5,22.7S238.5,52.9,238.5,40.5z"/>
	<path class="st0" d="M255.1,16.8c0-1,0.9-1.9,1.9-1.9h0.4c0.8,0,1.4,0.4,1.9,1.1l19.7,28.9L298.5,16c0.4-0.6,1.1-1.1,1.9-1.1h0.4
		c1,0,1.9,0.9,1.9,1.9v47.2c0,1-0.9,1.9-1.9,1.9s-1.9-0.9-1.9-1.9V21.7l-18.5,26.9c-0.4,0.6-0.9,0.9-1.6,0.9s-1.2-0.3-1.6-0.9
		l-18.5-26.9V64c0,1-0.8,1.8-1.8,1.8c-1,0-1.8-0.8-1.8-1.8V16.8z"/>
</g>
<path class="st1" d="M59.5,17.4c1.2-6,0.5-10.6-2.3-12.5c-0.9-0.6-2.1-0.9-3.3-0.8C47,4.3,36,13.7,27,27.6
	C16.4,44,12.6,60.4,18.6,64.3c2.8,1.8,7.4,0.5,12.5-3.1"/>
<path class="st1" d="M64.9,44.2c5.1-2,8.2-4.6,8.3-7.7c0.4-7.1-15.2-13.7-34.7-14.8c-1.8-0.1-3.6-0.1-5.4-0.1
	c-17,0.1-30.3,4.7-30.7,11.2c-0.2,3.1,2.6,6.1,7.5,8.5"/>
<path class="st1" d="M33.1,6.7c-3.5-2.9-6.7-4.4-9.3-4.2C23,2.6,22.4,2.7,21.8,3c-6.4,3.2-4.3,20,4.6,37.5S47.6,69.4,54,66.2
	c6.1-3.1,4.5-18.8-3.6-35.5"/>
<path class="st0" d="M42.3,35.1c0,2.3-1.9,4.2-4.2,4.2s-4.2-1.9-4.2-4.2l0,0c0-2.3,1.9-4.2,4.2-4.2S42.3,32.8,42.3,35.1z"/>
</svg>
