<?xml version="1.0" encoding="utf-8"?>
<!-- Generator: Adobe Illustrator 23.0.1, SVG Export Plug-In . SVG Version: 6.00 Build 0)  -->
<svg version="1.1" id="Layer_1" xmlns="http://www.w3.org/2000/svg" xmlns:xlink="http://www.w3.org/1999/xlink" x="0px" y="0px"
	 viewBox="0 0 262 111" style="enable-background:new 0 0 262 111;" xml:space="preserve">
<style type="text/css">
	.st0{fill:#E44D26;}
	.st1{fill:#0170BA;}
	.st2{fill:#FFFFFF;}
	.st3{	font-family: Century Gothic,CenturyGothic,AppleGothic,sans-serif;
}
	.st4{font-size:36px;}
	.st5{fill:#A9A9A9;}
	.st6{fill:none;stroke:#FAF5EF;stroke-width:5;stroke-miterlimit:10;}
	.st7{fill:none;stroke:#000000;stroke-width:16;stroke-miterlimit:10;}
</style>
<g>
	<rect x="3" y="4" class="st0" width="257" height="53"/>
</g>
<g>
	<rect x="3" y="55" class="st1" width="257" height="54"/>
</g>
<text transform="matrix(1 0 0 1 10.698 39.661)" class="st2 st3 st4">Wordpress</text>
<text transform="matrix(1 0 0 1 10.8098 91.9994)" class="st2 st3 st4">Photoshop</text>
<path class="st5" d="M245.9,52.9L239,35.2l-7.4,17.2C236.4,52.4,241.1,52.8,245.9,52.9z"/>
<path class="st5" d="M213.8,51.5l-13.5-33.3l-0.1-0.2c-1,3.5-1.6,7.3-1.6,11.2c0,8.4,2.6,16.1,7,22.5
	C208.3,51.6,211.1,51.5,213.8,51.5z"/>
<path class="st5" d="M258.6,44.1c0.1-0.4,0.1-0.8,0.2-1.2c0.1-1.7,0.2-3.4,0.2-5.1c-0.1-2.6-0.5-5.3-0.6-7.8
	c-0.4-7.4-0.2-14.8-0.5-22.2c-0.3-1.1-0.5-2.1-0.7-3.2c-5.9-0.2-11.8-0.4-17.8-0.5c-9.7-0.1-19.4,0.4-29.1,0.5c-1.1,0-2-0.2-2.9-0.4
	c-2.3,2.8-4.3,6-5.7,9.4l18.5-0.2l0.1,2l-1.7-0.1c-3.7-0.1-3.3,3.8-3.3,3.8l13.1,32.9l8.8-21.1l-4.9-12.5c-2-3.3-6.8-3.3-6.8-3.3
	v-1.7h27.6l0,1.9l-2.9,0.2c-3.6,0-2.9,3.4-2.9,3.4l10.4,27.8C257.9,45.8,258.2,44.9,258.6,44.1z"/>
<path class="st5" d="M198.8,51.7c0.4,0,0.8,0,1.1,0c-4-6.6-6.3-14.4-6.3-22.7c0-9.3,2.9-18,7.8-25.1c-0.7,0-1.4,0.1-2,0.1
	c-0.2,0-0.3,0-0.5,0c-4.6,7.2-7.3,15.8-7.3,25c0,8.3,2.2,16.1,6,22.8C198,51.7,198.4,51.7,198.8,51.7z"/>
<line class="st6" x1="261" y1="53.5" x2="4" y2="53.5"/>
<path class="st5" d="M248.1,105.2c-2.1,0-4.3-0.6-6.3-1.8c-0.2-0.2-0.4-0.1-0.4,0.3v4.6c0,0.3,0,0.4,0.2,0.5
	c1.3,0.8,3.7,1.3,6.4,1.3c5.2,0,9-2.7,9-7.7c0-3.3-1.5-5.6-6.4-8c-3.3-1.7-3.9-2.5-3.9-3.6c0-1,0.8-2.3,3.3-2.3c2,0,4.1,0.5,5.4,1.4
	c0.3,0.1,0.5-0.1,0.5-0.3v-4.3c0-0.2-0.1-0.5-0.3-0.6c-1-0.5-2.9-0.9-5.6-0.9c-5.5,0-8.6,3.3-8.6,7.4c0,3.6,1.8,5.8,6.3,7.9
	c3.2,1.6,3.9,2.6,3.9,3.8C251.6,104.2,250.6,105.2,248.1,105.2z"/>
<path class="st5" d="M226.4,75c-3.1,0-6.1,0.1-8.1,0.2c-0.2,0-0.7,0.2-0.7,0.4h0v33.6c0,0.3,0.1,0.4,0.4,0.4h4.8
	c0.3,0,0.4-0.1,0.4-0.4v-12c0.8,0,1.3,0.1,2.4,0.1c7.1,0,12.8-3.4,12.8-11.3C238.4,79.8,235,75,226.4,75z M225.7,92.2
	c-1.3,0-1.8,0-2.5-0.1V80.1c0.6,0,1.8-0.1,3-0.1c4.2,0,6.6,2,6.6,6C232.8,90.9,229.4,92.2,225.7,92.2z"/>
<path class="st5" d="M202.6,106.5V61.6h55.8c0-1.1,0.2-2.2,0.7-3.1h-59.6v48.3C200.5,106.5,201.6,106.4,202.6,106.5z"/>
<path class="st7" d="M127.2,25.6"/>
<rect x="2.5" y="2.5" class="st6" width="257" height="106"/>
</svg>
