<?xml version="1.0" encoding="utf-8"?>
<!-- Generator: Adobe Illustrator 23.0.1, SVG Export Plug-In . SVG Version: 6.00 Build 0)  -->
<svg version="1.1" id="Layer_1" xmlns="http://www.w3.org/2000/svg" xmlns:xlink="http://www.w3.org/1999/xlink" x="0px" y="0px"
	 viewBox="0 0 262 111" style="enable-background:new 0 0 262 111;" xml:space="preserve">
<style type="text/css">
	.st0{fill:#E44D26;}
	.st1{fill:#0170BA;}
	.st2{enable-background:new    ;}
	.st3{fill:#FFFFFF;}
	.st4{fill:#A9A9A9;}
	.st5{fill:none;stroke:#FAF5EF;stroke-width:5;stroke-miterlimit:10;}
	.st6{fill:none;stroke:#000000;stroke-width:16;stroke-miterlimit:10;}
</style>
<g>
	<rect x="3" y="4" class="st0" width="257" height="53"/>
</g>
<g>
	<rect x="3" y="55" class="st1" width="257" height="54"/>
</g>
<g class="st2">
	<path class="st3" d="M12.4,13.8H15l5.3,18.6l7.4-18.6h0.5l7.3,18.6L41,13.8h2.6l-7.4,25.9h-0.5L28,20.1l-7.8,19.6h-0.5L12.4,13.8z"
		/>
	<path class="st3" d="M57.1,20c2.9,0,5.4,1.1,7.3,3.2c1.8,1.9,2.6,4.2,2.6,6.9c0,2.7-0.9,5-2.8,7c-1.9,2-4.3,3-7.2,3
		c-2.9,0-5.3-1-7.2-3c-1.9-2-2.8-4.3-2.8-7c0-2.6,0.9-4.9,2.6-6.9C51.6,21.1,54.1,20,57.1,20z M57,22.5c-2,0-3.8,0.8-5.3,2.3
		c-1.5,1.5-2.2,3.3-2.2,5.5c0,1.4,0.3,2.7,1,3.9c0.7,1.2,1.6,2.1,2.7,2.8s2.4,1,3.8,1c1.4,0,2.6-0.3,3.8-1s2-1.6,2.7-2.8
		s1-2.5,1-3.9c0-2.1-0.7-4-2.2-5.5C60.8,23.2,59.1,22.5,57,22.5z"/>
	<path class="st3" d="M70.6,20.5h2.5v2.8c0.8-1.1,1.5-1.9,2.4-2.5s1.7-0.8,2.6-0.8c0.7,0,1.4,0.2,2.2,0.7L79,22.8
		c-0.5-0.2-0.9-0.3-1.3-0.3c-0.8,0-1.6,0.3-2.4,1s-1.3,1.7-1.7,3.1c-0.3,1.1-0.5,3.3-0.5,6.6v6.5h-2.5V20.5z"/>
	<path class="st3" d="M101.5,13.2v26.5h-2.4v-3.3c-1,1.3-2.2,2.2-3.5,2.8s-2.7,0.9-4.2,0.9c-2.7,0-5-1-6.9-2.9s-2.9-4.4-2.9-7.2
		c0-2.8,1-5.1,2.9-7.1s4.3-2.9,7-2.9c1.6,0,3,0.3,4.3,1s2.4,1.7,3.3,3V13.2H101.5z M91.7,22.4c-1.4,0-2.6,0.3-3.8,1
		s-2.1,1.6-2.8,2.8c-0.7,1.2-1,2.5-1,3.9c0,1.3,0.3,2.6,1,3.9c0.7,1.2,1.6,2.2,2.8,2.9c1.2,0.7,2.4,1,3.7,1c1.3,0,2.6-0.3,3.8-1
		c1.2-0.7,2.1-1.6,2.8-2.8c0.6-1.2,1-2.5,1-3.9c0-2.2-0.7-4.1-2.2-5.5C95.6,23.2,93.8,22.4,91.7,22.4z"/>
	<path class="st3" d="M107.1,20.5h2.5v3.5c1-1.3,2.1-2.3,3.4-3c1.3-0.7,2.7-1,4.2-1c2.7,0,5,1,7,2.9s2.9,4.3,2.9,7.1
		c0,2.8-1,5.2-2.9,7.2s-4.2,2.9-6.9,2.9c-1.5,0-2.9-0.3-4.2-0.9s-2.4-1.6-3.5-2.8v10.3h-2.5V20.5z M116.9,22.4
		c-2.1,0-3.9,0.7-5.4,2.2c-1.5,1.5-2.2,3.3-2.2,5.5c0,1.5,0.3,2.8,1,3.9c0.6,1.2,1.6,2.1,2.8,2.8s2.5,1,3.8,1c1.3,0,2.6-0.3,3.7-1
		c1.2-0.7,2.1-1.6,2.8-2.9c0.7-1.2,1-2.5,1-3.9c0-1.4-0.3-2.6-1-3.9c-0.7-1.2-1.6-2.2-2.8-2.8S118.3,22.4,116.9,22.4z"/>
	<path class="st3" d="M130.7,20.5h2.5v2.8c0.8-1.1,1.5-1.9,2.4-2.5s1.7-0.8,2.6-0.8c0.7,0,1.4,0.2,2.2,0.7l-1.3,2.1
		c-0.5-0.2-0.9-0.3-1.3-0.3c-0.8,0-1.6,0.3-2.4,1s-1.3,1.7-1.7,3.1c-0.3,1.1-0.5,3.3-0.5,6.6v6.5h-2.5V20.5z"/>
	<path class="st3" d="M158.5,33.3l2.1,1.1c-0.7,1.3-1.5,2.4-2.4,3.2c-0.9,0.8-1.9,1.4-3,1.9c-1.1,0.4-2.4,0.6-3.8,0.6
		c-3.1,0-5.6-1-7.3-3.1c-1.8-2-2.6-4.4-2.6-6.9c0-2.4,0.7-4.6,2.2-6.5c1.9-2.4,4.4-3.6,7.6-3.6c3.3,0,5.9,1.2,7.8,3.7
		c1.4,1.7,2.1,3.9,2.1,6.5H144c0,2.2,0.8,4,2.1,5.5c1.4,1.4,3.1,2.1,5.1,2.1c1,0,1.9-0.2,2.8-0.5s1.7-0.8,2.3-1.3
		C157.1,35.5,157.8,34.6,158.5,33.3z M158.5,28.2c-0.3-1.3-0.8-2.4-1.4-3.1s-1.5-1.4-2.5-1.9c-1-0.5-2.1-0.7-3.3-0.7
		c-1.9,0-3.5,0.6-4.8,1.8c-1,0.9-1.7,2.2-2.2,4H158.5z"/>
	<path class="st3" d="M175.5,22.6l-1.6,1.6c-1.3-1.3-2.6-1.9-3.9-1.9c-0.8,0-1.5,0.3-2.1,0.8c-0.6,0.5-0.9,1.1-0.9,1.8
		c0,0.6,0.2,1.2,0.7,1.8c0.5,0.6,1.5,1.2,3,2c1.8,0.9,3.1,1.9,3.7,2.7c0.6,0.9,1,1.9,1,3c0,1.6-0.6,2.9-1.7,4s-2.5,1.6-4.1,1.6
		c-1.1,0-2.2-0.2-3.2-0.7c-1-0.5-1.8-1.1-2.5-2l1.5-1.8c1.3,1.4,2.6,2.1,4,2.1c1,0,1.8-0.3,2.5-0.9s1-1.4,1-2.2
		c0-0.7-0.2-1.3-0.7-1.9c-0.5-0.5-1.5-1.2-3.1-2c-1.7-0.9-2.9-1.8-3.5-2.6c-0.6-0.9-0.9-1.9-0.9-3c0-1.5,0.5-2.7,1.5-3.6
		s2.2-1.4,3.8-1.4C171.9,20,173.7,20.9,175.5,22.6z"/>
	<path class="st3" d="M189.4,22.6l-1.6,1.6c-1.3-1.3-2.6-1.9-3.9-1.9c-0.8,0-1.5,0.3-2.1,0.8c-0.6,0.5-0.9,1.1-0.9,1.8
		c0,0.6,0.2,1.2,0.7,1.8c0.5,0.6,1.5,1.2,3,2c1.8,0.9,3.1,1.9,3.7,2.7c0.6,0.9,1,1.9,1,3c0,1.6-0.6,2.9-1.7,4s-2.5,1.6-4.1,1.6
		c-1.1,0-2.2-0.2-3.2-0.7c-1-0.5-1.8-1.1-2.5-2l1.5-1.8c1.3,1.4,2.6,2.1,4,2.1c1,0,1.8-0.3,2.5-0.9s1-1.4,1-2.2
		c0-0.7-0.2-1.3-0.7-1.9c-0.5-0.5-1.5-1.2-3.1-2c-1.7-0.9-2.9-1.8-3.5-2.6c-0.6-0.9-0.9-1.9-0.9-3c0-1.5,0.5-2.7,1.5-3.6
		s2.2-1.4,3.8-1.4C185.9,20,187.6,20.9,189.4,22.6z"/>
</g>
<g class="st2">
	<path class="st3" d="M13.9,66.1h5.2c3,0,4.9,0.1,6,0.4c1.5,0.4,2.7,1.1,3.6,2.2s1.4,2.6,1.4,4.3c0,1.7-0.5,3.1-1.4,4.3
		s-2.2,1.9-3.8,2.3c-1.2,0.3-3.4,0.4-6.6,0.4h-1.8v12h-2.6V66.1z M16.5,68.7v8.8l4.4,0.1c1.8,0,3.1-0.2,3.9-0.5s1.5-0.8,1.9-1.6
		c0.5-0.7,0.7-1.5,0.7-2.4c0-0.9-0.2-1.7-0.7-2.4s-1.1-1.2-1.9-1.5s-2-0.5-3.8-0.5H16.5z"/>
	<path class="st3" d="M34.9,65.5h2.5v10.8c1-1.3,2.1-2.3,3.3-2.9s2.5-1,3.9-1c1.4,0,2.7,0.4,3.8,1.1s1.9,1.7,2.5,2.9
		s0.8,3.1,0.8,5.8V92h-2.5v-9.1c0-2.2-0.1-3.7-0.3-4.4c-0.3-1.3-0.9-2.2-1.7-2.9s-1.9-1-3.2-1c-1.5,0-2.8,0.5-4,1.5s-2,2.2-2.3,3.7
		c-0.2,0.9-0.4,2.7-0.4,5.2v7h-2.5V65.5z"/>
	<path class="st3" d="M65.9,72.4c2.9,0,5.4,1.1,7.3,3.2c1.8,1.9,2.6,4.2,2.6,6.9c0,2.7-0.9,5-2.8,7s-4.3,3-7.2,3c-2.9,0-5.3-1-7.2-3
		s-2.8-4.3-2.8-7c0-2.6,0.9-4.9,2.6-6.9C60.5,73.5,62.9,72.4,65.9,72.4z M65.9,74.8c-2,0-3.8,0.8-5.3,2.3s-2.2,3.3-2.2,5.5
		c0,1.4,0.3,2.7,1,3.9c0.7,1.2,1.6,2.1,2.7,2.8c1.1,0.7,2.4,1,3.8,1s2.6-0.3,3.8-1c1.1-0.7,2-1.6,2.7-2.8c0.7-1.2,1-2.5,1-3.9
		c0-2.1-0.7-4-2.2-5.5C69.6,75.5,67.9,74.8,65.9,74.8z"/>
	<path class="st3" d="M82.5,65.8H85v7.1h3.9V75H85v17h-2.5V75h-3.4v-2.1h3.4V65.8z"/>
	<path class="st3" d="M101.6,72.4c2.9,0,5.4,1.1,7.3,3.2c1.8,1.9,2.6,4.2,2.6,6.9c0,2.7-0.9,5-2.8,7s-4.3,3-7.2,3
		c-2.9,0-5.3-1-7.2-3s-2.8-4.3-2.8-7c0-2.6,0.9-4.9,2.6-6.9C96.2,73.5,98.7,72.4,101.6,72.4z M101.6,74.8c-2,0-3.8,0.8-5.3,2.3
		s-2.2,3.3-2.2,5.5c0,1.4,0.3,2.7,1,3.9c0.7,1.2,1.6,2.1,2.7,2.8c1.1,0.7,2.4,1,3.8,1s2.6-0.3,3.8-1c1.1-0.7,2-1.6,2.7-2.8
		c0.7-1.2,1-2.5,1-3.9c0-2.1-0.7-4-2.2-5.5C105.4,75.5,103.7,74.8,101.6,74.8z"/>
	<path class="st3" d="M125.8,75l-1.6,1.6c-1.3-1.3-2.6-1.9-3.9-1.9c-0.8,0-1.5,0.3-2.1,0.8c-0.6,0.5-0.9,1.1-0.9,1.8
		c0,0.6,0.2,1.2,0.7,1.8c0.5,0.6,1.5,1.2,3,2c1.8,0.9,3.1,1.9,3.7,2.7c0.6,0.9,1,1.9,1,3c0,1.6-0.6,2.9-1.7,4
		c-1.1,1.1-2.5,1.6-4.1,1.6c-1.1,0-2.2-0.2-3.2-0.7s-1.8-1.1-2.5-2l1.5-1.8c1.3,1.4,2.6,2.1,4,2.1c1,0,1.8-0.3,2.5-0.9
		c0.7-0.6,1-1.4,1-2.2c0-0.7-0.2-1.3-0.7-1.9c-0.5-0.5-1.5-1.2-3.1-2c-1.7-0.9-2.9-1.8-3.5-2.6c-0.6-0.9-0.9-1.9-0.9-3
		c0-1.5,0.5-2.7,1.5-3.6c1-1,2.2-1.4,3.8-1.4C122.2,72.4,124,73.2,125.8,75z"/>
	<path class="st3" d="M130.1,65.5h2.5v10.8c1-1.3,2.1-2.3,3.3-2.9s2.5-1,3.9-1c1.4,0,2.7,0.4,3.8,1.1s1.9,1.7,2.5,2.9
		s0.8,3.1,0.8,5.8V92h-2.5v-9.1c0-2.2-0.1-3.7-0.3-4.4c-0.3-1.3-0.9-2.2-1.7-2.9s-1.9-1-3.2-1c-1.5,0-2.8,0.5-4,1.5s-2,2.2-2.3,3.7
		c-0.2,0.9-0.4,2.7-0.4,5.2v7h-2.5V65.5z"/>
	<path class="st3" d="M161.1,72.4c2.9,0,5.4,1.1,7.3,3.2c1.8,1.9,2.6,4.2,2.6,6.9c0,2.7-0.9,5-2.8,7s-4.3,3-7.2,3
		c-2.9,0-5.3-1-7.2-3s-2.8-4.3-2.8-7c0-2.6,0.9-4.9,2.6-6.9C155.7,73.5,158.2,72.4,161.1,72.4z M161.1,74.8c-2,0-3.8,0.8-5.3,2.3
		s-2.2,3.3-2.2,5.5c0,1.4,0.3,2.7,1,3.9c0.7,1.2,1.6,2.1,2.7,2.8c1.1,0.7,2.4,1,3.8,1s2.6-0.3,3.8-1c1.1-0.7,2-1.6,2.7-2.8
		c0.7-1.2,1-2.5,1-3.9c0-2.1-0.7-4-2.2-5.5C164.9,75.5,163.2,74.8,161.1,74.8z"/>
	<path class="st3" d="M175.7,72.9h2.5v3.5c1-1.3,2.1-2.3,3.4-3c1.3-0.7,2.7-1,4.2-1c2.7,0,5,1,7,2.9s2.9,4.3,2.9,7.1
		c0,2.8-1,5.2-2.9,7.2s-4.2,2.9-6.9,2.9c-1.5,0-2.9-0.3-4.2-0.9c-1.3-0.6-2.4-1.6-3.5-2.8V99h-2.5V72.9z M185.5,74.8
		c-2.1,0-3.9,0.7-5.4,2.2c-1.5,1.5-2.2,3.3-2.2,5.5c0,1.5,0.3,2.8,1,3.9c0.6,1.2,1.6,2.1,2.8,2.8s2.5,1,3.8,1c1.3,0,2.6-0.3,3.7-1
		c1.2-0.7,2.1-1.6,2.8-2.9c0.7-1.2,1-2.5,1-3.9c0-1.4-0.3-2.6-1-3.9c-0.7-1.2-1.6-2.2-2.8-2.8S186.9,74.8,185.5,74.8z"/>
</g>
<path class="st4" d="M245.9,52.9L239,35.2l-7.4,17.2C236.4,52.4,241.1,52.8,245.9,52.9z"/>
<path class="st4" d="M213.8,51.5l-13.5-33.3l-0.1-0.2c-1,3.5-1.6,7.3-1.6,11.2c0,8.4,2.6,16.1,7,22.5
	C208.3,51.6,211.1,51.5,213.8,51.5z"/>
<path class="st4" d="M258.6,44.1c0.1-0.4,0.1-0.8,0.2-1.2c0.1-1.7,0.2-3.4,0.2-5.1c-0.1-2.6-0.5-5.3-0.6-7.8
	c-0.4-7.4-0.2-14.8-0.5-22.2c-0.3-1.1-0.5-2.1-0.7-3.2c-5.9-0.2-11.8-0.4-17.8-0.5C229.7,4,220,4.5,210.3,4.6c-1.1,0-2-0.2-2.9-0.4
	c-2.3,2.8-4.3,6-5.7,9.4l18.5-0.2l0.1,2l-1.7-0.1c-3.7-0.1-3.3,3.8-3.3,3.8L228.4,52l8.8-21.1l-4.9-12.5c-2-3.3-6.8-3.3-6.8-3.3
	v-1.7h27.6v1.9l-2.9,0.2c-3.6,0-2.9,3.4-2.9,3.4l10.4,27.8C257.9,45.8,258.2,44.9,258.6,44.1z"/>
<path class="st4" d="M198.8,51.7c0.4,0,0.8,0,1.1,0c-4-6.6-6.3-14.4-6.3-22.7c0-9.3,2.9-18,7.8-25.1c-0.7,0-1.4,0.1-2,0.1
	c-0.2,0-0.3,0-0.5,0c-4.6,7.2-7.3,15.8-7.3,25c0,8.3,2.2,16.1,6,22.8C198,51.7,198.4,51.7,198.8,51.7z"/>
<line class="st5" x1="261" y1="53.5" x2="4" y2="53.5"/>
<path class="st4" d="M248.1,105.2c-2.1,0-4.3-0.6-6.3-1.8c-0.2-0.2-0.4-0.1-0.4,0.3v4.6c0,0.3,0,0.4,0.2,0.5
	c1.3,0.8,3.7,1.3,6.4,1.3c5.2,0,9-2.7,9-7.7c0-3.3-1.5-5.6-6.4-8c-3.3-1.7-3.9-2.5-3.9-3.6c0-1,0.8-2.3,3.3-2.3c2,0,4.1,0.5,5.4,1.4
	c0.3,0.1,0.5-0.1,0.5-0.3v-4.3c0-0.2-0.1-0.5-0.3-0.6c-1-0.5-2.9-0.9-5.6-0.9c-5.5,0-8.6,3.3-8.6,7.4c0,3.6,1.8,5.8,6.3,7.9
	c3.2,1.6,3.9,2.6,3.9,3.8C251.6,104.2,250.6,105.2,248.1,105.2z"/>
<path class="st4" d="M226.4,75c-3.1,0-6.1,0.1-8.1,0.2c-0.2,0-0.7,0.2-0.7,0.4l0,0v33.6c0,0.3,0.1,0.4,0.4,0.4h4.8
	c0.3,0,0.4-0.1,0.4-0.4v-12c0.8,0,1.3,0.1,2.4,0.1c7.1,0,12.8-3.4,12.8-11.3C238.4,79.8,235,75,226.4,75z M225.7,92.2
	c-1.3,0-1.8,0-2.5-0.1v-12c0.6,0,1.8-0.1,3-0.1c4.2,0,6.6,2,6.6,6C232.8,90.9,229.4,92.2,225.7,92.2z"/>
<path class="st4" d="M202.6,106.5V61.6h55.8c0-1.1,0.2-2.2,0.7-3.1h-59.6v48.3C200.5,106.5,201.6,106.4,202.6,106.5z"/>
<path class="st6" d="M127.2,25.6"/>
<rect x="2.5" y="2.5" class="st5" width="257" height="106"/>
</svg>
