<?xml version="1.0" encoding="utf-8"?>
<!-- Generator: Adobe Illustrator 23.0.1, SVG Export Plug-In . SVG Version: 6.00 Build 0)  -->
<svg version="1.1" id="afcd7609-43ff-449d-8a58-eab484d46123"
	 xmlns="http://www.w3.org/2000/svg" xmlns:xlink="http://www.w3.org/1999/xlink" x="0px" y="0px" viewBox="0 0 142.8 39.1"
	 style="enable-background:new 0 0 142.8 39.1;" xml:space="preserve">
<style type="text/css">
	.st0{fill-rule:evenodd;clip-rule:evenodd;fill:#0E1C36;}
	.st1{fill:#D7C0D0;stroke:#262730;stroke-width:4;stroke-miterlimit:10;}
	.st2{fill:#262730;}
	.st3{font-family:'Broadway';}
	.st4{font-size:18px;}
	.st5{fill:#D33F49;}
</style>
<title>footer_name</title>
<path class="st0" d="M120.3,26.8"/>
<path class="st0" d="M120.3,32.7"/>
<rect x="2" y="2" class="st1" width="138.8" height="35.1"/>
<text transform="matrix(1 0 0 1 12.3425 24.9574)" class="st2 st3 st4">el</text>
<text transform="matrix(1 0 0 1 29.6525 24.9574)" class="st2 st3 st4">i</text>
<text transform="matrix(1 0 0 1 36.2619 24.9574)" class="st2 st3 st4"> </text>
<text transform="matrix(1 0 0 1 36.1826 24.9574)" class="st2 st3 st4">jah ban</text>
<text transform="matrix(1 0 0 1 113.8251 24.9574)" class="st2 st3 st4"> </text>
<text transform="matrix(1 0 0 1 113.8325 24.9574)" class="st2 st3 st4">k</text>
<text transform="matrix(1 0 0 1 126.9107 24.9574)" class="st2 st3 st4"> </text>
<text transform="matrix(1 0 0 1 126.8925 24.9574)" class="st2 st3 st4">s</text>
<rect x="75.2" y="26.8" class="st5" width="60.8" height="2.5"/>
</svg>
