<?xml version="1.0" encoding="utf-8"?>
<!-- Generator: Adobe Illustrator 23.0.1, SVG Export Plug-In . SVG Version: 6.00 Build 0)  -->
<svg version="1.1" id="afcd7609-43ff-449d-8a58-eab484d46123"
	 xmlns="http://www.w3.org/2000/svg" xmlns:xlink="http://www.w3.org/1999/xlink" x="0px" y="0px" viewBox="0 0 142.8 39.1"
	 style="enable-background:new 0 0 142.8 39.1;" xml:space="preserve">
<style type="text/css">
	.st0{fill-rule:evenodd;clip-rule:evenodd;fill:#0E1C36;}
	.st1{fill:#EEE5E9;stroke:#262730;stroke-width:4;stroke-miterlimit:10;}
	.st2{enable-background:new    ;}
	.st3{fill:#262730;}
	.st4{font-family:'Broadway';}
	.st5{font-size:18px;}
	.st6{fill:#A31621;}
</style>
<title>footer_name</title>
<path class="st0" d="M120.3,26.8"/>
<path class="st0" d="M120.3,32.7"/>
<rect x="2" y="2" class="st1" width="138.8" height="35.1"/>
<g class="st2">
	<path class="st3" d="M16.9,20.4v2.7c0,0.5,0,0.9,0.1,1c0.1,0.3,0.4,0.4,0.9,0.4c0.7,0,1.4-0.2,2-0.6c0.7-0.4,1.2-0.9,1.7-1.5
		c0.2-0.2,0.3-0.4,0.3-0.4s0.1-0.1,0.2-0.1c0.1,0,0.2,0,0.2,0.1c0.1,0.1,0.1,0.2,0.1,0.3c0,0.2-0.2,0.6-0.6,1
		c-0.5,0.5-1.2,1-1.9,1.3s-1.5,0.5-2.2,0.5c-1.2,0-2.3-0.4-3.3-1.3c-0.6-0.5-1-1.1-1.3-1.8c-0.3-0.6-0.4-1.3-0.4-1.9
		c0-0.6,0.1-1.2,0.4-1.8s0.6-1.1,1-1.6c0.5-0.5,1-0.9,1.7-1.2c0.6-0.3,1.3-0.4,2-0.4c1.1,0,2.1,0.3,2.9,1c1.4,1,2.1,2.4,2,4.3h-2
		l-2.6,0L16.9,20.4z M19.1,19.9v-2.6c0-0.5,0-0.9,0-1S19,16.1,19,16c-0.2-0.2-0.5-0.3-1-0.3c-0.5,0-0.8,0.1-1,0.4
		c-0.1,0.2-0.1,0.6-0.1,1.2v2.6l1.1,0L19.1,19.9z"/>
	<path class="st3" d="M28.6,13l0,0.4l0,3.1l0,1.3l0,2.4l0,4.3V25h-4.5v-0.4l0-1.4l0-2.5l0-3.3l0-1.8l0-2l0-0.6H28.6z"/>
</g>
<g class="st2">
	<path class="st3" d="M35.2,15.4v0.3l0,1.4l0,2.1l0,3.2l0,1.8l0,0.8h-4.5l0-3.2l0-2.9l0-1.5l0-1.7l0-0.3H35.2z M32.9,12.3
		c1.5,0,2.3,0.4,2.3,1.2c0,0.4-0.2,0.7-0.6,0.9c-0.4,0.2-1,0.3-1.7,0.3c-1.5,0-2.2-0.4-2.2-1.2C30.7,12.7,31.4,12.3,32.9,12.3z"/>
</g>
<text transform="matrix(1 0 0 1 36.2619 24.9574)" class="st3 st4 st5"> </text>
<g class="st2">
	<path class="st3" d="M42.3,15.4l0,1.9l0,1.3l0,1c0,1.6,0,2.6-0.1,3c-0.1,0.4-0.2,0.9-0.6,1.3c-0.7,1.1-1.8,1.6-3.2,1.6
		c-0.8,0-1.4-0.2-1.9-0.5c-0.4-0.2-0.6-0.5-0.6-0.7c0-0.1,0-0.2,0.1-0.3c0.1-0.1,0.2-0.1,0.3-0.1c0.1,0,0.2,0,0.2,0.1
		s0.2,0.2,0.3,0.5s0.4,0.4,0.6,0.4c0.2,0,0.3,0,0.3-0.1s0.1-0.3,0.1-0.5l0-2.8l0-2.9l0-1.5l0-1.3v-0.4H42.3z M40.1,12.3
		c1.5,0,2.3,0.4,2.3,1.2c0,0.4-0.2,0.7-0.6,0.9c-0.4,0.2-1,0.3-1.7,0.3c-1.5,0-2.2-0.4-2.2-1.2C37.9,12.7,38.6,12.3,40.1,12.3z"/>
	<path class="st3" d="M50.6,19.1V18c0-0.7,0-1.2,0-1.4s-0.1-0.3-0.2-0.5c-0.2-0.3-0.7-0.5-1.5-0.5c-1.2,0-2.1,0.4-2.8,1.1
		c-0.3,0.3-0.5,0.5-0.7,0.5c-0.1,0-0.3,0-0.4-0.1S45,17,45,16.8c0-0.4,0.4-0.8,1.3-1.1c0.8-0.4,1.9-0.6,3.2-0.6c2.2,0,3.7,0.3,4.6,1
		c0.4,0.3,0.6,0.6,0.8,1s0.2,1,0.2,1.9v3.5c0,0.6,0,1.1,0.1,1.5c0.1,0.3,0.2,0.7,0.4,1.1h-4.9V24c-0.5,0.4-1.1,0.6-1.6,0.8
		s-1.1,0.3-1.6,0.3c-0.9,0-1.6-0.3-2.3-0.8c-0.9-0.7-1.3-1.5-1.3-2.6c0-0.9,0.4-1.7,1.1-2.3c0.8-0.7,1.9-1,3.1-1c0.5,0,1,0,1.3,0.1
		S50.1,18.9,50.6,19.1z M50.6,19.7c-0.7-0.4-1.3-0.6-1.7-0.6c-0.3,0-0.6,0.1-0.7,0.4c-0.1,0.1-0.1,0.6-0.1,1.3V23c0,0.5,0,0.7,0,0.8
		c0.1,0.3,0.3,0.4,0.6,0.4c0.3,0,0.6-0.1,0.9-0.2s0.6-0.4,0.9-0.6L50.6,19.7z"/>
	<path class="st3" d="M61.5,16.6c0.6-0.4,1-0.7,1.4-0.8c0.9-0.4,1.7-0.6,2.6-0.6c0.6,0,1.2,0.1,1.7,0.3s0.9,0.5,1.1,0.9
		c0.3,0.5,0.4,1.3,0.4,2.5l0,1.3l0,1.7l0.1,3h-4.5l0-5.4l-0.1-2.8c-0.1-0.3-0.3-0.5-0.6-0.5c-0.3,0-0.6,0.1-0.9,0.3
		c-0.3,0.2-0.7,0.4-1.1,0.8l0,2.2l0,3.8l0,1.6H57l0-3.7V17l0-3.7l0-0.4h4.5v0.2l0,1.5l0,0.9V16.6z"/>
	<path class="st3" d="M75.2,13h4.5l0,3.3c0.4-0.4,0.9-0.7,1.4-0.9c0.5-0.2,1-0.3,1.5-0.3c1.1,0,2.2,0.4,3.1,1.3
		c1,0.9,1.6,2.2,1.6,3.7c0,1.6-0.5,2.8-1.6,3.9c-0.9,0.8-1.9,1.2-3,1.2c-0.6,0-1.1-0.1-1.5-0.3s-0.9-0.5-1.4-1V25h-4.5v-0.4l0-4.3
		l0-3L75.2,13z M79.6,17v6c0.4,0.4,0.7,0.7,0.9,0.9c0.5,0.4,0.9,0.6,1.3,0.6c0.3,0,0.4-0.1,0.5-0.4c0-0.1,0.1-0.4,0.1-0.9v-5.9
		l0-0.4c0-0.4,0-0.7-0.1-0.9c-0.1-0.2-0.2-0.2-0.5-0.2c-0.3,0-0.6,0.1-1,0.3S80.1,16.6,79.6,17z"/>
	<path class="st3" d="M94.8,19.1V18c0-0.7,0-1.2,0-1.4s-0.1-0.3-0.2-0.5c-0.2-0.3-0.7-0.5-1.5-0.5c-1.2,0-2.1,0.4-2.8,1.1
		c-0.3,0.3-0.5,0.5-0.7,0.5c-0.1,0-0.3,0-0.4-0.1s-0.1-0.2-0.1-0.3c0-0.4,0.4-0.8,1.3-1.1c0.8-0.4,1.9-0.6,3.2-0.6
		c2.2,0,3.7,0.3,4.6,1c0.4,0.3,0.6,0.6,0.8,1s0.2,1,0.2,1.9v3.5c0,0.6,0,1.1,0.1,1.5c0.1,0.3,0.2,0.7,0.4,1.1h-4.9V24
		c-0.5,0.4-1.1,0.6-1.6,0.8c-0.5,0.2-1.1,0.3-1.6,0.3c-0.9,0-1.6-0.3-2.3-0.8c-0.9-0.7-1.3-1.5-1.3-2.6c0-0.9,0.4-1.7,1.1-2.3
		c0.8-0.7,1.9-1,3.1-1c0.5,0,1,0,1.3,0.1S94.3,18.9,94.8,19.1z M94.8,19.7c-0.7-0.4-1.3-0.6-1.7-0.6c-0.3,0-0.6,0.1-0.7,0.4
		c-0.1,0.1-0.1,0.6-0.1,1.3V23c0,0.5,0,0.7,0,0.8c0.1,0.3,0.3,0.4,0.6,0.4c0.3,0,0.6-0.1,0.9-0.2c0.3-0.2,0.6-0.4,0.9-0.6L94.8,19.7
		z"/>
	<path class="st3" d="M105.8,15.4v1.2c0.7-0.5,1.4-0.9,2-1.1c0.7-0.2,1.3-0.4,1.9-0.4c0.8,0,1.5,0.2,2.1,0.6
		c0.4,0.3,0.7,0.6,0.9,1.1c0.1,0.4,0.2,1.1,0.2,2.1l0,4.1l0,2h-4.5l0-2.4l0-1.8l0-2.7c0-0.6,0-1,0-1.1c0-0.1,0-0.2-0.1-0.3
		c-0.1-0.2-0.3-0.3-0.6-0.3c-0.3,0-0.6,0.1-0.9,0.2s-0.7,0.4-1.1,0.7l0,0.4l0,2.5l0,1.9l0,2.6l0,0.4h-4.5l0-3.4l0-2.3l0-2l0-1.9
		H105.8z"/>
</g>
<text transform="matrix(1 0 0 1 113.8251 24.9574)" class="st3 st4 st5"> </text>
<g class="st2">
	<path class="st3" d="M122.5,17.2l1,1.7l1,1.6c0.9,1.6,1.6,2.6,1.9,3.1c0.3,0.5,0.7,1,1.1,1.4h-5.2l-1.6-2.8
		c-0.6-1.1-1.1-1.8-1.4-2.3v0.4l0,1.6l0,2.7l0,0.4h-4.5l0-4.2l0-2.4l0-4.9l0-0.4h4.5l0,5.8v0.5c1.6-1.5,2.8-2.4,3.4-2.9
		c0.8-0.6,1.5-0.9,2.1-0.9c0.4,0,0.7,0.2,0.7,0.5c0,0.1,0,0.2-0.1,0.3c-0.1,0.1-0.2,0.1-0.3,0.1c-0.1,0-0.2,0-0.2,0
		c-0.2,0-0.3-0.1-0.4-0.1c-0.2,0-0.5,0.1-0.8,0.2C123.4,16.6,123,16.8,122.5,17.2z"/>
</g>
<text transform="matrix(1 0 0 1 126.9107 24.9574)" class="st3 st4 st5"> </text>
<g class="st2">
	<path class="st3" d="M127.8,23.3c0.1,0,0.3,0.1,0.4,0.3c0.3,0.3,0.7,0.5,1.2,0.7c0.5,0.2,1,0.3,1.5,0.3c0.2,0,0.4,0,0.5-0.1
		c0.1-0.1,0.2-0.2,0.2-0.3s-0.1-0.3-0.2-0.5c-0.1-0.2-0.5-0.6-1-1.1c-1.3-1.3-2.1-2.3-2.4-2.8s-0.6-1.1-0.6-1.6
		c0-0.4,0.1-0.9,0.4-1.3s0.6-0.7,1.1-1c0.8-0.5,1.6-0.7,2.6-0.7c0.7,0,1.5,0.2,2.3,0.5c0.6,0.2,0.9,0.5,0.9,0.8c0,0.1,0,0.2-0.1,0.2
		s-0.2,0.1-0.3,0.1c-0.1,0-0.3-0.1-0.6-0.3c-0.6-0.4-1.3-0.7-2-0.7c-0.3,0-0.5,0-0.6,0.1s-0.2,0.2-0.2,0.4c0,0.2,0.1,0.5,0.4,0.8
		s0.7,0.8,1.5,1.5c0.7,0.7,1.2,1.2,1.4,1.4c0.2,0.2,0.4,0.5,0.6,0.8c0.3,0.5,0.5,1,0.5,1.6c0,0.9-0.4,1.6-1.3,2.2
		c-0.7,0.5-1.6,0.7-2.6,0.7c-1.2,0-2.2-0.3-3.1-0.8c-0.3-0.2-0.4-0.3-0.5-0.4s-0.1-0.2-0.1-0.3C127.4,23.4,127.5,23.3,127.8,23.3z"
		/>
</g>
<rect x="75.2" y="26.8" class="st6" width="60.8" height="2.5"/>
</svg>
