<?xml version="1.0" encoding="utf-8"?>
<!-- Generator: Adobe Illustrator 23.0.1, SVG Export Plug-In . SVG Version: 6.00 Build 0)  -->

<svg version="1.1" id="Layer_1" xmlns="http://www.w3.org/2000/svg" xmlns:xlink="http://www.w3.org/1999/xlink" x="0px" y="0px"
	 viewBox="0 0 59.5 75" style="enable-background:new 0 0 59.5 75;" xml:space="preserve">
<style type="text/css">
	.st50{fill:#D33F49;}
	.st51{fill-rule:evenodd;clip-rule:evenodd;fill:#262730;}
	.st52{fill:none;stroke:#262730;stroke-width:4;stroke-miterlimit:10;}
</style>
<rect x="3" class="st50" width="53.5" height="75"/>
<a href="https://github.com/ejoebanks">

<path class="st50" d="M48.5,38.88c0,10.77-7.73,19-18.5,19s-19.5-8.73-19.5-19.5s9.23-18.5,20-18.5S48.5,28.11,48.5,38.88z"/>
<path class="st51" d="M29.79,19.3c-10.63-0.01-19.26,8.61-19.27,19.24c0,8.3,5.31,15.67,13.19,18.29c0.96,0.19,1.31-0.41,1.31-0.92
	v-3.65c-5.4,1.22-6.5-2.24-6.5-2.24c-0.36-1.18-1.13-2.19-2.17-2.83c-1.76-1.22,0.12-1.22,0.12-1.22c1.24,0.18,2.33,0.92,2.95,2
	c1.09,1.99,3.59,2.72,5.58,1.63l0,0l0,0c0.09-0.97,0.52-1.88,1.22-2.58c-4.27-0.5-8.77-2.14-8.77-9.5c-0.02-1.91,0.7-3.76,2-5.16
	c-0.61-1.68-0.55-3.54,0.17-5.17c0,0,1.63-0.5,5.31,2c3.18-0.88,6.54-0.88,9.72,0c3.65-2.5,5.28-2,5.28-2
	c0.72,1.62,0.79,3.46,0.18,5.13c1.33,1.4,2.07,3.27,2.06,5.2c0,7.4-4.5,9.02-8.79,9.5c0.95,0.96,1.43,2.3,1.31,3.65v5.28
	c0,0.63,0.34,1.1,1.33,0.92c10.09-3.36,15.55-14.26,12.19-24.36c-2.62-7.86-9.97-13.17-18.26-13.18L29.79,19.3z"/>
</a>

<line class="st52" x1="2" y1="0" x2="2" y2="75"/>
<line class="st52" x1="57.5" y1="0" x2="57.5" y2="75"/>

</svg>
