<?xml version="1.0" encoding="utf-8"?>
<!-- Generator: Adobe Illustrator 23.0.1, SVG Export Plug-In . SVG Version: 6.00 Build 0)  -->
<svg version="1.1" id="Layer_1" xmlns="http://www.w3.org/2000/svg" xmlns:xlink="http://www.w3.org/1999/xlink" x="0px" y="0px"
	 viewBox="0 0 190 61.1" style="enable-background:new 0 0 190 61.1;" xml:space="preserve">
<style type="text/css">
	.st0{fill:#9E2A2B;}
</style>
<g>
	<path class="st0" d="M2.8,30.5c0-13,8.6-20.5,19.1-20.5c5.7,0,9.7,2.4,12.3,5.1l-4.7,5.7c-1.9-1.8-4-3.1-7.4-3.1
		c-6,0-10.3,4.7-10.3,12.6c0,8,3.6,12.7,11,12.7c1.6,0,3.2-0.4,4.1-1.2V35h-6.5v-7.2h14.3v18c-2.7,2.6-7.4,4.7-12.9,4.7
		C11.1,50.5,2.8,43.6,2.8,30.5z"/>
	<path class="st0" d="M41.5,11.1c0-2.7,2.1-4.6,5.1-4.6s5.1,1.9,5.1,4.6c0,2.7-2.1,4.6-5.1,4.6S41.5,13.8,41.5,11.1z M42.2,20H51
		v29.8h-8.8V20z"/>
	<path class="st0" d="M59.9,39V27h-4.1v-6.6l4.6-0.3l1-7.9h7.3V20h7.1V27h-7.1v11.9c0,3.4,1.5,4.7,3.9,4.7c1,0,2-0.3,2.8-0.6
		l1.4,6.4c-1.6,0.5-3.7,1.1-6.6,1.1C62.8,50.5,59.9,45.9,59.9,39z"/>
	<path class="st0" d="M82.4,10.7h8.8v15.1h13.5V10.7h8.8v39.1h-8.8V33.5H91.3v16.3h-8.8V10.7z"/>
	<path class="st0" d="M121.9,38.5V20h8.8v17.3c0,4.3,1.2,5.6,3.7,5.6c2.2,0,3.6-0.9,5.3-3.3V20h8.8v29.8h-7.2l-0.6-4.1h-0.2
		c-2.5,3-5.3,4.8-9.3,4.8C124.6,50.5,121.9,46,121.9,38.5z"/>
	<path class="st0" d="M164.1,46.6h-0.2l-0.7,3.2h-6.9v-42h8.8V18l-0.2,4.6c2.3-2,5.1-3.3,7.9-3.3c7.2,0,11.7,6,11.7,15.1
		c0,10.3-6.1,16.1-12.5,16.1C169.2,50.5,166.4,49.2,164.1,46.6z M175.3,34.5c0-5.3-1.7-8-5.2-8c-1.8,0-3.4,0.8-5.1,2.7v12.2
		c1.6,1.4,3.3,1.9,4.7,1.9C172.9,43.3,175.3,40.7,175.3,34.5z"/>
</g>
<g>
	<g>
	</g>
</g>
</svg>
