<?xml version="1.0" encoding="utf-8"?>
<!-- Generator: Adobe Illustrator 23.0.1, SVG Export Plug-In . SVG Version: 6.00 Build 0)  -->
<svg version="1.1" id="Layer_1" xmlns="http://www.w3.org/2000/svg" xmlns:xlink="http://www.w3.org/1999/xlink" x="0px" y="0px"
	 viewBox="0 0 257 155" style="enable-background:new 0 0 257 155;" xml:space="preserve">
<style type="text/css">
	.st0{fill:#E44D26;}
	.st1{fill:#0170BA;}
	.st2{fill:#E4A126;}
	.st3{fill:#FFFFFF;}
	.st4{	font-family: Century Gothic,CenturyGothic,AppleGothic,sans-serif;
}
	.st5{font-size:36px;}
	.st6{fill:#A9A9A9;}
	.st7{fill:none;stroke:#FAF5EF;stroke-width:5;stroke-miterlimit:10;}
	.st8{fill:none;stroke:#000000;stroke-width:16;stroke-miterlimit:10;}
	.st9{font-size:12px;}
</style>
<g>
	<rect x="0" y="2" class="st0" width="257" height="53"/>
</g>
<g>
	<rect x="0" y="53" class="st1" width="257" height="50"/>
</g>
<g>
	<rect x="0" y="104" class="st2" width="257" height="50"/>
</g>
<text transform="matrix(1 0 0 1 7.698 37.661)" class="st3 st4 st5">HTML</text>
<text transform="matrix(1 0 0 1 7.8098 89.9994)" class="st3 st4 st5">CSS</text>
<g>
	<g>
		<path class="st6" d="M176.6,148.2c0-22.1,18-40.1,40.1-40.1c1.9,0,3.5-1.6,3.5-3.5c0-0.6-0.1-1.1-0.4-1.6c-2.1,0.6-4.3,1-6.5,1.1
			c-3,0.1-6-0.4-8.7-1.4c-20.1,5.4-34.9,23.7-34.9,45.5c0,1,0.4,1.8,1,2.5c0.6,0.6,1.5,1,2.5,1C175,151.7,176.6,150.1,176.6,148.2z"
			/>
		<path class="st6" d="M208.1,155.3c2.1-0.2,4.3,0,6.4,0.2c0.9,0,1.8,0.1,2.7,0.1c0.7,0.1,1.4,0.1,2,0c1.5-0.1,3.1-0.4,4.6-0.5
			c0.8-0.1,1.6-0.2,2.4-0.2c1.1-0.1,2.2,0.2,3.2,0.6c15.3-7.8,25.8-23.7,25.8-41.9c0-1.9-1.6-3.5-3.5-3.5c-1.9,0-3.5,1.6-3.5,3.5
			c0,22.1-18,40.1-40.1,40.1c-1.6,0-3,1.1-3.4,2.7C205.7,155.7,206.8,155.4,208.1,155.3z"/>
	</g>
</g>
<text transform="matrix(1 0 0 1 7.5418 136.6922)" class="st3 st4 st5">Javascript</text>
<g id="Layer_x0020_1">
	<path class="st6" d="M123.3,92.4l-0.8-0.8c-1.6-1.6-2.4-2.9-2.4-4c0-1.1,0.6-2.3,1.8-3.8c0.7-0.8,2.9-3.2,6.8-7
		c4.2-4.2,6.8-7.6,7.8-10.2c1-2.6,1.1-5.4,0.2-8.4c2.2,0.7,4.4,0.8,6.5,0.4c2.1-0.5,4.4-1.7,6.8-3.7c0.5-0.4,1.3-1.1,2.3-2
		c-2.3-0.4-4.5-1.2-6.5-2.2c-0.6,0.5-1.2,0.9-1.6,1.2c-1.6,1.1-3.2,1.6-4.8,1.6c-1.6,0-3.1-0.7-4.4-1.9l-4.8,4.8h0
		c1.2,1.3,1.9,2.8,1.9,4.4c0,1.6-0.5,3.2-1.6,4.8c-1.1,1.6-3.4,4.2-6.9,7.8c-3.5,3.6-6,6.2-7.3,8c-1.3,1.8-2.2,3.5-2.5,5.2
		c-0.3,1.7-0.2,3.3,0.5,4.8c0.4,1.1,1.4,2.4,3.1,4l1.4,1.4L123.3,92.4z"/>
</g>
<g>
	<path class="st6" d="M190.9,33.9l0,17.1c0.7,0,1.4-0.1,2-0.1c0.8,0,1.6,0,2.3,0.1l0-17.1c0-1.2-1-2.2-2.2-2.2
		C191.9,31.7,190.9,32.7,190.9,33.9z"/>
	<path class="st6" d="M149.9,27.6l0-17.4l17.4,0c1.2,0,2.2-1,2.2-2.2s-1-2.2-2.2-2.2l-19.6,0c-1.2,0-2.2,1-2.2,2.2l0,19.6
		c0,1.2,1,2.2,2.2,2.2C148.9,29.8,149.9,28.8,149.9,27.6z"/>
	<path class="st6" d="M199.9,23.4c1.2-0.3,2-1.6,1.6-2.8c-0.3-1.2-1.6-1.9-2.8-1.6l-58,19.3c-1.2,0.3-2,1.6-1.6,2.8
		c0.3,1.2,1.6,1.9,2.8,1.6L199.9,23.4z"/>
</g>
<g id="Layer_x0020_1_1_">
	<path class="st6" d="M186.6,92.8c1.4-0.6,3-1.6,4.8-3.2c1.1-1,3.3-3.1,6.7-6.4c3.3-3.3,5.8-5.5,7.4-6.5c1.6-1.1,3.2-1.6,4.8-1.6
		c1.6,0,3.1,0.7,4.4,1.9l4.8-4.8c-1.2-1.3-1.9-2.8-1.9-4.4c0-1.6,0.5-3.2,1.6-4.8c1.1-1.6,3.4-4.2,6.9-7.8c1.2-1.2,2.3-2.4,3.3-3.4
		c-2.5,0-4.9-0.4-7.2-1.1c-0.4,0.4-0.8,0.8-1.2,1.2c-4.2,4.2-6.8,7.6-7.8,10.2c-1,2.6-1.1,5.4-0.2,8.4c-2.2-0.7-4.4-0.8-6.5-0.4
		c-2.1,0.5-4.4,1.7-6.8,3.7c-1.5,1.2-4.7,4.2-9.6,9.1c-2.6,2.6-4.5,4-5.8,4.1c-1.3,0.2-2.8-0.6-4.6-2.3l-0.8-0.8l-4.6,4.6l1.4,1.4
		c1.4,1.4,2.6,2.4,3.4,2.8c1.2,0.6,2.5,0.9,3.7,0.9C183.9,93.7,185.2,93.4,186.6,92.8z"/>
</g>
<line class="st7" x1="258" y1="51.5" x2="1" y2="51.5"/>
<line class="st7" x1="258" y1="103.5" x2="1" y2="103.5"/>
<path class="st8" d="M124.2,23.6"/>
<text transform="matrix(1 0 0 1 11.407 149.2567)" class="st3 st4 st9">+ jQuery</text>
<rect x="-0.5" y="0.5" class="st7" width="257" height="155"/>
</svg>
