<?xml version="1.0" encoding="utf-8"?>
<!-- Generator: Adobe Illustrator 23.0.1, SVG Export Plug-In . SVG Version: 6.00 Build 0)  -->
<svg version="1.1" id="Layer_1" xmlns="http://www.w3.org/2000/svg" xmlns:xlink="http://www.w3.org/1999/xlink" x="0px" y="0px"
	 viewBox="0 0 257 155" style="enable-background:new 0 0 257 155;" xml:space="preserve">
<style type="text/css">
	.st0{fill:#E44D26;}
	.st1{fill:#A9A9A9;}
	.st2{fill:#0170BA;}
	.st3{fill:#E4A126;}
	.st4{fill:#FFFFFF;}
	.st5{font-family: Century Gothic,CenturyGothic,AppleGothic,sans-serif;}
	.st6{font-size:24px;}
	.st7{fill:none;stroke:#000000;stroke-width:16;stroke-miterlimit:10;}
	.st8{font-size:12px;}
	.st9{fill:none;stroke:#FAF5EF;stroke-width:5;stroke-miterlimit:10;}
</style>
<g>
	<path class="st0" d="M91,4.4L1.8,93.6c0.1,0.4,0.1,0.8,0.1,1.2c0,10.1,0.3,20.1,1.3,30.1c0.1,1.1-0.1,2.2-0.5,3.2l19.8,19.8
		L128.5,41.9L91,4.4z"/>
</g>
<g>
	<path class="st1" d="M101.3,43l12.1,12.1c0.5-0.5,0.9-1.1,1.3-1.5c0.6-0.6,1.1-1.1,1.7-1.6L104.3,40c-0.8-0.8-2.3-0.8-3.1,0
		C100.4,40.8,100.4,42.2,101.3,43z"/>
	<path class="st1" d="M67.8,67.6L55.5,55.3L67.8,43c0.8-0.8,0.8-2.3,0-3.1s-2.3-0.8-3.1,0L50.8,53.7c-0.8,0.8-0.8,2.3,0,3.1
		l13.9,13.9c0.8,0.8,2.3,0.8,3.1,0C68.7,69.8,68.6,68.5,67.8,67.6z"/>
	<path class="st1" d="M100.2,29.2c0.6-1.1,0.3-2.5-0.8-3.1c-1.1-0.6-2.5-0.2-3.1,0.8L68.9,81.6c-0.6,1.1-0.3,2.5,0.8,3.1
		c1.1,0.6,2.5,0.2,3.1-0.8L100.2,29.2z"/>
</g>
<g>
	<rect x="54.6" y="53" transform="matrix(0.7071 -0.7071 0.7071 0.7071 -17.1941 114.4897)" class="st2" width="150" height="50"/>
</g>
<g>
	<path class="st3" d="M256.1,56.9c0.1-1.9,0.3-3.8,0.6-5.7c-0.5-1-0.8-2-0.8-3.2c-0.1-2.9-0.1-5.7,0-8.5c-0.1-1.3-0.3-2.5-0.3-3.6
		c0-2.7,0.3-5.4,1-7.9L237.2,8.4L131.1,114.5l35.4,35.4l90-90C256.2,59,256,58,256.1,56.9z"/>
</g>
<text transform="matrix(0.7071 -0.7071 0.7071 0.7071 18.4652 131.2012)" class="st4 st5 st6">HTML</text>
<text transform="matrix(0.7071 -0.7071 0.7071 0.7071 84.4591 131.2017)" class="st4 st5 st6">CSS</text>
<g>
	<g>
		<path class="st1" d="M222.4,81.5c-15.6-15.6-15.6-41.1,0-56.7c0.8-0.8,1.1-2,0.9-3.1c-0.9,0.8-2,1.5-3.3,2
			c-0.5,0.2-1.1,0.5-1.6,0.9c-0.2,0.4-0.5,0.9-0.7,1.3c-1.8,2.9-3.9,5.2-6.7,7.2c-0.8,1.4-2.1,2.6-3.7,3.2c-0.2,0.2-0.4,0.3-0.6,0.5
			c-6.2,16.7-2.6,36.2,10.9,49.7c0.7,0.7,1.6,1,2.5,1.1c0.8,0,1.8-0.4,2.5-1.1C223.8,85,223.8,82.9,222.4,81.5z"/>
		<path class="st1" d="M235,80.4c1.3-1.6,3-3,4.7-4.4c0.6-0.6,1.3-1.2,2-1.8c0.6-0.4,1.1-0.9,1.4-1.4c1-1.1,1.9-2.5,2.9-3.6
			c0.5-0.6,1-1.3,1.6-1.8c0.7-0.8,1.7-1.4,2.7-1.8c5.3-16.3,1.5-35-11.4-47.9c-1.3-1.3-3.6-1.3-4.9,0c-1.3,1.3-1.3,3.6,0,4.9
			c15.6,15.6,15.6,41.1,0,56.7c-1.1,1.1-1.3,2.9-0.5,4.3C233.6,82.4,234.2,81.3,235,80.4z"/>
	</g>
</g>
<text transform="matrix(0.7071 -0.7071 0.7071 0.7071 156.6014 131.2012)" class="st4 st5 st6">Javascript</text>
<g id="Layer_x0020_1">
	<path class="st1" d="M130,96.5c-2.3,0-3.7-0.4-4.5-1.1c-0.8-0.8-1.2-2.1-1.4-4c-0.1-1.1-0.2-4.3-0.1-9.8c0-5.9-0.6-10.2-1.7-12.7
		c-1.1-2.5-3-4.6-5.8-6.1c2.1-1.1,3.7-2.5,4.9-4.3c1.1-1.8,1.9-4.3,2.2-7.4c0.1-0.5,0.1-1.3,0.2-2.3c-0.4,0.3-0.9,0.6-1.4,0.9
		c-0.8,1.4-1.9,2.6-3.5,3.3c-0.5,0.6-1.1,1-1.8,1.4c-0.4,1.3-1.1,2.4-1.9,3.2c-0.9,0.9-2.2,1.5-3.5,1.7c-0.3,0.3-0.6,0.7-0.9,1v5.9
		c1.8,0.1,3.3,0.6,4.5,1.8c1.1,1.1,1.9,2.6,2.3,4.5s0.6,5.4,0.6,10.4c0.1,5,0.1,8.6,0.5,10.8c0.4,2.2,0.9,4,1.9,5.4
		c1,1.4,2.2,2.5,3.7,3c1.1,0.5,2.7,0.7,5,0.6h2l0.1-6.3H130z"/>
</g>
<g id="Layer_x0020_1_1_">
	<path class="st1" d="M161.3,31.5c-1.1-1.1-1.9-2.6-2.3-4.5c-0.4-1.9-0.6-5.4-0.6-10.4c0-1.2,0-2.3-0.1-3.3
		c-0.1,0.1-0.2,0.2-0.3,0.3c-0.9,2.3-2.6,4.2-5.3,4.9c-0.1,0.1-0.2,0.2-0.3,0.3c0.1,5.5,0.6,9.4,1.7,11.8c1.1,2.5,3,4.6,5.8,6.1
		c-2.1,1.1-3.7,2.5-4.9,4.3c-1.1,1.8-1.9,4.3-2.2,7.4c-0.2,1.9-0.4,6.3-0.4,13.2c0,3.7-0.4,6-1.2,7c-0.8,1.1-2.4,1.6-4.9,1.6h-1.1
		v6.5h2c2,0,3.5-0.1,4.4-0.4c1.3-0.4,2.4-1.1,3.3-2c0.8-0.7,1.6-1.8,2.1-3.3c0.6-1.4,1-3.3,1.1-5.7c0.1-1.5,0.1-4.5,0.2-9.3
		c0-4.7,0.2-8,0.6-9.8c0.4-1.9,1.1-3.4,2.3-4.5c1.1-1.1,2.7-1.7,4.5-1.8v-6.8C164,33.2,162.4,32.6,161.3,31.5z"/>
</g>
<path class="st7" d="M73.8,89.2"/>
<text transform="matrix(0.7071 -0.7071 0.7071 0.7071 165.7369 139.6543)" class="st4 st5 st8">+ jQuery</text>
<rect x="2.5" y="2.5" class="st9" width="252" height="150"/>
<path class="st9" d="M92.4,3.2C63,34,32,63,2.1,93.7"/>
<path class="st9" d="M168.4,2.8C133,39,97,73,61,109c-14,15-28,30-42.7,43.9"/>
<path class="st9" d="M241,3.1C193,53,141,101,93,151.1"/>
<path class="st9" d="M254.7,63.1C225,93,195,123,165,152.4"/>
</svg>
