<svg id="b370fb04-045f-4dae-bdab-751eabac9ff2" data-name="Layer 1" xmlns="http://www.w3.org/2000/svg" viewBox="0 0 864.41 234.75">
  <defs>
    <style>
      .a751e909-708c-4cdf-9555-b51fef50c640,
      .f82503dc-0589-46bc-bb45-edcfd0d5b23c {
        fill: #231f20;
      }
      .a751e909-708c-4cdf-9555-b51fef50c640 {
        opacity: 0.8;
        isolation: isolate;
      }
      .f9d4ee80-649a-4b2a-9def-8bde945e1387 {
        opacity: 0.2;
      }
      .b80454f8-a3d7-471b-8a1d-e17e41e31763 {
        fill: #0170ba;
      }
      .e1d2c704-4f52-498b-a2a2-c74cdcf36a8b {
        fill: #29a9df;
      }
      .e65cc304-0fc8-4cf5-aa71-c6d061875f76 {
        fill: #cfcfcf;
      }
      .f0f6fc7f-3cd1-4a8a-8cde-13ea7e9248db {
        fill: #fff;
      }
    </style>
  </defs>
  <title>gpa_used</title><path
    d="M.06,188.86,36.8,166.62c7.09,12.57,13.54,23.21,29,23.21C80.64,189.83,90,184,90,161.46V8h45.13V162.1c0,46.74-27.4,68-67.37,68-36.1,0-57.06-18.7-67.7-41.26M159.63,184l36.74-21.28c9.67,15.8,22.25,27.4,44.48,27.4,18.7,0,30.63-9.35,30.63-22.24,0-15.47-12.25-20.95-32.88-30l-11.28-4.84c-32.56-13.85-54.16-31.26-54.16-68,0-33.84,25.79-59.63,66.08-59.63,28.69,0,49.32,10,64.15,36.1L268.25,64.12c-7.74-13.86-16.11-19.34-29-19.34-13.21,0-21.59,8.38-21.59,19.34,0,13.54,8.38,19,27.72,27.4l11.28,4.83c38.36,16.44,60,33.2,60,70.91,0,40.62-31.91,62.86-74.78,62.86-41.9,0-69-20-82.19-46.09"/><path
    d="M0,188.51l36.75-22.24c7.09,12.57,13.54,23.2,29,23.2,14.83,0,24.18-5.8,24.18-28.36V7.68h45.12V161.75c0,46.74-27.4,68-67.37,68-36.1,0-57-18.69-67.69-41.26m159.57-4.83,36.75-21.27c9.67,15.79,22.24,27.4,44.48,27.4,18.7,0,30.62-9.35,30.62-22.25,0-15.47-12.25-21-32.88-30l-11.28-4.84c-32.55-13.86-54.15-31.26-54.15-68,0-33.85,25.79-59.64,66.08-59.64,28.69,0,49.32,10,64.14,36.11L268.2,63.76c-7.74-13.86-16.12-19.34-29-19.34-13.22,0-21.6,8.39-21.6,19.34,0,13.54,8.38,19,27.72,27.4L256.59,96c38.36,16.44,60,33.2,60,70.91,0,40.62-31.91,62.86-74.78,62.86-41.91,0-69-20-82.2-46.1"/><path
    d="M0,188.51l36.75-22.24c7.09,12.57,13.54,23.2,29,23.2,14.83,0,24.18-5.8,24.18-28.36V7.68h45.12V161.75c0,46.74-27.4,68-67.37,68-36.1,0-57-18.69-67.69-41.26m159.57-4.83,36.75-21.27c9.67,15.79,22.24,27.4,44.48,27.4,18.7,0,30.62-9.35,30.62-22.25,0-15.47-12.25-21-32.88-30l-11.28-4.84c-32.55-13.86-54.15-31.26-54.15-68,0-33.85,25.79-59.64,66.08-59.64,28.69,0,49.32,10,64.14,36.11L268.2,63.76c-7.74-13.86-16.12-19.34-29-19.34-13.22,0-21.6,8.39-21.6,19.34,0,13.54,8.38,19,27.72,27.4L256.59,96c38.36,16.44,60,33.2,60,70.91,0,40.62-31.91,62.86-74.78,62.86-41.91,0-69-20-82.2-46.1"/><path class="f82503dc-0589-46bc-bb45-edcfd0d5b23c" d="M453.72,95.87h33.2V70.12h-35.5ZM386.54,3.06l18.28,205,82.05,22.78L569,208.11l18.3-205Zm166.8,192-66.42,18.41v-26.1h0l-51.51-14.3-3.6-40.38H457l1.87,21,28,7.57h0V121h-56.2l-6.78-76h63V19.82H569Z"/><path class="a751e909-708c-4cdf-9555-b51fef50c640" d="M517.88,121h-31v40.19l28-7.57Zm-31-101.2V45h63l-2.25,25.15H486.92V95.87h58.45l-6.9,77.21-51.55,14.29v26.1l66.42-18.41L569,19.82Z"/>
  <g class="f9d4ee80-649a-4b2a-9def-8bde945e1387"><polygon class="f82503dc-0589-46bc-bb45-edcfd0d5b23c" points="486.92 44.97 423.94 44.97 430.72 121.02 486.92 121.02 486.92 95.87 453.72 95.87 451.42 70.12 486.92 70.12 486.92 44.97"/><polygon class="f82503dc-0589-46bc-bb45-edcfd0d5b23c" points="486.92 161.21 486.89 161.22 458.88 153.65 457.01 132.7 431.77 132.7 435.37 173.08 486.88 187.38 486.92 187.37 486.92 161.21"/></g><path
    class="b80454f8-a3d7-471b-8a1d-e17e41e31763"
    d="M663.46,2.71H864.41c-3.69,41.66-7.32,83.32-11.16,125q-3.42,39.93-7.11,79.84c-14.3,3.79-28.45,8.1-42.74,11.91-13.12,3.85-26.35,7.33-39.48,11.16h-.39c-12.49-3.72-25.11-7-37.61-10.71-14.75-4-29.36-8.4-44.12-12.36-1.92-19.94-3.65-39.89-5.36-59.84-3.23-36.86-6.74-73.7-9.85-110.57-1.07-11.09-1.84-22.23-3.13-33.3V2.71M764.25,19.15c-.14,8,.1,16-.14,24-23-.09-46,0-69,0,.4,7.77,1.44,15.48,2.51,23.19,21.38.79,42.79,0,64.17.61-18.71,8.39-37.64,16.29-56.43,24.51a24.66,24.66,0,0,0-4.77,2.3c.16,8.53,1.53,17,2.14,25.53,11.39,0,22.78-.22,34.18-.24,9.13,0,18.27.14,27.4-.06-.44,14,.13,28.07-.29,42.1-6.15-.91-12.22-2.28-18.34-3.37-4.83-1-9.77-1.6-14.53-3-.67-6.73-1.14-13.49-1.74-20.23a15.26,15.26,0,0,0-4.26-.4c-6.9,0-13.81,0-20.72.08a383.85,383.85,0,0,0,3.82,38.72c6.81,1.78,13.63,3.52,20.43,5.37,10.41,2.83,20.95,5.19,31.38,8a13.59,13.59,0,0,0,3.78.62c.7,8.52.16,17.09.29,25.63a51.89,51.89,0,0,0,7.09-1.7c19.75-5.36,39.47-10.82,59.2-16.24,1-7.76,1.44-15.57,2.22-23.35q3.07-35.47,6.27-70.94c2.53-27.05,4.71-54.13,7.25-81.18C818.88,19.14,791.57,19.06,764.25,19.15Z"/><path
    class="e1d2c704-4f52-498b-a2a2-c74cdcf36a8b"
    d="M764.25,19.15c27.32-.09,54.63,0,82,0-2.54,27.05-4.72,54.13-7.25,81.18q-3.23,35.46-6.27,70.94c-.78,7.78-1.23,15.59-2.22,23.35-19.73,5.42-39.45,10.88-59.2,16.24a51.89,51.89,0,0,1-7.09,1.7c-.13-8.54.41-17.11-.29-25.63l.72-.15c18.36-4.61,36.6-9.68,54.92-14.45,2.32-26,4.89-52,6.52-78-15.59.08-31.17,0-46.76.1-2.27,0-4.53,0-6.79-.17,8.38-4.31,17.2-7.74,25.81-11.59,8.26-3.74,16.62-7.25,24.91-10.93a22.86,22.86,0,0,0,4.71-2.44,37.19,37.19,0,0,0,.74-6.23c.48-6.58,1.33-13.13,1.65-19.72-22.07-.18-44.14,0-66.21-.14C764.35,35.16,764.11,27.15,764.25,19.15Z"/><path class="e1d2c704-4f52-498b-a2a2-c74cdcf36a8b" d="M764.36,119c10.65-.19,21.31.1,32,0-.59,10.9-1.49,21.77-2.06,32.67-6.53,2.13-13.16,3.94-19.75,5.92a76.67,76.67,0,0,0-10.45,3.48C764.49,147.07,763.92,133,764.36,119Z"/><path
    class="e65cc304-0fc8-4cf5-aa71-c6d061875f76"
    d="M695.16,43.16c23,0,46-.09,69,0,.3,25.28-.08,50.56.25,75.84-9.13.2-18.27,0-27.4.06-11.4,0-22.79.2-34.18.24-.61-8.51-2-17-2.14-25.53a24.66,24.66,0,0,1,4.77-2.3C724.2,83.25,743.13,75.35,761.84,67c-21.38-.64-42.79.18-64.17-.61C696.6,58.64,695.56,50.93,695.16,43.16Z"/><path
    class="e65cc304-0fc8-4cf5-aa71-c6d061875f76"
    d="M704.48,134.2c6.91-.1,13.82,0,20.72-.08a15.26,15.26,0,0,1,4.26.4c.6,6.74,1.07,13.5,1.74,20.23,4.76,1.38,9.7,1.93,14.53,3,6.12,1.09,12.19,2.46,18.34,3.37.58,8.54-.45,17.14.54,25.64l-.72.15a13.59,13.59,0,0,1-3.78-.62c-10.43-2.79-21-5.15-31.38-8-6.8-1.85-13.62-3.59-20.43-5.37A383.85,383.85,0,0,1,704.48,134.2Z"/><path
    class="f0f6fc7f-3cd1-4a8a-8cde-13ea7e9248db"
    d="M764.11,43.16c22.07.11,44.14,0,66.21.14-.32,6.59-1.17,13.14-1.65,19.72a37.19,37.19,0,0,1-.74,6.23,22.86,22.86,0,0,1-4.71,2.44c-8.29,3.68-16.65,7.19-24.91,10.93-8.61,3.85-17.43,7.28-25.81,11.59,2.26.17,4.52.18,6.79.17,15.59-.07,31.17,0,46.76-.1-1.63,26-4.2,52-6.52,78-18.32,4.77-36.56,9.84-54.92,14.45-1-8.5,0-17.1-.54-25.64a76.67,76.67,0,0,1,10.45-3.48c6.59-2,13.22-3.79,19.75-5.92.57-10.9,1.47-21.77,2.06-32.67-10.66.07-21.32-.22-32,0C764,93.72,764.41,68.44,764.11,43.16Z"/><rect x="336.88" width="18.33" height="233.94"/><rect x="613.4" y="0.82" width="18.33" height="233.94"/></svg>
