<?xml version="1.0" encoding="utf-8"?>
<!-- Generator: Adobe Illustrator 23.0.1, SVG Export Plug-In . SVG Version: 6.00 Build 0)  -->
<svg version="1.1" id="Layer_1" xmlns="http://www.w3.org/2000/svg" xmlns:xlink="http://www.w3.org/1999/xlink" x="0px" y="0px"
	 viewBox="0 0 257 155" style="enable-background:new 0 0 257 155;" xml:space="preserve">
<style type="text/css">
	.st0{fill:#F05340;}
	.st1{fill:#E44D26;}
	.st2{fill:#0170BA;}
	.st3{fill:#A9A9A9;}
	.st4{fill:#FFFFFF;}
	.st5{	font-family: Century Gothic,CenturyGothic,AppleGothic,sans-serif;
}
	.st6{font-size:24px;}
	.st7{fill:#E4A126;}
	.st8{fill:none;stroke:#FAF5EF;stroke-width:5;stroke-miterlimit:10;}
	.st9{fill:none;stroke:#FFFFFF;stroke-width:5;stroke-miterlimit:10;}
	.st10{fill:none;stroke:#000000;stroke-width:16;stroke-miterlimit:10;}
	.st11{font-size:12px;}
	.st12{fill:#00758F;}
</style>
<g>
	<path class="st0" d="M2,3v2.8C2.1,7,2.1,8.2,2.1,9.5c0,0.8-0.1,1.6-0.1,2.4V153h53V3H2z"/>
</g>
<g>
	<rect x="52" y="3" class="st1" width="53" height="150"/>
</g>
<g>
	<rect x="102" y="3" class="st2" width="50" height="150"/>
</g>
<path class="st3" d="M50.8,29.6c0.2-1.3,0.3-2.6,0.5-4l-3.5-4.7c-0.2-0.4-0.4-0.7,0.1-0.8c0.2,0,2.1-0.4,4.2-0.7
	c0.1-1,0.3-2,0.4-2.9c-3.3,0.6-6.9,1.2-7.6,1.2c-1.3,0.2-2.1,0.7-1.3,1.9C44.1,20.2,48,25.6,50.8,29.6z"/>
<path class="st3" d="M50.1,56.8C43.5,59,37.3,61.1,37,61.2c-0.6,0.2-1,0.4-1.6-0.7c-0.7-1-9.5-16.3-9.5-16.3l24-6.3
	c0.1-1.3,0.2-2.5,0.4-3.8l-26.5,6.4L1.9,4c0,0.3,0,0.6,0,0.9c0.2,1.5,0.2,3,0.2,4.6c0,0.5,0,1.1-0.1,1.6c6.4,11.1,17,29.3,17.2,29.7
	c0.5,0.6,0.2,0.8-0.1,1c-0.3,0.1-13.7,3.3-17.1,4.1c-0.1,1.5-0.2,3-0.3,4.5c3.8-1,14.2-3.7,20.1-5.2C25.2,51,31.7,62.9,33,64.7
	c1.6,2.3,2.8,1.9,5.2,1.2c0.8-0.2,6.3-2.2,12.4-4.4C50.4,59.9,50.2,58.3,50.1,56.8z"/>
<text transform="matrix(4.489659e-11 -1 1 4.489659e-11 34.8584 147.6533)" class="st4 st5 st6">Laravel</text>
<g>
	<rect x="152" y="3" class="st7" width="50" height="150"/>
</g>
<text transform="matrix(4.489659e-11 -1 1 4.489659e-11 83.8584 147.6533)" class="st4 st5 st6">HTML</text>
<text transform="matrix(4.489659e-11 -1 1 4.489659e-11 134.1968 147.5415)" class="st4 st5 st6">CSS</text>
<g>
	<g>
		<path class="st3" d="M194.4,58.8c-22.1,0-40.1-18-40.1-40.1c0-1.9-1.6-3.5-3.5-3.5c-0.6,0-1.1,0.1-1.6,0.4c0.6,2.1,1,4.3,1.1,6.5
			c0.1,3-0.4,6-1.4,8.7c5.4,20.1,23.7,34.9,45.5,34.9c1,0,1.8-0.4,2.5-1c0.6-0.6,1-1.5,1-2.5C197.8,60.3,196.3,58.8,194.4,58.8z"/>
		<path class="st3" d="M199.5,50.3c-0.2-2.1,0-4.3,0.2-6.4c0-0.9,0.1-1.8,0.1-2.7c0.1-0.7,0.1-1.4,0-2c-0.1-1.5-0.4-3.1-0.5-4.6
			c-0.1-0.8-0.2-1.6-0.2-2.4c-0.1-1.1,0.2-2.2,0.6-3.2c-7.8-15.3-23.7-25.8-41.9-25.8c-1.9,0-3.5,1.6-3.5,3.5c0,1.9,1.6,3.5,3.5,3.5
			c22.1,0,40.1,18,40.1,40.1c0,1.6,1.1,3,2.7,3.4C199.9,52.7,199.6,51.5,199.5,50.3z"/>
	</g>
</g>
<text transform="matrix(4.489659e-11 -1 1 4.489659e-11 182.8896 147.8096)" class="st4 st5 st6">Javascript</text>
<line class="st8" x1="52" y1="3" x2="52" y2="153"/>
<g id="Layer_x0020_1">
	<path class="st3" d="M142.6,90l-0.8,0.8c-1.6,1.6-2.9,2.4-4,2.4c-1.1,0-2.3-0.6-3.8-1.8c-0.8-0.7-3.2-2.9-7-6.8
		c-4.2-4.2-7.6-6.8-10.2-7.8c-2.6-1-5.4-1.1-8.4-0.2c0.7-2.2,0.8-4.4,0.4-6.5c-0.5-2.1-1.7-4.4-3.7-6.8c-0.4-0.5-1.1-1.3-2-2.3
		c-0.4,2.3-1.2,4.5-2.2,6.5c0.5,0.6,0.9,1.2,1.2,1.6c1.1,1.6,1.6,3.2,1.6,4.8c0,1.6-0.7,3.1-1.9,4.4l4.8,4.8v0
		c1.3-1.2,2.8-1.9,4.4-1.9c1.6,0,3.2,0.5,4.8,1.6c1.6,1.1,4.2,3.4,7.8,6.9c3.6,3.5,6.2,6,8,7.3c1.8,1.3,3.5,2.2,5.2,2.5
		c1.7,0.3,3.3,0.2,4.8-0.5c1.1-0.4,2.4-1.4,4-3.1l1.4-1.4L142.6,90z"/>
</g>
<g>
	<path class="st3" d="M84.1,22.4l17.1,0c0-0.7-0.1-1.4-0.1-2c0-0.8,0-1.6,0.1-2.3l-17.1,0c-1.2,0-2.2,1-2.2,2.2
		C81.9,21.5,82.9,22.4,84.1,22.4z"/>
	<path class="st3" d="M77.8,63.5l-17.4,0l0-17.4c0-1.2-1-2.2-2.2-2.2s-2.2,1-2.2,2.2l0,19.6c0,1.2,1,2.2,2.2,2.2l19.6,0
		c1.2,0,2.2-1,2.2-2.2C80,64.4,79,63.5,77.8,63.5z"/>
	<path d="M102.4,36.1c-0.2-3.3-0.6-6.6-0.9-9.9l0,13.6c0,1.1,0.8,2,1.8,2.1C102.8,40,102.5,38.1,102.4,36.1z"/>
	<path class="st3" d="M73.6,13.4c-0.3-1.2-1.6-2-2.8-1.6c-1.2,0.3-1.9,1.6-1.6,2.8l19.3,58c0.3,1.2,1.6,2,2.8,1.6
		c1.2-0.3,1.9-1.6,1.6-2.8L73.6,13.4z"/>
</g>
<g id="Layer_x0020_1_1_">
	<path class="st3" d="M143,53.7c-0.6-1.4-1.6-3-3.2-4.8c-1-1.1-3.1-3.3-6.4-6.7c-3.3-3.3-5.5-5.8-6.5-7.4c-1.1-1.6-1.6-3.2-1.6-4.8
		c0-1.6,0.7-3.1,1.9-4.4l-4.8-4.8c-1.3,1.2-2.8,1.9-4.4,1.9c-1.6,0-3.2-0.5-4.8-1.6c-1.6-1.1-4.2-3.4-7.8-6.9
		c-1.2-1.2-2.4-2.3-3.4-3.3c0,2.5-0.4,4.9-1.1,7.2c0.4,0.4,0.8,0.8,1.2,1.2c4.2,4.2,7.6,6.8,10.2,7.8c2.6,1,5.4,1.1,8.4,0.2
		c-0.7,2.2-0.8,4.4-0.4,6.5c0.5,2.1,1.7,4.4,3.7,6.8c1.2,1.5,4.2,4.7,9.1,9.6c2.6,2.6,4,4.5,4.1,5.8c0.2,1.3-0.6,2.8-2.3,4.6
		l-0.8,0.8l4.6,4.6l1.4-1.4c1.4-1.4,2.4-2.6,2.8-3.4c0.6-1.2,0.9-2.5,0.9-3.7C143.9,56.4,143.6,55.1,143,53.7z"/>
</g>
<line class="st9" x1="101.5" y1="3" x2="101.5" y2="153"/>
<line class="st8" x1="151.5" y1="3" x2="151.5" y2="153"/>
<line class="st8" x1="201.5" y1="3" x2="201.5" y2="153"/>
<path class="st10" d="M73.8,89.2"/>
<text transform="matrix(4.489659e-11 -1 1 4.489659e-11 195.4541 147.9443)" class="st4 st5 st11">+ jQuery, AJAX</text>
<g>
	<rect x="204" y="3" class="st12" width="50" height="150"/>
</g>
<path class="st3" d="M252.9,38.1c0-0.1-0.1-0.1-0.1-0.2c-5.4-8.9-11.2-14.2-20.2-19.5c-1.9-1.1-4.2-1.6-6.7-2.1
	c-1.3-0.1-2.6-0.2-3.9-0.2c-0.8-0.4-1.7-1.4-2.4-1.8c-3-1.9-10.6-5.9-12.8-0.6c-1.4,3.4,2.1,6.7,3.3,8.5c0.9,1.2,2,2.6,2.7,3.9
	c0.4,0.9,0.5,1.8,0.8,2.8c0.8,2.3,1.6,4.9,2.7,7c0.6,1.1,1.2,2.2,1.9,3.2c0.4,0.6,1.1,0.8,1.3,1.8c-0.7,1-0.8,2.6-1.2,3.9
	c-1.9,5.9-1.1,13.2,1.5,17.5c0.8,1.3,2.8,4.2,5.5,3.1c2.3-0.9,1.8-3.9,2.5-6.5c0.2-0.6,0.1-1,0.4-1.5c0,0.1,0,0.1,0,0.1
	c0.7,1.5,1.5,2.9,2.1,4.3c1.6,2.6,4.4,5.2,6.8,7c1.3,0.9,2.2,2.6,3.8,3.1v-0.2h-0.1c-0.3-0.5-0.8-0.7-1.2-1c-0.9-0.9-2-2.1-2.7-3.1
	c-2.2-2.9-4.1-6.2-5.8-9.5c-0.8-1.6-1.6-3.4-2.2-5c-0.3-0.6-0.3-1.6-0.8-1.9c-0.8,1.1-1.9,2.1-2.5,3.5c-1,2.2-1.1,5-1.5,7.9
	c-0.2,0.1-0.1,0-0.2,0.1c-1.7-0.4-2.2-2.1-2.9-3.6c-1.6-3.7-1.8-9.7-0.5-13.9c0.4-1.1,1.9-4.5,1.3-5.6c-0.3-1-1.4-1.6-1.9-2.3
	c-0.7-1-1.4-2.2-1.9-3.3c-1.3-2.9-1.9-6.2-3.2-9.1c-0.6-1.4-1.7-2.8-2.6-4c-1-1.4-2.1-2.4-2.9-4.1c-0.3-0.6-0.6-1.5-0.2-2.1
	c0.1-0.4,0.3-0.6,0.7-0.7c0.7-0.6,2.6,0.2,3.3,0.5c1.9,0.8,3.5,1.5,5.2,2.6c0.7,0.5,1.5,1.5,2.5,1.8h1.1c1.7,0.4,3.5,0.1,5.1,0.6
	c2.8,0.9,5.3,2.2,7.5,3.6c6.8,4.3,12.5,10.5,16.3,17.9c0.6,1.2,0.9,2.3,1.5,3.5c0,0.1,0.1,0.1,0.1,0.2c0.1-0.2,0.2-0.4,0.4-0.6
	c0-0.6,0-1.2,0.1-1.8C252.4,40.7,252.5,39.3,252.9,38.1z"/>
<text transform="matrix(4.489659e-11 -1 1 4.489659e-11 234.8896 147.8096)" class="st4 st5 st6">MySQL</text>
<rect x="2.5" y="2.5" class="st8" width="252" height="150"/>
</svg>
