<?xml version="1.0" encoding="utf-8"?>
<!-- Generator: Adobe Illustrator 23.0.1, SVG Export Plug-In . SVG Version: 6.00 Build 0)  -->
<svg version="1.1" id="Layer_1" xmlns="http://www.w3.org/2000/svg" xmlns:xlink="http://www.w3.org/1999/xlink" x="0px" y="0px"
	 viewBox="0 0 257 155" style="enable-background:new 0 0 257 155;" xml:space="preserve">
<style type="text/css">
	.st0{fill:#F05340;}
	.st1{fill:#E44D26;}
	.st2{fill:#0170BA;}
	.st3{fill:#A9A9A9;}
	.st4{enable-background:new    ;}
	.st5{fill:#FFFFFF;}
	.st6{fill:#E4A126;}
	.st7{fill:none;stroke:#FAF5EF;stroke-width:5;stroke-miterlimit:10;}
	.st8{fill:none;stroke:#FFFFFF;stroke-width:5;stroke-miterlimit:10;}
	.st9{fill:none;stroke:#000000;stroke-width:16;stroke-miterlimit:10;}
	.st10{fill:#00758F;}
</style>
<g>
	<path class="st0" d="M2,3v2.8C2.1,7,2.1,8.2,2.1,9.5c0,0.8-0.1,1.6-0.1,2.4V153h53V3H2z"/>
</g>
<g>
	<rect x="52" y="3" class="st1" width="53" height="150"/>
</g>
<g>
	<rect x="102" y="3" class="st2" width="50" height="150"/>
</g>
<path class="st3" d="M50.8,29.6c0.2-1.3,0.3-2.6,0.5-4l-3.5-4.7c-0.2-0.4-0.4-0.7,0.1-0.8c0.2,0,2.1-0.4,4.2-0.7
	c0.1-1,0.3-2,0.4-2.9c-3.3,0.6-6.9,1.2-7.6,1.2c-1.3,0.2-2.1,0.7-1.3,1.9C44.1,20.2,48,25.6,50.8,29.6z"/>
<path class="st3" d="M50.1,56.8C43.5,59,37.3,61.1,37,61.2c-0.6,0.2-1,0.4-1.6-0.7c-0.7-1-9.5-16.3-9.5-16.3l24-6.3
	c0.1-1.3,0.2-2.5,0.4-3.8l-26.5,6.4L1.9,4c0,0.3,0,0.6,0,0.9c0.2,1.5,0.2,3,0.2,4.6c0,0.5,0,1.1-0.1,1.6c6.4,11.1,17,29.3,17.2,29.7
	c0.5,0.6,0.2,0.8-0.1,1C18.8,41.9,5.4,45.1,2,45.9c-0.1,1.5-0.2,3-0.3,4.5c3.8-1,14.2-3.7,20.1-5.2C25.2,51,31.7,62.9,33,64.7
	c1.6,2.3,2.8,1.9,5.2,1.2c0.8-0.2,6.3-2.2,12.4-4.4C50.4,59.9,50.2,58.3,50.1,56.8z"/>
<g class="st4">
	<path class="st5" d="M17.6,145.6v-1.7h15.6v-6.6h1.7v8.4H17.6z"/>
	<path class="st5" d="M22.1,122h12.8v1.6h-2.2c0.8,0.7,1.5,1.5,1.9,2.3s0.6,1.8,0.6,2.8c0,1.8-0.7,3.3-2,4.6s-2.9,1.9-4.8,1.9
		c-1.8,0-3.4-0.6-4.7-1.9s-2-2.8-2-4.7c0-1,0.2-2,0.7-2.8s1.1-1.6,2-2.2h-2.3V122z M23.4,128.6c0,0.9,0.2,1.8,0.7,2.5
		c0.4,0.8,1.1,1.4,1.9,1.8s1.7,0.7,2.6,0.7c0.9,0,1.8-0.2,2.6-0.7s1.5-1.1,1.9-1.9c0.5-0.8,0.7-1.6,0.7-2.5c0-0.9-0.2-1.7-0.7-2.6
		c-0.5-0.8-1.1-1.4-1.8-1.9c-0.8-0.4-1.6-0.6-2.6-0.6c-1.5,0-2.7,0.5-3.7,1.5C23.9,126,23.4,127.2,23.4,128.6z"/>
	<path class="st5" d="M22.1,119v-1.7H24c-0.7-0.5-1.3-1-1.6-1.6s-0.5-1.1-0.5-1.7c0-0.5,0.1-0.9,0.4-1.5l1.4,0.9
		c-0.1,0.3-0.2,0.6-0.2,0.9c0,0.5,0.2,1.1,0.7,1.6s1.1,0.9,2.1,1.2c0.7,0.2,2.2,0.3,4.4,0.3h4.3v1.7H22.1z"/>
	<path class="st5" d="M22.1,98.4h12.8v1.6h-2.2c0.8,0.7,1.5,1.5,1.9,2.3s0.6,1.8,0.6,2.8c0,1.8-0.7,3.3-2,4.6s-2.9,1.9-4.8,1.9
		c-1.8,0-3.4-0.6-4.7-1.9s-2-2.8-2-4.7c0-1,0.2-2,0.7-2.8s1.1-1.6,2-2.2h-2.3V98.4z M23.4,105c0,0.9,0.2,1.8,0.7,2.5
		c0.4,0.8,1.1,1.4,1.9,1.8s1.7,0.7,2.6,0.7c0.9,0,1.8-0.2,2.6-0.7s1.5-1.1,1.9-1.9c0.5-0.8,0.7-1.6,0.7-2.5c0-0.9-0.2-1.7-0.7-2.6
		c-0.5-0.8-1.1-1.4-1.8-1.9c-0.8-0.4-1.6-0.6-2.6-0.6c-1.5,0-2.7,0.5-3.7,1.5C23.9,102.4,23.4,103.6,23.4,105z"/>
	<path class="st5" d="M22.1,95.9v-1.7l9.3-4.3l-9.3-4.2v-1.8l12.8,5.8v0.3L22.1,95.9z"/>
	<path class="st5" d="M30.6,70.7l0.7-1.4c0.9,0.5,1.6,1,2.2,1.6s1,1.3,1.2,2c0.3,0.7,0.4,1.6,0.4,2.5c0,2.1-0.7,3.7-2,4.9
		c-1.4,1.2-2.9,1.8-4.6,1.8c-1.6,0-3.1-0.5-4.3-1.5c-1.6-1.3-2.4-2.9-2.4-5.1c0-2.2,0.8-3.9,2.5-5.2c1.2-0.9,2.6-1.4,4.4-1.4v11.5
		c1.5,0,2.7-0.5,3.6-1.4c0.9-0.9,1.4-2,1.4-3.4c0-0.6-0.1-1.3-0.3-1.9c-0.2-0.6-0.5-1.1-0.9-1.6C32.1,71.7,31.5,71.2,30.6,70.7z
		 M27.2,70.7c-0.9,0.2-1.6,0.5-2.1,1c-0.5,0.4-0.9,1-1.3,1.7s-0.5,1.4-0.5,2.2c0,1.3,0.4,2.3,1.2,3.2c0.6,0.7,1.5,1.2,2.6,1.5V70.7z
		"/>
	<path class="st5" d="M17.2,66.1v-1.6h17.7v1.6H17.2z"/>
</g>
<g>
	<rect x="152" y="3" class="st6" width="50" height="150"/>
</g>
<g class="st4">
	<path class="st5" d="M66.6,145.6v-1.7h7.2v-8.8h-7.2v-1.7h17.2v1.7h-8.3v8.8h8.3v1.7H66.6z"/>
	<path class="st5" d="M68.3,130.9h-1.7v-9.4h1.7v3.8h15.6v1.8H68.3V130.9z"/>
	<path class="st5" d="M83.9,119.7l-17.2-2.5V117l14.1-7L66.6,103v-0.3l17.2-2.5v1.7l-12.3,1.7l12.3,6.1v0.4l-12.4,6.2l12.4,1.7
		V119.7z"/>
	<path class="st5" d="M66.6,96.9v-1.7h15.6v-6.6h1.7v8.4H66.6z"/>
</g>
<g class="st4">
	<path class="st5" d="M120.2,129.4l1,1.4c-1,0.8-1.7,1.7-2.2,2.7s-0.8,2.2-0.8,3.5c0,1.4,0.3,2.6,1,3.8s1.5,2.1,2.7,2.7s2.4,1,3.8,1
		c2.1,0,3.9-0.7,5.3-2.2s2.1-3.3,2.1-5.5c0-2.4-0.9-4.4-2.8-6.1l1-1.4c1.1,0.9,1.9,1.9,2.5,3.2s0.9,2.7,0.9,4.3c0,3-1,5.4-3,7.1
		c-1.7,1.5-3.7,2.2-6.1,2.2c-2.5,0-4.6-0.9-6.4-2.7s-2.6-4-2.6-6.7c0-1.6,0.3-3.1,1-4.4S119,130.2,120.2,129.4z"/>
	<path class="st5" d="M131,127.7l-0.9-1.5c1.9-1,2.8-2.2,2.8-3.6c0-0.6-0.1-1.1-0.4-1.6s-0.6-0.9-1.1-1.2s-0.9-0.4-1.4-0.4
		c-0.6,0-1.1,0.2-1.7,0.6c-0.8,0.5-1.7,1.5-2.8,3c-1.1,1.4-1.9,2.3-2.4,2.7c-0.8,0.6-1.7,0.9-2.6,0.9c-0.8,0-1.4-0.2-2.1-0.5
		s-1.1-0.9-1.5-1.5s-0.5-1.4-0.5-2.1c0-0.8,0.2-1.6,0.6-2.3s1.1-1.5,2.2-2.2l1.1,1.4c-0.9,0.6-1.4,1.2-1.7,1.7s-0.4,1-0.4,1.5
		c0,0.7,0.2,1.3,0.6,1.7s0.9,0.7,1.6,0.7c0.4,0,0.7-0.1,1.1-0.2s0.7-0.4,1.1-0.9c0.2-0.2,0.8-1,1.7-2.2c1.1-1.5,2.1-2.5,2.9-3.1
		s1.7-0.8,2.6-0.8c1.3,0,2.3,0.5,3.3,1.4s1.4,2.1,1.4,3.5c0,1-0.3,2-0.8,2.8S132.3,127,131,127.7z"/>
	<path class="st5" d="M131,115.8l-0.9-1.5c1.9-1,2.8-2.2,2.8-3.6c0-0.6-0.1-1.1-0.4-1.6s-0.6-0.9-1.1-1.2s-0.9-0.4-1.4-0.4
		c-0.6,0-1.1,0.2-1.7,0.6c-0.8,0.5-1.7,1.5-2.8,3c-1.1,1.4-1.9,2.3-2.4,2.7c-0.8,0.6-1.7,0.9-2.6,0.9c-0.8,0-1.4-0.2-2.1-0.5
		s-1.1-0.9-1.5-1.5s-0.5-1.4-0.5-2.1c0-0.8,0.2-1.6,0.6-2.3s1.1-1.5,2.2-2.2l1.1,1.4c-0.9,0.6-1.4,1.2-1.7,1.7s-0.4,1-0.4,1.5
		c0,0.7,0.2,1.3,0.6,1.7s0.9,0.7,1.6,0.7c0.4,0,0.7-0.1,1.1-0.2s0.7-0.4,1.1-0.9c0.2-0.2,0.8-1,1.7-2.2c1.1-1.5,2.1-2.5,2.9-3.1
		s1.7-0.8,2.6-0.8c1.3,0,2.3,0.5,3.3,1.4s1.4,2.1,1.4,3.5c0,1-0.3,2-0.8,2.8S132.3,115,131,115.8z"/>
</g>
<g>
	<g>
		<path class="st3" d="M194.4,58.8c-22.1,0-40.1-18-40.1-40.1c0-1.9-1.6-3.5-3.5-3.5c-0.6,0-1.1,0.1-1.6,0.4c0.6,2.1,1,4.3,1.1,6.5
			c0.1,3-0.4,6-1.4,8.7c5.4,20.1,23.7,34.9,45.5,34.9c1,0,1.8-0.4,2.5-1c0.6-0.6,1-1.5,1-2.5C197.8,60.3,196.3,58.8,194.4,58.8z"/>
		<path class="st3" d="M199.5,50.3c-0.2-2.1,0-4.3,0.2-6.4c0-0.9,0.1-1.8,0.1-2.7c0.1-0.7,0.1-1.4,0-2c-0.1-1.5-0.4-3.1-0.5-4.6
			c-0.1-0.8-0.2-1.6-0.2-2.4c-0.1-1.1,0.2-2.2,0.6-3.2C191.9,13.7,176,3.2,157.8,3.2c-1.9,0-3.5,1.6-3.5,3.5s1.6,3.5,3.5,3.5
			c22.1,0,40.1,18,40.1,40.1c0,1.6,1.1,3,2.7,3.4C199.9,52.7,199.6,51.5,199.5,50.3z"/>
	</g>
</g>
<g class="st4">
	<path class="st5" d="M165.7,139.8v-1.7h11.6c1.8,0,3,0.1,3.7,0.4s1.3,0.7,1.7,1.4s0.6,1.4,0.6,2.4c0,0.7-0.1,1.4-0.4,2.1
		s-0.7,1.4-1.4,2.2l-1.4-0.9c0.6-0.9,1.1-1.6,1.3-2.2c0.2-0.4,0.3-0.8,0.3-1.2c0-0.5-0.1-0.9-0.4-1.3c-0.3-0.4-0.7-0.7-1.2-0.8
		c-0.5-0.2-1.4-0.2-2.9-0.2H165.7z"/>
	<path class="st5" d="M170.1,121.4h12.8v1.6h-2.2c0.8,0.7,1.5,1.5,1.9,2.3s0.6,1.8,0.6,2.8c0,1.8-0.7,3.3-2,4.6s-2.9,1.9-4.8,1.9
		c-1.8,0-3.4-0.6-4.7-1.9s-2-2.8-2-4.7c0-1,0.2-2,0.7-2.8s1.1-1.6,2-2.2h-2.3V121.4z M171.4,128c0,0.9,0.2,1.8,0.7,2.5
		c0.4,0.8,1.1,1.4,1.9,1.8s1.7,0.7,2.6,0.7c0.9,0,1.8-0.2,2.6-0.7s1.5-1.1,1.9-1.9c0.5-0.8,0.7-1.6,0.7-2.5c0-0.9-0.2-1.7-0.7-2.6
		c-0.5-0.8-1.1-1.4-1.8-1.9c-0.8-0.4-1.6-0.6-2.6-0.6c-1.5,0-2.7,0.5-3.7,1.5C171.9,125.4,171.4,126.6,171.4,128z"/>
	<path class="st5" d="M170.1,119v-1.7l9.3-4.3l-9.3-4.2v-1.8l12.8,5.8v0.3L170.1,119z"/>
	<path class="st5" d="M170.1,91.7h12.8v1.6h-2.2c0.8,0.7,1.5,1.5,1.9,2.3s0.6,1.8,0.6,2.8c0,1.8-0.7,3.3-2,4.6s-2.9,1.9-4.8,1.9
		c-1.8,0-3.4-0.6-4.7-1.9s-2-2.8-2-4.7c0-1,0.2-2,0.7-2.8s1.1-1.6,2-2.2h-2.3V91.7z M171.4,98.3c0,0.9,0.2,1.8,0.7,2.5
		c0.4,0.8,1.1,1.4,1.9,1.8s1.7,0.7,2.6,0.7c0.9,0,1.8-0.2,2.6-0.7s1.5-1.1,1.9-1.9c0.5-0.8,0.7-1.6,0.7-2.5c0-0.9-0.2-1.7-0.7-2.6
		c-0.5-0.8-1.1-1.4-1.8-1.9c-0.8-0.4-1.6-0.6-2.6-0.6c-1.5,0-2.7,0.5-3.7,1.5C171.9,95.7,171.4,96.9,171.4,98.3z"/>
	<path class="st5" d="M171.5,81.6l1.1,1.1c-0.9,0.9-1.3,1.7-1.3,2.6c0,0.5,0.2,1,0.5,1.4c0.4,0.4,0.8,0.6,1.2,0.6
		c0.4,0,0.8-0.2,1.2-0.5c0.4-0.3,0.8-1,1.3-2c0.6-1.2,1.2-2.1,1.8-2.5c0.6-0.4,1.3-0.6,2-0.6c1,0,1.9,0.4,2.7,1.1
		c0.7,0.7,1.1,1.7,1.1,2.8c0,0.7-0.2,1.4-0.5,2.1c-0.3,0.7-0.8,1.2-1.3,1.7l-1.2-1c0.9-0.8,1.4-1.7,1.4-2.7c0-0.7-0.2-1.2-0.6-1.7
		c-0.4-0.5-0.9-0.7-1.5-0.7c-0.5,0-0.9,0.2-1.3,0.5c-0.4,0.3-0.8,1-1.4,2.1c-0.6,1.2-1.2,1.9-1.8,2.3c-0.6,0.4-1.2,0.6-2,0.6
		c-1,0-1.8-0.3-2.4-1c-0.6-0.7-1-1.5-1-2.5C169.8,84,170.4,82.8,171.5,81.6z"/>
	<path class="st5" d="M172.8,66.4l0.8,1.3c-1.5,1.1-2.2,2.7-2.2,4.6c0,1.6,0.5,2.8,1.5,3.9c1,1,2.2,1.5,3.6,1.5
		c0.9,0,1.8-0.2,2.6-0.7s1.5-1.1,1.9-1.9c0.5-0.8,0.7-1.7,0.7-2.8c0-1.9-0.7-3.4-2.2-4.6l0.9-1.3c0.9,0.6,1.6,1.4,2.1,2.5
		s0.8,2.2,0.8,3.5c0,2-0.6,3.7-1.9,5s-2.8,2-4.7,2c-1.2,0-2.4-0.3-3.4-0.9s-1.9-1.5-2.5-2.6s-0.9-2.3-0.9-3.6c0-0.8,0.1-1.7,0.4-2.4
		s0.6-1.5,1-2S172.1,66.7,172.8,66.4z"/>
	<path class="st5" d="M170.1,63.8v-1.7h1.9c-0.7-0.5-1.3-1-1.6-1.6s-0.5-1.1-0.5-1.7c0-0.5,0.1-0.9,0.4-1.5l1.4,0.9
		c-0.1,0.3-0.2,0.6-0.2,0.9c0,0.5,0.2,1.1,0.7,1.6s1.1,0.9,2.1,1.2c0.7,0.2,2.2,0.3,4.4,0.3h4.3v1.7H170.1z"/>
	<path class="st5" d="M164.9,55.4c0-0.4,0.1-0.7,0.4-1c0.3-0.3,0.6-0.4,1-0.4c0.4,0,0.7,0.1,0.9,0.4c0.3,0.3,0.4,0.6,0.4,1
		c0,0.4-0.1,0.7-0.4,0.9c-0.3,0.3-0.6,0.4-0.9,0.4c-0.4,0-0.7-0.1-1-0.4C165,56.1,164.9,55.8,164.9,55.4z M170.1,56.2v-1.6h12.8v1.6
		H170.1z"/>
	<path class="st5" d="M170.1,51.2v-1.6h2.3c-0.9-0.6-1.6-1.4-2-2.2c-0.4-0.8-0.7-1.8-0.7-2.8c0-1.8,0.7-3.4,2-4.6
		c1.3-1.3,2.9-1.9,4.7-1.9c1.9,0,3.5,0.6,4.8,1.9c1.3,1.3,2,2.8,2,4.6c0,1-0.2,1.9-0.6,2.8s-1.1,1.6-1.9,2.3h6.9v1.6H170.1z
		 M171.4,44.6c0,1.4,0.5,2.6,1.5,3.6c1,1,2.2,1.5,3.7,1.5c1,0,1.8-0.2,2.6-0.6s1.4-1.1,1.8-1.9c0.5-0.8,0.7-1.7,0.7-2.6
		c0-0.9-0.2-1.7-0.7-2.5c-0.5-0.8-1.1-1.4-1.9-1.9s-1.7-0.7-2.6-0.7c-0.9,0-1.8,0.2-2.6,0.7s-1.4,1.1-1.9,1.8
		C171.6,42.8,171.4,43.7,171.4,44.6z"/>
	<path class="st5" d="M165.4,33.4v-1.6h4.7v-2.6h1.4v2.6h11.3v1.6h-11.3v2.2h-1.4v-2.2H165.4z"/>
</g>
<line class="st7" x1="52" y1="3" x2="52" y2="153"/>
<g id="Layer_x0020_1">
	<path class="st3" d="M142.6,90l-0.8,0.8c-1.6,1.6-2.9,2.4-4,2.4s-2.3-0.6-3.8-1.8c-0.8-0.7-3.2-2.9-7-6.8
		c-4.2-4.2-7.6-6.8-10.2-7.8s-5.4-1.1-8.4-0.2c0.7-2.2,0.8-4.4,0.4-6.5c-0.5-2.1-1.7-4.4-3.7-6.8c-0.4-0.5-1.1-1.3-2-2.3
		c-0.4,2.3-1.2,4.5-2.2,6.5c0.5,0.6,0.9,1.2,1.2,1.6c1.1,1.6,1.6,3.2,1.6,4.8c0,1.6-0.7,3.1-1.9,4.4l4.8,4.8l0,0
		c1.3-1.2,2.8-1.9,4.4-1.9s3.2,0.5,4.8,1.6c1.6,1.1,4.2,3.4,7.8,6.9c3.6,3.5,6.2,6,8,7.3c1.8,1.3,3.5,2.2,5.2,2.5s3.3,0.2,4.8-0.5
		c1.1-0.4,2.4-1.4,4-3.1l1.4-1.4L142.6,90z"/>
</g>
<g>
	<path class="st3" d="M84.1,22.4h17.1c0-0.7-0.1-1.4-0.1-2c0-0.8,0-1.6,0.1-2.3H84.1c-1.2,0-2.2,1-2.2,2.2
		C81.9,21.5,82.9,22.4,84.1,22.4z"/>
	<path class="st3" d="M77.8,63.5H60.4V46.1c0-1.2-1-2.2-2.2-2.2s-2.2,1-2.2,2.2v19.6c0,1.2,1,2.2,2.2,2.2h19.6c1.2,0,2.2-1,2.2-2.2
		C80,64.4,79,63.5,77.8,63.5z"/>
	<path d="M102.4,36.1c-0.2-3.3-0.6-6.6-0.9-9.9v13.6c0,1.1,0.8,2,1.8,2.1C102.8,40,102.5,38.1,102.4,36.1z"/>
	<path class="st3" d="M73.6,13.4c-0.3-1.2-1.6-2-2.8-1.6c-1.2,0.3-1.9,1.6-1.6,2.8l19.3,58c0.3,1.2,1.6,2,2.8,1.6
		c1.2-0.3,1.9-1.6,1.6-2.8L73.6,13.4z"/>
</g>
<g id="Layer_x0020_1_1_">
	<path class="st3" d="M143,53.7c-0.6-1.4-1.6-3-3.2-4.8c-1-1.1-3.1-3.3-6.4-6.7c-3.3-3.3-5.5-5.8-6.5-7.4c-1.1-1.6-1.6-3.2-1.6-4.8
		c0-1.6,0.7-3.1,1.9-4.4l-4.8-4.8c-1.3,1.2-2.8,1.9-4.4,1.9s-3.2-0.5-4.8-1.6c-1.6-1.1-4.2-3.4-7.8-6.9c-1.2-1.2-2.4-2.3-3.4-3.3
		c0,2.5-0.4,4.9-1.1,7.2c0.4,0.4,0.8,0.8,1.2,1.2c4.2,4.2,7.6,6.8,10.2,7.8s5.4,1.1,8.4,0.2c-0.7,2.2-0.8,4.4-0.4,6.5
		c0.5,2.1,1.7,4.4,3.7,6.8c1.2,1.5,4.2,4.7,9.1,9.6c2.6,2.6,4,4.5,4.1,5.8c0.2,1.3-0.6,2.8-2.3,4.6l-0.8,0.8l4.6,4.6l1.4-1.4
		c1.4-1.4,2.4-2.6,2.8-3.4c0.6-1.2,0.9-2.5,0.9-3.7C143.9,56.4,143.6,55.1,143,53.7z"/>
</g>
<line class="st8" x1="101.5" y1="3" x2="101.5" y2="153"/>
<line class="st7" x1="151.5" y1="3" x2="151.5" y2="153"/>
<line class="st7" x1="201.5" y1="3" x2="201.5" y2="153"/>
<path class="st9" d="M73.8,89.2"/>
<g class="st4">
	<path class="st5" d="M190.7,144.3h-2.5v-0.8h2.5v-2.6h0.8v2.6h2.5v0.8h-2.5v2.6h-0.8V144.3z"/>
	<path class="st5" d="M186.5,135.7c0-0.2,0.1-0.3,0.2-0.5s0.3-0.2,0.5-0.2c0.2,0,0.3,0.1,0.5,0.2s0.2,0.3,0.2,0.5s-0.1,0.3-0.2,0.5
		s-0.3,0.2-0.5,0.2c-0.2,0-0.3-0.1-0.5-0.2S186.5,135.9,186.5,135.7z M189.1,136.1v-0.8h7.3c0.5,0,0.9,0.1,1.2,0.3s0.4,0.5,0.4,0.8
		c0,0.3-0.1,0.6-0.2,0.9H197c0.1-0.2,0.2-0.4,0.2-0.6c0-0.2-0.1-0.4-0.3-0.5c-0.1-0.1-0.4-0.1-0.7-0.1H189.1z"/>
	<path class="st5" d="M194.5,126.2l1.6-1.3v1.1l-1.1,0.9c0.4,0.7,0.7,1.5,0.7,2.4c0,1.3-0.4,2.4-1.3,3.2c-0.9,0.9-1.9,1.3-3.2,1.3
		c-0.8,0-1.6-0.2-2.3-0.6s-1.3-0.9-1.7-1.6c-0.4-0.7-0.6-1.5-0.6-2.3c0-1.3,0.4-2.4,1.3-3.2c0.9-0.9,1.9-1.3,3.2-1.3
		c0.7,0,1.3,0.1,1.8,0.4S194,125.7,194.5,126.2z M193.8,126.8c-0.7-0.8-1.6-1.1-2.7-1.1c-0.7,0-1.3,0.2-1.9,0.5s-1,0.8-1.3,1.3
		c-0.3,0.6-0.5,1.2-0.5,1.8c0,0.6,0.2,1.3,0.5,1.8c0.3,0.6,0.8,1,1.3,1.3c0.6,0.3,1.2,0.5,1.9,0.5c1,0,1.9-0.4,2.6-1.1
		c0.7-0.7,1.1-1.6,1.1-2.6c0-0.7-0.2-1.3-0.5-1.9l-2.4,1.9v-1L193.8,126.8z"/>
	<path class="st5" d="M189.1,123.2v-0.8h3c0.7,0,1.2,0,1.5-0.1c0.4-0.1,0.7-0.3,0.9-0.7s0.3-0.7,0.3-1.2s-0.1-0.8-0.3-1.2
		c-0.2-0.3-0.5-0.5-0.9-0.7c-0.2-0.1-0.8-0.1-1.6-0.1h-3v-0.8h3.1c0.9,0,1.5,0.1,2,0.3s0.8,0.5,1,0.9s0.4,0.9,0.4,1.5
		s-0.1,1.1-0.4,1.6s-0.6,0.7-1.1,0.9s-1.1,0.3-2,0.3H189.1z"/>
	<path class="st5" d="M193.3,110.5l0.4-0.7c0.4,0.2,0.8,0.5,1.1,0.8c0.3,0.3,0.5,0.6,0.6,1s0.2,0.8,0.2,1.3c0,1-0.3,1.9-1,2.4
		s-1.5,0.9-2.3,0.9c-0.8,0-1.5-0.2-2.2-0.7c-0.8-0.6-1.2-1.5-1.2-2.5c0-1.1,0.4-2,1.2-2.6c0.6-0.5,1.3-0.7,2.2-0.7v5.7
		c0.7,0,1.3-0.3,1.8-0.7s0.7-1,0.7-1.7c0-0.3-0.1-0.6-0.2-0.9c-0.1-0.3-0.3-0.6-0.5-0.8C194.1,111,193.8,110.7,193.3,110.5z
		 M191.6,110.5c-0.4,0.1-0.8,0.3-1,0.5s-0.5,0.5-0.6,0.8s-0.2,0.7-0.2,1.1c0,0.6,0.2,1.2,0.6,1.6c0.3,0.3,0.7,0.6,1.3,0.7V110.5z"/>
	<path class="st5" d="M189.1,108.4v-0.8h0.9c-0.4-0.3-0.6-0.5-0.8-0.8s-0.3-0.6-0.3-0.9c0-0.2,0.1-0.5,0.2-0.7l0.7,0.4
		c-0.1,0.2-0.1,0.3-0.1,0.4c0,0.3,0.1,0.5,0.3,0.8s0.6,0.4,1,0.6c0.4,0.1,1.1,0.2,2.2,0.2h2.2v0.8H189.1z"/>
	<path class="st5" d="M189.1,105.1v-0.9l4.9-2.2l-4.9-2.1v-0.9l8.7,3.8v0.9l-2.8-1.2L189.1,105.1z"/>
	<path class="st5" d="M193.9,97.2l0.4-0.8l2.2,1.2l-0.2,0.6L193.9,97.2z"/>
	<path class="st5" d="M186.8,87.7l8.6-4v0.9l-2.8,1.4v3.7l2.8,1.3v1l-8.6-4.1V87.7z M188.7,87.8l3.1,1.5v-2.9L188.7,87.8z"/>
	<path class="st5" d="M186.8,79.5v-0.9h5.8c0.9,0,1.5,0.1,1.9,0.2s0.6,0.4,0.8,0.7s0.3,0.7,0.3,1.2c0,0.3-0.1,0.7-0.2,1
		s-0.4,0.7-0.7,1.1l-0.7-0.5c0.3-0.5,0.5-0.8,0.7-1.1c0.1-0.2,0.1-0.4,0.1-0.6c0-0.2-0.1-0.5-0.2-0.7s-0.3-0.3-0.6-0.4
		c-0.2-0.1-0.7-0.1-1.4-0.1H186.8z"/>
	<path class="st5" d="M186.8,73l8.6-4V70l-2.8,1.4V75l2.8,1.3v1l-8.6-4.1V73z M188.7,73.2l3.1,1.5v-2.9L188.7,73.2z"/>
	<path class="st5" d="M186.8,68.1v-1l3.4-2.1l-3.4-2.1v-1l4.2,2.6l4.5-2.7v1l-3.6,2.2l3.6,2.2v1l-4.4-2.8L186.8,68.1z"/>
</g>
<g>
	<rect x="204" y="3" class="st10" width="50" height="150"/>
</g>
<path class="st3" d="M252.9,38.1c0-0.1-0.1-0.1-0.1-0.2c-5.4-8.9-11.2-14.2-20.2-19.5c-1.9-1.1-4.2-1.6-6.7-2.1
	c-1.3-0.1-2.6-0.2-3.9-0.2c-0.8-0.4-1.7-1.4-2.4-1.8c-3-1.9-10.6-5.9-12.8-0.6c-1.4,3.4,2.1,6.7,3.3,8.5c0.9,1.2,2,2.6,2.7,3.9
	c0.4,0.9,0.5,1.8,0.8,2.8c0.8,2.3,1.6,4.9,2.7,7c0.6,1.1,1.2,2.2,1.9,3.2c0.4,0.6,1.1,0.8,1.3,1.8c-0.7,1-0.8,2.6-1.2,3.9
	c-1.9,5.9-1.1,13.2,1.5,17.5c0.8,1.3,2.8,4.2,5.5,3.1c2.3-0.9,1.8-3.9,2.5-6.5c0.2-0.6,0.1-1,0.4-1.5c0,0.1,0,0.1,0,0.1
	c0.7,1.5,1.5,2.9,2.1,4.3c1.6,2.6,4.4,5.2,6.8,7c1.3,0.9,2.2,2.6,3.8,3.1v-0.2h-0.1c-0.3-0.5-0.8-0.7-1.2-1c-0.9-0.9-2-2.1-2.7-3.1
	c-2.2-2.9-4.1-6.2-5.8-9.5c-0.8-1.6-1.6-3.4-2.2-5c-0.3-0.6-0.3-1.6-0.8-1.9c-0.8,1.1-1.9,2.1-2.5,3.5c-1,2.2-1.1,5-1.5,7.9
	c-0.2,0.1-0.1,0-0.2,0.1c-1.7-0.4-2.2-2.1-2.9-3.6c-1.6-3.7-1.8-9.7-0.5-13.9c0.4-1.1,1.9-4.5,1.3-5.6c-0.3-1-1.4-1.6-1.9-2.3
	c-0.7-1-1.4-2.2-1.9-3.3c-1.3-2.9-1.9-6.2-3.2-9.1c-0.6-1.4-1.7-2.8-2.6-4c-1-1.4-2.1-2.4-2.9-4.1c-0.3-0.6-0.6-1.5-0.2-2.1
	c0.1-0.4,0.3-0.6,0.7-0.7c0.7-0.6,2.6,0.2,3.3,0.5c1.9,0.8,3.5,1.5,5.2,2.6c0.7,0.5,1.5,1.5,2.5,1.8h1.1c1.7,0.4,3.5,0.1,5.1,0.6
	c2.8,0.9,5.3,2.2,7.5,3.6c6.8,4.3,12.5,10.5,16.3,17.9c0.6,1.2,0.9,2.3,1.5,3.5c0,0.1,0.1,0.1,0.1,0.2c0.1-0.2,0.2-0.4,0.4-0.6
	c0-0.6,0-1.2,0.1-1.8C252.4,40.7,252.5,39.3,252.9,38.1z"/>
<g class="st4">
	<path class="st5" d="M234.9,146.5l-17.2-2.5v-0.3l14.1-7l-14.1-6.9v-0.3l17.2-2.5v1.7l-12.3,1.7l12.3,6.1v0.4l-12.4,6.2l12.4,1.7
		V146.5z"/>
	<path class="st5" d="M222.1,125.3v-1.7l9.8-4.4l-9.8-4.3v-1.7l17.4,7.6v1.7l-5.6-2.5L222.1,125.3z"/>
	<path class="st5" d="M231.7,112.6l-0.9-1.5c1.9-1,2.8-2.2,2.8-3.6c0-0.6-0.1-1.1-0.4-1.6s-0.6-0.9-1.1-1.2s-0.9-0.4-1.4-0.4
		c-0.6,0-1.1,0.2-1.7,0.6c-0.8,0.5-1.7,1.5-2.8,3c-1.1,1.4-1.9,2.3-2.4,2.7c-0.8,0.6-1.7,0.9-2.6,0.9c-0.8,0-1.4-0.2-2.1-0.5
		s-1.1-0.9-1.5-1.5s-0.5-1.4-0.5-2.1c0-0.8,0.2-1.6,0.6-2.3s1.1-1.5,2.2-2.2l1.1,1.4c-0.9,0.6-1.4,1.2-1.7,1.7s-0.4,1-0.4,1.5
		c0,0.7,0.2,1.3,0.6,1.7s0.9,0.7,1.6,0.7c0.4,0,0.7-0.1,1.1-0.2s0.7-0.4,1.1-0.9c0.2-0.2,0.8-1,1.7-2.2c1.1-1.5,2.1-2.5,2.9-3.1
		s1.7-0.8,2.6-0.8c1.3,0,2.3,0.5,3.3,1.4s1.4,2.1,1.4,3.5c0,1-0.3,2-0.8,2.8S233,111.9,231.7,112.6z"/>
	<path class="st5" d="M233,84.4l3.2-2.6V84l-2.2,1.8c0.9,1.4,1.3,3,1.3,4.8c0,2.6-0.9,4.7-2.6,6.5s-3.9,2.6-6.4,2.6
		c-1.7,0-3.2-0.4-4.6-1.2s-2.5-1.9-3.3-3.3s-1.2-2.9-1.2-4.6c0-2.6,0.9-4.7,2.6-6.5c1.7-1.8,3.9-2.6,6.4-2.6c1.3,0,2.5,0.2,3.6,0.7
		S232.1,83.4,233,84.4z M231.7,85.5c-1.5-1.5-3.3-2.3-5.4-2.3c-1.4,0-2.6,0.3-3.7,1s-2,1.5-2.7,2.7s-1,2.4-1,3.7
		c0,1.3,0.3,2.5,1,3.6c0.7,1.1,1.6,2,2.7,2.7s2.4,1,3.8,1c2,0,3.8-0.7,5.2-2.1c1.4-1.4,2.1-3.1,2.1-5.1c0-1.4-0.3-2.6-1-3.8
		l-4.9,3.8v-2.1L231.7,85.5z"/>
	<path class="st5" d="M217.7,77.9v-1.7h15.6v-6.6h1.7v8.4H217.7z"/>
</g>
<rect x="2.5" y="2.5" class="st7" width="252" height="150"/>
<g>
	<path class="st5" d="M139.3,143.6h2.8v-2.7h0.7v2.7h2.8v0.8h-2.8v2.7h-0.7v-2.7h-2.8V143.6z"/>
	<path class="st5" d="M137.7,136.9c-0.1-0.5-0.2-1.2-0.2-1.9c0-1,0.2-1.7,0.6-2.2c0.3-0.4,0.8-0.7,1.4-0.7c0.8,0,1.5,0.5,1.8,1.4h0
		c0.2-0.8,0.8-1.7,2-1.7c0.7,0,1.2,0.3,1.6,0.7c0.5,0.6,0.8,1.5,0.8,2.8c0,0.7,0,1.3-0.1,1.6H137.7z M141,135.9v-0.9
		c0-1.1-0.6-1.8-1.4-1.8c-0.9,0-1.3,0.7-1.3,1.8c0,0.5,0,0.8,0.1,0.9H141z M144.9,135.9c0-0.2,0-0.5,0-0.9c0-1.1-0.4-2.1-1.6-2.1
		c-1.1,0-1.6,0.9-1.6,2.1v0.9H144.9z"/>
	<path class="st5" d="M142.7,125.2c2.1,0,3.1,1.5,3.1,2.9c0,1.6-1.2,2.8-3,2.8c-1.9,0-3.1-1.3-3.1-2.9
		C139.8,126.3,141,125.2,142.7,125.2z M142.8,129.8c1.3,0,2.2-0.7,2.2-1.8c0-1-0.9-1.8-2.3-1.8c-1,0-2.2,0.5-2.2,1.7
		C140.5,129.2,141.7,129.8,142.8,129.8z"/>
	<path class="st5" d="M142.7,118.6c2.1,0,3.1,1.5,3.1,2.9c0,1.6-1.2,2.8-3,2.8c-1.9,0-3.1-1.3-3.1-2.9
		C139.8,119.7,141,118.6,142.7,118.6z M142.8,123.2c1.3,0,2.2-0.7,2.2-1.8c0-1-0.9-1.8-2.3-1.8c-1,0-2.2,0.5-2.2,1.7
		C140.5,122.6,141.7,123.2,142.8,123.2z"/>
	<path class="st5" d="M138.2,116h1.7v-1.5h0.8v1.5h3.1c0.7,0,1.1-0.2,1.1-0.8c0-0.3,0-0.5-0.1-0.6l0.8,0c0.1,0.2,0.1,0.5,0.1,0.9
		c0,0.5-0.2,0.9-0.4,1.1c-0.3,0.3-0.8,0.4-1.5,0.4h-3.2v0.9h-0.8V117h-1.4L138.2,116z"/>
	<path class="st5" d="M144.6,113.4c0.2-0.3,0.4-0.9,0.4-1.4c0-0.8-0.4-1.1-0.9-1.1c-0.5,0-0.8,0.3-1.1,1.1c-0.4,1-0.9,1.5-1.6,1.5
		c-0.9,0-1.7-0.8-1.7-2c0-0.6,0.2-1.1,0.4-1.4l0.8,0.3c-0.1,0.2-0.3,0.6-0.3,1.2c0,0.6,0.4,1,0.8,1c0.5,0,0.7-0.3,1-1.1
		c0.4-1,0.9-1.5,1.8-1.5c1,0,1.7,0.8,1.7,2.2c0,0.6-0.2,1.2-0.4,1.6L144.6,113.4z"/>
	<path class="st5" d="M138.2,107.2h1.7v-1.5h0.8v1.5h3.1c0.7,0,1.1-0.2,1.1-0.8c0-0.3,0-0.5-0.1-0.6l0.8,0c0.1,0.2,0.1,0.5,0.1,0.9
		c0,0.5-0.2,0.9-0.4,1.1c-0.3,0.3-0.8,0.4-1.5,0.4h-3.2v0.9h-0.8v-0.9h-1.4L138.2,107.2z"/>
	<path class="st5" d="M141.7,104.5c-0.7,0-1.3,0-1.8,0v-0.9l1.1,0v0c-0.8-0.3-1.3-0.9-1.3-1.6c0-0.1,0-0.2,0-0.3h1
		c0,0.1,0,0.2,0,0.4c0,0.7,0.6,1.3,1.4,1.4c0.1,0,0.3,0,0.5,0h3.1v1H141.7z"/>
	<path class="st5" d="M145.7,97.5l-0.7,0.1v0c0.5,0.3,0.9,0.9,0.9,1.8c0,1.2-0.8,1.8-1.7,1.8c-1.4,0-2.2-1.2-2.2-3.5h-0.1
		c-0.5,0-1.3,0.1-1.3,1.3c0,0.5,0.2,1.1,0.4,1.5l-0.7,0.2c-0.3-0.5-0.5-1.2-0.5-1.9c0-1.8,1.2-2.2,2.4-2.2h2.2c0.5,0,1,0,1.4-0.1
		V97.5z M142.7,97.6c0,1.2,0.2,2.5,1.3,2.5c0.7,0,1-0.5,1-1c0-0.8-0.5-1.2-1-1.4c-0.1,0-0.2-0.1-0.3-0.1H142.7z"/>
	<path class="st5" d="M141.8,94.9c-0.7,0-1.3,0-1.9,0V94l1,0v0c-0.7-0.4-1.1-1.1-1.1-2.1c0-1.4,1.2-2.5,3-2.5c2.1,0,3.1,1.3,3.1,2.6
		c0,0.8-0.3,1.4-0.9,1.8v0h3.2v1H141.8z M143.3,93.9c0.2,0,0.3,0,0.4,0c0.7-0.2,1.2-0.8,1.2-1.6c0-1.1-0.9-1.8-2.2-1.8
		c-1.2,0-2.2,0.6-2.2,1.7c0,0.7,0.5,1.4,1.3,1.6c0.1,0,0.3,0.1,0.4,0.1H143.3z"/>
</g>
</svg>
