<?xml version="1.0" encoding="utf-8"?>
<!-- Generator: Adobe Illustrator 23.0.1, SVG Export Plug-In . SVG Version: 6.00 Build 0)  -->
<svg version="1.1" id="b0001be2-79f7-4c83-919f-3fa6d600ef82"
	 xmlns="http://www.w3.org/2000/svg" xmlns:xlink="http://www.w3.org/1999/xlink" x="0px" y="0px" viewBox="0 0 337.4 230.4"
	 style="enable-background:new 0 0 337.4 230.4;" xml:space="preserve">
<style type="text/css">
	.st0{fill:none;stroke:#000000;stroke-width:16;stroke-miterlimit:10;}
</style>
<title>used_dog</title>
<path class="st0" d="M412.9,315.2"/>
<path d="M325.1,104.6c-2.4-2.4-32.3-39.9-37.2-46.2c-5.4-6.2-7.8-5.1-11.3-4.7s-41.1,7.1-45.5,7.3c-4.2,0.8-7,2.4-4.2,6.2
	c2.4,3.4,27.2,38.4,32.6,46.5l-99,23.7L82.1,5.9C79,1.2,78.2-0.3,71.3,0C64.4,0.3,9.7,5.1,5.8,5.1c-3.9,0.5-8.1,2-4.2,11.2
	c3.9,9.3,66,142.8,67.5,146.7s6.2,10.1,16.7,7.8c10.8-2.7,48.2-12.4,68.7-17.8c10.8,19.3,32.6,58.9,36.9,64.8
	c5.4,7.8,9.3,6.2,17.4,3.9c6.6-1.9,101.7-36.2,105.9-38.1c4.2-1.9,7-3.2,3.9-7.3c-2.4-3.2-27.1-36.9-40.3-54.3
	c9-2.4,41.1-10.8,44.7-12C326.6,108.9,327.4,107,325.1,104.6z M145.4,141.5c-1.2,0.4-56.7,13.7-59.4,14.4c-3.2,0.8-3.2,0.4-3.2-0.8
	c-0.8-1.2-66-136.2-67.2-137.7c-0.8-1.5-0.8-3.2,0-3.2s52.4-4.7,54-4.7c2,0,1.5,0.4,2.4,1.5c0,0,72.6,125.4,73.8,127.3
	C147.4,140.3,146.5,141,145.4,141.5z M301.4,170.6c0.8,1.5,2,2.4-1.2,3.2c-2.7,1.2-93.6,31.8-95.4,32.6c-2,0.8-3.2,1.2-5.4-2.4
	c-2.4-3.4-31.8-54.3-31.8-54.3l96.6-25.2c2.4-0.8,3.1-1.2,4.6,1.2C270.4,128.3,300.7,169.4,301.4,170.6z M307.6,102.3
	c-2.4,0.4-37.6,9.3-37.6,9.3L240.8,72c-0.8-1.2-1.5-2.4,0.4-2.7c2-0.3,35-6.2,36.5-6.6s2.7-0.8,4.6,1.9c2,2.4,26.9,34.2,27.9,35.3
	C311.5,101.1,310,101.9,307.6,102.3z"/>
</svg>
