<?xml version="1.0" encoding="utf-8"?>
<!-- Generator: Adobe Illustrator 23.0.1, SVG Export Plug-In . SVG Version: 6.00 Build 0)  -->
<svg version="1.1" id="Layer_1" xmlns="http://www.w3.org/2000/svg" xmlns:xlink="http://www.w3.org/1999/xlink" x="0px" y="0px"
	 viewBox="0 0 202.9 150" style="enable-background:new 0 0 202.9 150;" xml:space="preserve">
<style type="text/css">
	.st0{fill:#F05340;}
	.st1{fill:#E44D26;}
	.st2{fill:#0170BA;}
	.st3{fill:#A9A9A9;}
	.st4{fill:#FFFFFF;}
	.st5{	font-family: Century Gothic,CenturyGothic,AppleGothic,sans-serif;
}
	.st6{font-size:24px;}
	.st7{fill:#E4A126;}
	.st8{fill:none;stroke:#FAF5EF;stroke-width:5;stroke-miterlimit:10;}
	.st9{fill:none;stroke:#FFFFFF;stroke-width:5;stroke-miterlimit:10;}
	.st10{fill:none;stroke:#000000;stroke-width:16;stroke-miterlimit:10;}
</style>
<g>
	<path class="st0" d="M0.2,0v2.8C0.3,4,0.3,5.2,0.3,6.5c0,0.8-0.1,1.6-0.1,2.4V150h53V0H0.2z"/>
</g>
<g>
	<rect x="50.2" class="st1" width="53" height="150"/>
</g>
<g>
	<rect x="100.2" class="st2" width="50" height="150"/>
</g>
<path class="st3" d="M48.9,26.6c0.2-1.3,0.3-2.6,0.5-4L46,17.9c-0.2-0.4-0.4-0.7,0.1-0.8c0.2,0,2.1-0.4,4.2-0.7c0.1-1,0.3-2,0.4-2.9
	c-3.3,0.6-6.9,1.2-7.6,1.2c-1.3,0.2-2.1,0.7-1.3,1.9C42.3,17.2,46.2,22.6,48.9,26.6z"/>
<path class="st3" d="M48.2,53.8c-6.6,2.2-12.8,4.3-13.1,4.5c-0.6,0.2-1,0.4-1.6-0.7c-0.7-1-9.5-16.3-9.5-16.3L48,35
	c0.1-1.3,0.2-2.5,0.4-3.8l-26.5,6.4L0.1,1c0,0.3,0,0.6,0,0.9c0.2,1.5,0.2,3,0.2,4.6c0,0.5,0,1.1-0.1,1.6c6.4,11.1,17,29.3,17.2,29.7
	c0.5,0.6,0.2,0.8-0.1,1C17,38.9,3.7,42.1,0.3,42.9c-0.1,1.5-0.2,3-0.3,4.5c3.8-1,14.2-3.7,20.1-5.2c3.2,5.8,9.8,17.7,11.1,19.4
	c1.6,2.3,2.8,1.9,5.2,1.2c0.8-0.2,6.3-2.2,12.4-4.4C48.6,56.9,48.4,55.3,48.2,53.8z"/>
<text transform="matrix(4.489659e-11 -1 1 4.489659e-11 33.0123 148.6533)" class="st4 st5 st6">Laravel</text>
<g>
	<rect x="150.2" class="st7" width="50" height="150"/>
</g>
<text transform="matrix(4.489659e-11 -1 1 4.489659e-11 82.0123 148.6533)" class="st4 st5 st6">HTML</text>
<text transform="matrix(4.489659e-11 -1 1 4.489659e-11 132.3507 147.5415)" class="st4 st5 st6">CSS</text>
<g>
	<g>
		<path class="st3" d="M192.5,55.8c-22.1,0-40.1-18-40.1-40.1c0-1.9-1.6-3.5-3.5-3.5c-0.6,0-1.1,0.1-1.6,0.4c0.6,2.1,1,4.3,1.1,6.5
			c0.1,3-0.4,6-1.4,8.7c5.4,20.1,23.7,34.9,45.5,34.9c1,0,1.8-0.4,2.5-1c0.6-0.6,1-1.5,1-2.5C196,57.3,194.4,55.8,192.5,55.8z"/>
		<path class="st3" d="M197.6,47.3c-0.2-2.1,0-4.3,0.2-6.4c0-0.9,0.1-1.8,0.1-2.7c0.1-0.7,0.1-1.4,0-2c-0.1-1.5-0.4-3.1-0.5-4.6
			c-0.1-0.8-0.2-1.6-0.2-2.4c-0.1-1.1,0.2-2.2,0.6-3.2C190,10.7,174.1,0.2,155.8,0.2c-1.9,0-3.5,1.6-3.5,3.5c0,1.9,1.6,3.5,3.5,3.5
			c22.1,0,40.1,18,40.1,40.1c0,1.6,1.1,3,2.7,3.4C198.1,49.7,197.8,48.5,197.6,47.3z"/>
	</g>
</g>
<text transform="matrix(4.489659e-11 -1 1 4.489659e-11 181.0436 148.8096)" class="st4 st5 st6">Javascript</text>
<line class="st8" x1="50.2" y1="0" x2="50.2" y2="150"/>
<g id="Layer_x0020_1">
	<path class="st3" d="M140.8,87l-0.8,0.8c-1.6,1.6-2.9,2.4-4,2.4c-1.1,0-2.3-0.6-3.8-1.8c-0.8-0.7-3.2-2.9-7-6.8
		c-4.2-4.2-7.6-6.8-10.2-7.8c-2.6-1-5.4-1.1-8.4-0.2c0.7-2.2,0.8-4.4,0.4-6.5c-0.5-2.1-1.7-4.4-3.7-6.8c-0.4-0.5-1.1-1.3-2-2.3
		c-0.4,2.3-1.2,4.5-2.2,6.5c0.5,0.6,0.9,1.2,1.2,1.6c1.1,1.6,1.6,3.2,1.6,4.8c0,1.6-0.7,3.1-1.9,4.4l4.8,4.8v0
		c1.3-1.2,2.8-1.9,4.4-1.9c1.6,0,3.2,0.5,4.8,1.6c1.6,1.1,4.2,3.4,7.8,6.9c3.6,3.5,6.2,6,8,7.3c1.8,1.3,3.5,2.2,5.2,2.5
		c1.7,0.3,3.3,0.2,4.8-0.5c1.1-0.4,2.4-1.4,4-3.1l1.4-1.4L140.8,87z"/>
</g>
<g>
	<path class="st3" d="M82.3,19.4l17.1,0c0-0.7-0.1-1.4-0.1-2c0-0.8,0-1.6,0.1-2.3l-17.1,0c-1.2,0-2.2,1-2.2,2.2
		C80.1,18.5,81.1,19.4,82.3,19.4z"/>
	<path class="st3" d="M76,60.5l-17.4,0l0-17.4c0-1.2-1-2.2-2.2-2.2s-2.2,1-2.2,2.2l0,19.6c0,1.2,1,2.2,2.2,2.2l19.6,0
		c1.2,0,2.2-1,2.2-2.2C78.1,61.4,77.2,60.5,76,60.5z"/>
	<path d="M100.6,33.1c-0.2-3.3-0.6-6.6-0.9-9.9l0,13.6c0,1.1,0.8,2,1.8,2.1C101,37,100.7,35.1,100.6,33.1z"/>
	<path class="st3" d="M71.7,10.4c-0.3-1.2-1.6-2-2.8-1.6c-1.2,0.3-1.9,1.6-1.6,2.8l19.3,58c0.3,1.2,1.6,2,2.8,1.6
		c1.2-0.3,1.9-1.6,1.6-2.8L71.7,10.4z"/>
</g>
<g id="Layer_x0020_1_1_">
	<path class="st3" d="M141.1,50.7c-0.6-1.4-1.6-3-3.2-4.8c-1-1.1-3.1-3.3-6.4-6.7c-3.3-3.3-5.5-5.8-6.5-7.4
		c-1.1-1.6-1.6-3.2-1.6-4.8c0-1.6,0.7-3.1,1.9-4.4l-4.8-4.8c-1.3,1.2-2.8,1.9-4.4,1.9c-1.6,0-3.2-0.5-4.8-1.6
		c-1.6-1.1-4.2-3.4-7.8-6.9c-1.2-1.2-2.4-2.3-3.4-3.3c0,2.5-0.4,4.9-1.1,7.2c0.4,0.4,0.8,0.8,1.2,1.2c4.2,4.2,7.6,6.8,10.2,7.8
		c2.6,1,5.4,1.1,8.4,0.2c-0.7,2.2-0.8,4.4-0.4,6.5c0.5,2.1,1.7,4.4,3.7,6.8c1.2,1.5,4.2,4.7,9.1,9.6c2.6,2.6,4,4.5,4.1,5.8
		c0.2,1.3-0.6,2.8-2.3,4.6l-0.8,0.8l4.6,4.6l1.4-1.4c1.4-1.4,2.4-2.6,2.8-3.4c0.6-1.2,0.9-2.5,0.9-3.7
		C142,53.4,141.7,52.1,141.1,50.7z"/>
</g>
<line class="st9" x1="99.7" y1="0" x2="99.7" y2="150"/>
<line class="st8" x1="149.7" y1="0" x2="149.7" y2="150"/>
<line class="st8" x1="199.7" y1="0" x2="199.7" y2="150"/>
<path class="st10" d="M71.9,86.2"/>
</svg>
