<?xml version="1.0" encoding="utf-8"?>
<!-- Generator: Adobe Illustrator 23.0.1, SVG Export Plug-In . SVG Version: 6.00 Build 0)  -->
<svg version="1.1" id="Layer_1" xmlns="http://www.w3.org/2000/svg" xmlns:xlink="http://www.w3.org/1999/xlink" x="0px" y="0px"
	 viewBox="0 0 108.3 28.7" style="enable-background:new 0 0 108.3 28.7;" xml:space="preserve">
<style type="text/css">
	.st0{fill:#9E2A2B;}
</style>
<path class="st0" d="M26.2,28.7c-0.2,0-0.4-0.1-0.6-0.3l-4.9-8.2l-9.2,2.5c-0.3,0.1-0.6-0.1-0.7-0.3L0.1,2.2c-0.2-0.3,0-0.7,0.3-0.9
	c0.1,0,0.1-0.1,0.2-0.1L9.7,0c0.3,0,0.5,0.1,0.6,0.3l11,18.4l12.8-3.5l-4.3-6c-0.2-0.3-0.1-0.7,0.1-0.9c0.1,0,0.1-0.1,0.2-0.1l6-1.4
	c0.2-0.1,0.5,0,0.7,0.2l5.2,6.5c0.2,0.3,0.2,0.7-0.1,0.9c-0.1,0.1-0.2,0.1-0.2,0.1L36.3,16l4.8,6.7c0.2,0.3,0.1,0.7-0.2,0.9
	c0,0-0.1,0.1-0.2,0.1l-14.3,5C26.4,28.7,26.3,28.7,26.2,28.7L26.2,28.7z M22,19.8l4.5,7.4l13-4.5l-4.5-6.4L22,19.8z M1.7,2.4
	l10.1,18.9l8.3-2.3L9.4,1.4L1.7,2.4z M31.5,9.2l4,5.6l5-1.4l-4.3-5.4L31.5,9.2z M48.9,7.3h1.3v13.9h-1.3L48.9,7.3z M62.9,11.1v10.1
	h-1.3v-1.7c-0.5,0.6-1.1,1.1-1.8,1.5c-2,0.9-4.3,0.5-5.9-1c-1-1-1.5-2.4-1.5-3.8c0-1.4,0.5-2.7,1.5-3.7c1-1,2.3-1.6,3.7-1.5
	c0.8,0,1.6,0.2,2.2,0.5c0.7,0.4,1.3,0.9,1.8,1.6v-1.8L62.9,11.1z M57.7,12.1c-1.4,0-2.8,0.8-3.4,2c-0.7,1.3-0.7,2.8,0,4.1
	c0.3,0.6,0.8,1.1,1.5,1.5c0.6,0.4,1.3,0.5,2,0.5c0.7,0,1.4-0.2,2-0.5c0.6-0.3,1.1-0.8,1.5-1.5c0.3-0.6,0.5-1.3,0.5-2.1
	c0-1.1-0.4-2.1-1.2-2.9C59.8,12.5,58.8,12.1,57.7,12.1L57.7,12.1z M65.3,11.1h1.3v1.5c0.3-0.5,0.8-0.9,1.3-1.3
	c0.4-0.3,0.9-0.4,1.4-0.4c0.4,0,0.8,0.1,1.2,0.3l-0.7,1.1c-0.2-0.1-0.5-0.2-0.7-0.2c-0.5,0-0.9,0.2-1.2,0.5c-0.5,0.5-0.8,1-0.9,1.6
	c-0.2,0.6-0.2,1.7-0.2,3.5v3.4h-1.3L65.3,11.1z M81.5,11.1v10.1h-1.3v-1.7c-0.5,0.6-1.1,1.1-1.8,1.5c-2,0.9-4.3,0.5-5.9-1
	c-1-1-1.5-2.4-1.5-3.8c0-1.4,0.5-2.7,1.5-3.7c1-1,2.3-1.6,3.7-1.5c0.8,0,1.6,0.2,2.2,0.5c0.7,0.4,1.3,0.9,1.8,1.6v-1.8L81.5,11.1z
	 M76.3,12.1c-1.4,0-2.8,0.8-3.4,2c-0.7,1.3-0.7,2.8,0,4.1c0.3,0.6,0.8,1.1,1.5,1.5c0.6,0.4,1.3,0.5,2,0.5c0.7,0,1.4-0.2,2-0.5
	c0.6-0.3,1.1-0.8,1.5-1.5c0.3-0.6,0.5-1.3,0.5-2.1c0-1.1-0.4-2.1-1.1-2.9C78.4,12.5,77.4,12.1,76.3,12.1L76.3,12.1z M83.5,11.1h1.4
	l3.4,7.3l3.3-7.3h1.4l-4.6,10.1h-0.2L83.5,11.1z M103.4,17.9l1.1,0.6c-0.3,0.6-0.7,1.2-1.2,1.7c-0.5,0.4-1,0.8-1.6,1
	c-0.6,0.2-1.3,0.3-2,0.3c-1.6,0-2.9-0.5-3.8-1.6c-0.9-1-1.4-2.3-1.4-3.6c0-1.2,0.4-2.4,1.2-3.4c0.9-1.2,2.4-2,4-1.9
	c1.6-0.1,3.1,0.7,4.1,2c0.7,0.9,1.1,2.1,1.1,3.5h-9.1c0,1.1,0.4,2.1,1.1,2.9c0.7,0.7,1.7,1.1,2.7,1.1c0.5,0,1-0.1,1.5-0.3
	c0.5-0.2,0.9-0.4,1.2-0.7C102.7,18.9,103.1,18.4,103.4,17.9L103.4,17.9z M103.4,15.2c-0.1-0.6-0.4-1.2-0.8-1.7
	c-0.4-0.4-0.8-0.8-1.3-1c-0.5-0.3-1.1-0.4-1.7-0.4c-0.9,0-1.8,0.3-2.5,1c-0.5,0.5-0.9,1.2-1.2,2.1L103.4,15.2z M107,7.3h1.3v13.9
	H107V7.3z"/>
</svg>
