<?xml version="1.0" encoding="utf-8"?>
<!-- Generator: Adobe Illustrator 23.0.1, SVG Export Plug-In . SVG Version: 6.00 Build 0)  -->
<svg version="1.1" id="Layer_1" xmlns="http://www.w3.org/2000/svg" xmlns:xlink="http://www.w3.org/1999/xlink" x="0px" y="0px"
	 viewBox="0 0 1056.1 228.1" style="enable-background:new 0 0 1056.1 228.1;" xml:space="preserve">
<style type="text/css">
	.st0{fill:#231F20;}
	.st1{opacity:0.8;fill:#231F20;enable-background:new    ;}
	.st2{opacity:0.2;}
	.st3{fill:#0170BA;}
	.st4{fill:#29A9DF;}
	.st5{fill:#CFCFCF;}
	.st6{fill:#FFFFFF;}
	.st7{fill:#EAEBEC;}
	.st8{fill:#F0BE25;}
	.st9{fill:#E4A126;}
	.st10{fill:none;stroke:#000000;stroke-width:10;stroke-miterlimit:10;}
	.st11{fill:#F05340;}
</style>
<path class="st0" d="M67.2,93.2h33.2V67.4H64.9L67.2,93.2z M0,0.3l18.3,205l82,22.8l82.1-22.7l18.3-205L0,0.3z M166.8,192.3
	l-66.4,18.4v-26.1l0,0l-51.5-14.3L45.3,130h25.2l1.9,21l28,7.6l0,0v-40.3H44.1l-6.8-76h63V17.1h82.1L166.8,192.3z"/>
<path class="st1" d="M131.3,117.3h-31v40.2l28-7.6L131.3,117.3z M100.3,16.1v25.2h63l-2.3,25.2h-60.7v25.7h58.4l-6.9,77.2
	l-51.5,14.3v26.1l66.4-18.4l15.7-175.2L100.3,16.1z"/>
<g class="st2">
	<polygon class="st0" points="100.4,41.3 37.4,41.3 44.2,117.3 100.4,117.3 100.4,92.2 67.2,92.2 64.9,66.4 100.4,66.4 	"/>
	<polygon class="st0" points="100.4,157.5 100.4,157.5 72.3,149.9 70.5,129 45.2,129 48.8,169.4 100.3,183.7 100.4,183.7 	"/>
</g>
<path class="st3" d="M504.9,0h200.9c-3.7,41.7-7.3,83.3-11.2,125c-2.3,26.6-4.6,53.2-7.1,79.8c-14.3,3.8-28.5,8.1-42.7,11.9
	c-13.1,3.9-26.3,7.3-39.5,11.2H605c-12.5-3.7-25.1-7-37.6-10.7c-14.8-4-29.4-8.4-44.1-12.4c-1.9-19.9-3.7-39.9-5.4-59.8
	c-3.2-36.9-6.7-73.7-9.8-110.6c-1.1-11.1-1.8-22.2-3.1-33.3L504.9,0 M605.7,16.4c-0.1,8,0.1,16-0.1,24c-23-0.1-46,0-69,0
	c0.4,7.8,1.4,15.5,2.5,23.2c21.4,0.8,42.8,0,64.2,0.6c-18.7,8.4-37.6,16.3-56.4,24.5c-1.7,0.6-3.3,1.4-4.8,2.3
	c0.2,8.5,1.5,17,2.1,25.5c11.4,0,22.8-0.2,34.2-0.2c9.1,0,18.3,0.1,27.4-0.1c-0.4,14,0.1,28.1-0.3,42.1c-6.2-0.9-12.2-2.3-18.3-3.4
	c-4.8-1-9.8-1.6-14.5-3c-0.7-6.7-1.1-13.5-1.7-20.2c-1.4-0.3-2.8-0.5-4.3-0.4c-6.9,0-13.8,0-20.7,0.1c0.6,13,1.9,25.9,3.8,38.7
	c6.8,1.8,13.6,3.5,20.4,5.4c10.4,2.8,21,5.2,31.4,8c1.2,0.4,2.5,0.6,3.8,0.6c0.7,8.5,0.2,17.1,0.3,25.6c2.4-0.4,4.8-1,7.1-1.7
	c19.8-5.4,39.5-10.8,59.2-16.2c1-7.8,1.4-15.6,2.2-23.4c2-23.6,4.1-47.3,6.3-70.9c2.5-27.1,4.7-54.1,7.3-81.2
	C660.3,16.4,633,16.3,605.7,16.4z"/>
<path class="st4" d="M605.7,16.4c27.3-0.1,54.6,0,82,0c-2.5,27-4.7,54.1-7.3,81.2c-2.2,23.6-4.2,47.3-6.3,70.9
	c-0.8,7.8-1.2,15.6-2.2,23.4c-19.7,5.4-39.5,10.9-59.2,16.2c-2.3,0.7-4.7,1.3-7.1,1.7c-0.1-8.5,0.4-17.1-0.3-25.6l0.7-0.1
	c18.4-4.6,36.6-9.7,54.9-14.4c2.3-26,4.9-52,6.5-78c-15.6,0.1-31.2,0-46.8,0.1c-2.3,0-4.5,0-6.8-0.2c8.4-4.3,17.2-7.7,25.8-11.6
	c8.3-3.7,16.6-7.3,24.9-10.9c1.7-0.6,3.2-1.4,4.7-2.4c0.4-2.1,0.7-4.1,0.7-6.2c0.5-6.6,1.3-13.1,1.7-19.7c-22.1-0.2-44.1,0-66.2-0.1
	C605.8,32.5,605.6,24.4,605.7,16.4z"/>
<path class="st4" d="M605.8,116.3c10.7-0.2,21.3,0.1,32,0c-0.6,10.9-1.5,21.8-2.1,32.7c-6.5,2.1-13.2,3.9-19.8,5.9
	c-3.6,0.9-7.1,2.1-10.5,3.5C605.9,144.4,605.4,130.3,605.8,116.3z"/>
<path class="st5" d="M536.6,40.5c23,0,46-0.1,69,0c0.3,25.3-0.1,50.6,0.3,75.8c-9.1,0.2-18.3,0-27.4,0.1c-11.4,0-22.8,0.2-34.2,0.2
	c-0.6-8.5-2-17-2.1-25.5c1.5-0.9,3.1-1.7,4.8-2.3c18.7-8.2,37.7-16.1,56.4-24.5c-21.4-0.6-42.8,0.2-64.2-0.6
	C538.1,55.9,537,48.2,536.6,40.5z"/>
<path class="st5" d="M545.9,131.5c6.9-0.1,13.8,0,20.7-0.1c1.4-0.1,2.9,0.1,4.3,0.4c0.6,6.7,1.1,13.5,1.7,20.2
	c4.8,1.4,9.7,1.9,14.5,3c6.1,1.1,12.2,2.5,18.3,3.4c0.6,8.5-0.5,17.1,0.5,25.6l-0.7,0.1c-1.3,0-2.6-0.2-3.8-0.6
	c-10.4-2.8-21-5.1-31.4-8c-6.8-1.9-13.6-3.6-20.4-5.4C547.8,157.4,546.6,144.5,545.9,131.5z"/>
<path class="st6" d="M605.6,40.5c22.1,0.1,44.1,0,66.2,0.1c-0.3,6.6-1.2,13.1-1.7,19.7c-0.1,2.1-0.3,4.2-0.7,6.2
	c-1.5,1-3.1,1.8-4.7,2.4c-8.3,3.7-16.7,7.2-24.9,10.9c-8.6,3.8-17.4,7.3-25.8,11.6c2.3,0.2,4.5,0.2,6.8,0.2
	c15.6-0.1,31.2,0,46.8-0.1c-1.6,26-4.2,52-6.5,78c-18.3,4.8-36.6,9.8-54.9,14.4c-1-8.5,0-17.1-0.5-25.6c3.4-1.4,6.9-2.6,10.5-3.5
	c6.6-2,13.2-3.8,19.8-5.9c0.6-10.9,1.5-21.8,2.1-32.7c-10.7,0.1-21.3-0.2-32,0C605.5,91,605.9,65.7,605.6,40.5z"/>
<path id="path118" class="st6" d="M253.9,1.1l0,2.5c0,1.4,4,47.1,8.9,101.7l8.9,99.2l39.8,11.2c21.9,6.1,40.3,11.2,40.9,11.2
	c0.6,0,19.2-5,41.4-11.1c35.6-9.9,40.4-11.3,40.7-12.6c0.4-1.7,17.8-198.4,17.8-200.5l0-1.5H353H253.9z"/>
<path id="path88" class="st7" d="M311.8,216.3L271.6,205l-0.5-3c-0.5-2.6-17.9-197.4-17.9-199.9c0-0.9,10.2-1,99.8-1
	c94.6,0,99.8,0.1,99.8,1.2c0,4.8-18.1,202.1-18.5,202.5c-0.6,0.5-78.4,22.2-81,22.6C352.6,227.4,333.9,222.4,311.8,216.3
	L311.8,216.3z M378.4,176.6c13.5-3.7,24.8-7,25-7.2s1.8-16.3,3.5-35.6s3.3-36.5,3.5-38l0.4-2.8h-29.2h-29.2v12.4v12.4h15.8h15.8
	l-0.3,1.5c-0.2,0.8-0.8,8-1.5,15.8c-0.7,8.3-1.5,14.6-1.9,15.1c-0.4,0.4-6.8,2.4-14.3,4.4l-13.5,3.6v12.6c0,8.6,0.2,12.6,0.7,12.6
	C353.5,183.3,364.9,180.3,378.4,176.6L378.4,176.6z M410.3,77.3c-0.4-3.3-4.4-47.3-4.4-49c0-1-2.3-1.1-26.5-1.1H353v13v13l11.9,0.5
	c6.5,0.3,13.4,0.6,15.3,0.9l3.4,0.4l0.8,10.1c0.5,5.6,1,11.3,1.2,12.7l0.4,2.5h12.4h12.4L410.3,77.3z"/>
<path id="path80" class="st8" d="M311.5,215.6l-39.8-11.2l-8.9-99.2C257.9,50.7,253.9,5,253.9,3.6l0-2.5H353h99.2l0,1.5
	c0,2.1-17.4,198.8-17.8,200.5c-0.3,1.2-5.1,2.7-40.7,12.6c-22.2,6.2-40.8,11.2-41.4,11.1C351.8,226.8,333.4,221.7,311.5,215.6
	L311.5,215.6z M378.4,177c13.8-3.8,25.2-7.3,25.5-7.7c0.2-0.4,1.9-17.2,3.7-37.4s3.4-37.2,3.5-37.9c0.3-1.1-2-1.2-42.5-1.2h-42.8
	l1.8-19.3c1-10.6,1.8-19.3,1.9-19.3c0,0,6.3-0.2,14-0.4c12.5-0.3,38.4,0.7,39.3,1.5c0.3,0.3,2.4,21.2,2.4,24c0,1.4,0.2,1.4,13,1.4
	h13l-0.3-2.8c-0.2-1.6-1.3-13.7-2.4-27l-2.1-24.1l-50.1-0.2c-39.8-0.1-50.1,0-50.1,0.7c0,0.5-0.3,3.4-0.6,6.5
	c-0.9,7.6-7.4,80.8-7.4,82.8v1.6h42.6h42.6l-0.4,2.5c-0.2,1.4-0.9,8.4-1.5,15.6s-1.3,13.3-1.5,13.5c-0.6,0.6-25.7,7.3-27.3,7.3
	c-0.7,0-7.2-1.6-14.4-3.6l-13.1-3.6l-0.5-5.6c-0.3-3.1-0.7-7.5-0.9-9.8l-0.4-4.2h-12.7h-12.7l0,2.5c0.1,4.7,3.1,36.3,3.5,36.8
	c0.5,0.5,49.2,14.2,50.7,14.3C352.9,184,364.6,180.9,378.4,177L378.4,177z"/>
<path id="path78" class="st9" d="M311.5,215.6l-39.8-11.2l-8.9-99.2C257.9,50.7,253.9,5,253.9,3.6l0-2.5H353h99.2l0,1.5
	c0,2.1-17.4,198.8-17.8,200.5c-0.3,1.2-5.1,2.7-40.7,12.6c-22.2,6.2-40.8,11.2-41.4,11.1C351.8,226.8,333.4,221.7,311.5,215.6
	L311.5,215.6z M385.8,200.7c17.5-4.8,32.2-9.1,32.6-9.5c0.6-0.6,15.8-166.6,15.7-172.1l0-1.8h-40.5H353v4.7v4.7h-23.5
	c-18.3,0-23.5,0.2-23.5,0.8c0,0.5-0.3,3.4-0.6,6.5c-0.9,7.6-7.4,80.8-7.4,82.8v1.6h27.5H353v19.4c0,15.1-0.2,19.4-0.8,19.4
	c-0.5,0-6.7-1.6-13.9-3.6l-13.1-3.6l-0.5-5.6c-0.3-3.1-0.7-7.5-0.9-9.8l-0.4-4.2h-12.7h-12.7l0,2.5c0.1,7.2,3.2,36.5,3.9,37
	c0.4,0.3,12.1,3.6,25.9,7.4l25.1,6.9v12.6c0,6.9,0.2,12.6,0.5,12.6C353.7,209.5,368.3,205.5,385.8,200.7L385.8,200.7z M327.6,73.8
	c1-10.5,1.9-19.2,2-19.3c0.2-0.1,5.5-0.4,11.8-0.6l11.6-0.3v19.7v19.7h-13.6h-13.6L327.6,73.8z"/>
<line class="st10" x1="223.2" y1="1.3" x2="223.2" y2="227.3"/>
<line class="st10" x1="474.2" y1="0.3" x2="474.2" y2="226.3"/>
<path class="st11" d="M1054.9,104.3c-2.1-2.1-28.4-35.1-32.7-40.7c-4.8-5.5-6.9-4.5-9.9-4.1c-3.1,0.4-36.2,6.2-40,6.4
	c-3.7,0.7-6.2,2.1-3.7,5.5c2.1,3,23.9,33.8,28.7,40.9l-87.1,20.9l-69-115.7c-2.7-4.1-3.4-5.5-9.5-5.2s-54.2,4.5-57.6,4.5
	c-3.4,0.4-7.1,1.8-3.7,9.9c3.4,8.2,58.1,125.7,59.4,129.1c1.3,3.4,5.5,8.9,14.7,6.9c9.5-2.4,42.4-10.9,60.5-15.7
	c9.5,17,28.7,51.8,32.5,57c4.8,6.9,8.2,5.5,15.3,3.4c5.8-1.7,89.5-31.9,93.2-33.5c3.7-1.7,6.2-2.8,3.4-6.4
	c-2.1-2.8-23.8-32.5-35.5-47.8c7.9-2.1,36.2-9.5,39.3-10.6C1056.3,108.1,1057,106.5,1054.9,104.3z M896.8,136.8
	c-1.1,0.4-49.9,12.1-52.3,12.7c-2.8,0.7-2.8,0.4-2.8-0.7c-0.7-1.1-58.1-119.9-59.1-121.2c-0.7-1.3-0.7-2.8,0-2.8s46.1-4.1,47.5-4.1
	c1.8,0,1.3,0.4,2.1,1.3c0,0,63.9,110.4,64.9,112C898.6,135.8,897.8,136.4,896.8,136.8z M1034.1,162.4c0.7,1.3,1.8,2.1-1.1,2.8
	c-2.4,1.1-82.4,28-84,28.7c-1.8,0.7-2.8,1.1-4.8-2.1c-2.1-3-28-47.8-28-47.8l85-22.2c2.1-0.7,2.7-1.1,4,1.1
	C1006.8,125.2,1033.5,161.4,1034.1,162.4z M1039.5,102.3c-2.1,0.4-33.1,8.2-33.1,8.2l-25.7-34.8c-0.7-1.1-1.3-2.1,0.4-2.4
	c1.8-0.3,30.8-5.5,32.1-5.8s2.4-0.7,4,1.7c1.8,2.1,23.7,30.1,24.6,31.1C1043,101.3,1041.7,102,1039.5,102.3z"/>
<line class="st10" x1="736.2" y1="0.3" x2="736.2" y2="226.3"/>
</svg>
