<?xml version="1.0" encoding="utf-8"?>
<!-- Generator: Adobe Illustrator 23.0.1, SVG Export Plug-In . SVG Version: 6.00 Build 0)  -->
<svg version="1.1" id="Layer_1" xmlns="http://www.w3.org/2000/svg" xmlns:xlink="http://www.w3.org/1999/xlink" x="0px" y="0px"
	 viewBox="0 0 59.5 75" style="enable-background:new 0 0 59.5 75;" xml:space="preserve">
<style type="text/css">
	.st0{fill:#A31621;}
	.st1{fill:none;stroke:#262730;stroke-width:4;stroke-miterlimit:10;}
	.st2{fill:#262730;}
</style>
<rect x="3" class="st0" width="53.5" height="75"/>
<rect x="10.6" y="23.2" class="st0" width="38.4" height="28.5"/>
<line class="st1" x1="2" y1="0" x2="2" y2="75"/>
<line class="st1" x1="57.5" y1="0" x2="57.5" y2="75"/>
<g>
	<g>
		<path class="st2" d="M46.6,21.9H12.9c-2,0-3.6,1.6-3.6,3.6v24c0,2,1.6,3.6,3.6,3.6h33.8c2,0,3.6-1.6,3.6-3.6v-24
			C50.2,23.5,48.6,21.9,46.6,21.9z M46.1,24.3L29.8,40.6L13.4,24.3H46.1z M11.7,49V26l11.6,11.5L11.7,49z M13.4,50.7l11.6-11.6
			l4.1,4c0.5,0.5,1.2,0.5,1.7,0l4-4l11.5,11.5H13.4z M47.8,49L36.3,37.5L47.8,26V49z"/>
	</g>
</g>
</svg>
