<?xml version="1.0" encoding="utf-8"?>
<!-- Generator: Adobe Illustrator 23.0.1, SVG Export Plug-In . SVG Version: 6.00 Build 0)  -->
<svg version="1.1" id="a42f6981-ba08-4ec0-ba38-ba010617c602"
	 xmlns="http://www.w3.org/2000/svg" xmlns:xlink="http://www.w3.org/1999/xlink" x="0px" y="0px" viewBox="0 0 151.4 167.9"
	 style="enable-background:new 0 0 151.4 167.9;" xml:space="preserve">
<style type="text/css">
	.st0{fill:#9E2A2B;stroke:#262730;stroke-width:4;stroke-miterlimit:10;}
	.st1{fill:#0E1C48;}
	.st2{fill:#696773;stroke:#262730;stroke-width:4;stroke-miterlimit:10;}
	.st3{fill:#696773;stroke:#9E2A2B;stroke-width:4;stroke-miterlimit:10;}
	.st4{fill:#EEE5E9;stroke:#262730;stroke-width:4;stroke-miterlimit:10;}
	.st5{enable-background:new    ;}
	.st6{fill:#262730;}
	.st7{fill:#9E2A2B;}
	.st8{fill-rule:evenodd;clip-rule:evenodd;fill:#0E1C36;}
</style>
<polyline class="st0" points="149.6,-0.2 149.4,99.9 76.8,165.2 2,99.1 2,-0.1 "/>
<polyline class="st1" points="63,82.5 75.9,82.5 89.6,82.5 "/>
<polygon class="st2" points="76.6,147.8 35,111.1 117.6,111 "/>
<polygon class="st3" points="76.5,129.9 61.9,117 61.7,88.8 90.5,88.8 90.9,116.9 "/>
<rect x="19.9" y="26.5" class="st4" width="112.9" height="63.7"/>
<g class="st5">
	<path class="st6" d="M51.1,60v9.1c0,1.8,0.1,2.9,0.3,3.3c0.4,0.9,1.4,1.3,2.9,1.3c2.3,0,4.5-0.6,6.7-1.9c2.2-1.2,4.1-3,5.8-5.1
		c0.5-0.7,0.9-1.2,1.1-1.4s0.5-0.3,0.8-0.3c0.3,0,0.6,0.1,0.8,0.4c0.2,0.2,0.3,0.6,0.3,0.9c0,0.8-0.7,1.9-2,3.3
		c-1.7,1.8-3.9,3.2-6.4,4.3s-5,1.7-7.5,1.7c-4.2,0-7.8-1.4-11-4.2c-1.9-1.6-3.3-3.7-4.3-6.1c-0.9-2.1-1.3-4.2-1.3-6.3
		c0-2,0.4-4.1,1.2-6.1c0.8-2,1.9-3.8,3.2-5.3c1.6-1.7,3.5-3.1,5.6-4c2.1-0.9,4.4-1.4,6.7-1.4c3.6,0,6.9,1.1,9.8,3.2
		c4.6,3.3,6.8,8.1,6.8,14.4h-6.8l-8.8,0L51.1,60z M58.6,58.1v-8.5c0-1.8-0.1-2.9-0.1-3.3c0-0.4-0.2-0.7-0.4-1
		c-0.5-0.8-1.7-1.1-3.3-1.1c-1.7,0-2.8,0.4-3.2,1.3c-0.3,0.5-0.4,1.9-0.4,4.1v8.5l3.6,0.1L58.6,58.1z"/>
	<path class="st6" d="M75.3,35.1h15l-0.1,11.1c1.5-1.3,3-2.3,4.6-2.9c1.6-0.6,3.2-1,5-1c3.8,0,7.3,1.4,10.3,4.2
		c3.5,3.1,5.2,7.2,5.2,12.3c0,5.2-1.8,9.5-5.3,12.9c-2.9,2.7-6.2,4.1-9.9,4.1c-1.9,0-3.6-0.3-5.1-1c-1.5-0.7-3-1.8-4.6-3.4v3.8h-15
		v-1.3l0.1-14.2l0-10.1L75.3,35.1z M90.2,48.6v20c1.3,1.4,2.3,2.4,3.1,3c1.6,1.3,3,1.9,4.2,1.9c0.9,0,1.4-0.4,1.7-1.3
		c0.1-0.4,0.2-1.4,0.2-3V49.6l0-1.3c0-1.5-0.1-2.5-0.4-3s-0.8-0.8-1.5-0.8c-0.9,0-2,0.3-3.3,1S91.7,47.2,90.2,48.6z"/>
</g>
<rect x="75.3" y="77.7" class="st7" width="41.1" height="2.6"/>
<path class="st8" d="M147.3,95.7"/>
<path class="st8" d="M147.3,101.5"/>
</svg>
