<?xml version="1.0" encoding="utf-8"?>
<!-- Generator: Adobe Illustrator 23.0.1, SVG Export Plug-In . SVG Version: 6.00 Build 0)  -->
<svg version="1.1" id="Layer_1" xmlns="http://www.w3.org/2000/svg" xmlns:xlink="http://www.w3.org/1999/xlink" x="0px" y="0px"
	 viewBox="0 0 438.7 70.2" style="enable-background:new 0 0 438.7 70.2;" xml:space="preserve">
<style type="text/css">
	.st0{fill:#333333;}
</style>
<g>
	<path class="st0" d="M32,44.9l2.9,2.1v8.1H6.2L3,52.5h29V44.9z M31.7,4.7l2.8,2.2v7.9H18v9.8h-2.8V12.1h16.5V4.7z M32,24.1l2.8,2.3
		v7.9H18.2v11h-2.9V31.5H32V24.1z"/>
	<path class="st0" d="M64.2,52.5v-7.4l2.5,2.4v7.6H42.8l-2.8-2.6H64.2z M52,4.7L54.7,7v38.6H52V4.7z"/>
	<path class="st0" d="M86.4,4.3l2.8,2.3v48.4H77.6l-3.1-2.8h11.9L86.4,4.3z"/>
	<path class="st0" d="M122.8,45.9V4.7l2.8,2.6v38.9c0,1.2-0.1,2.2-0.3,3.1c-0.2,0.9-0.6,1.7-1.1,2.5c-0.1,0.1-0.2,0.3-0.3,0.4
		c-0.1,0.1-0.2,0.3-0.3,0.4c-1.1,1.2-2.4,2-3.8,2.2c-1.4,0.2-2.9,0.3-4.6,0.3h-13.9c0,0-0.1,0-0.1,0c0,0-0.1,0-0.1,0
		c-0.6,0-1.3-0.1-1.9-0.4c-0.6-0.3-1.1-0.5-1.5-0.9c-0.2-0.2-0.4-0.3-0.5-0.4c-0.2-0.1-0.3-0.2-0.4-0.4c-0.1-0.2-0.2-0.3-0.3-0.5
		c-0.1-0.2-0.2-0.3-0.3-0.5c-0.3-0.6-0.5-1.3-0.7-1.9c-0.1-0.6-0.2-1.1-0.2-1.5c0-0.1,0-0.2,0-0.3s0-0.2,0.1-0.3c0,0,0-0.1,0-0.2
		c0.1,0.6,0.3,1.2,0.7,1.7c0.3,0.6,0.7,1,1,1.4c0.2,0.2,0.4,0.4,0.6,0.5c0.2,0.2,0.4,0.3,0.5,0.4c0.2,0.1,0.4,0.2,0.6,0.3
		c0.2,0.1,0.4,0.2,0.6,0.3c0.4,0.1,0.9,0.2,1.4,0.2c0.5,0,0.9,0,1.5,0c0.1,0,0.2,0,0.4,0s0.2,0,0.4,0l13.8-0.1c1,0,1.9-0.1,2.7-0.4
		c0.8-0.3,1.5-0.8,2.1-1.6c0.3-0.4,0.6-0.8,0.7-1.1c0.2-0.3,0.3-0.7,0.3-1c0-0.2,0.1-0.4,0.1-0.6c0-0.2,0-0.4,0-0.6
		c0-0.2,0-0.5,0-0.7S122.8,46.2,122.8,45.9L122.8,45.9z M107,44.5V32.2l2.8,2.9v10.6l0.2,0.1c0,0,0,0.1,0,0.2c0,0.1-0.1,0.2-0.2,0.2
		c-0.1,0.1-0.2,0.2-0.2,0.2c-0.1,0.1-0.2,0.1-0.4,0.1c0,0-0.1,0-0.1,0c0,0-0.1,0-0.1,0c-0.5,0-1-0.2-1.4-0.6
		C107.2,45.5,107,45.1,107,44.5L107,44.5z"/>
	<path class="st0" d="M140.4,52.5l1.4-7.4h11.5l0.8,2.7h-10l-1.4,7.3h-8l-2.7-2.6H140.4z M147.7,17.5L149,24l-2.6,12.7h-2.8
		L147.7,17.5z M166.8,52.3L156.1,4.5l3.2,2.2l10.8,48.4h-12.7l-3.2-2.8H166.8z"/>
	<path class="st0" d="M191.3,33v22.1h-12.1l-3-2.8h12.3V30.4h7.7V33H191.3z M188.4,4.7l2.8,2.4v16.3h-2.8V4.7z M208.1,4.8l2.8,2.5
		V55h-12.2l-3-2.7h12.4V4.8z"/>
	<path class="st0" d="M257.3,5.8c-0.1,0-0.3-0.1-0.4-0.2c-0.2-0.1-0.4-0.2-0.6-0.3h-0.1c-0.3-0.2-0.7-0.4-1.3-0.6l1.7-0.1
		c0.5,0,0.9,0.1,1.3,0.1c0.4,0.1,0.8,0.2,1.1,0.3c0.2,0.1,0.4,0.2,0.6,0.3c0.2,0.1,0.4,0.3,0.7,0.4c1,0.7,1.8,1.6,2.2,2.6
		c0.4,1,0.6,2.2,0.6,3.5v7.6c0,1.1-0.1,2.1-0.2,3c-0.1,0.9-0.4,1.7-0.8,2.4c-0.2,0.3-0.4,0.6-0.6,0.9c-0.2,0.3-0.5,0.6-0.7,0.8
		c-0.4,0.4-1,0.9-1.7,1.5c0,0,0.3,0.1,0.8,0.3c0.5,0.2,1.1,0.5,1.7,1.1c0.1,0,0.1,0.1,0.2,0.1c0.1,0.1,0.1,0.1,0.2,0.2
		c0.9,0.8,1.4,1.7,1.7,2.6c0.2,1,0.3,2,0.3,3.2v9.7c0,1.4-0.1,2.7-0.4,3.9c-0.3,1.1-0.9,2.2-1.7,3.1c-1.1,1.3-2.4,2-3.8,2.3
		c-1.4,0.2-3,0.4-4.7,0.4h-21.3l-2.8-2.5h23.9c1.4,0,2.6-0.1,3.8-0.3c1.2-0.3,2.1-0.8,2.9-1.7c0.2-0.2,0.3-0.4,0.4-0.5
		c0.1-0.2,0.2-0.3,0.4-0.5c0.3-0.6,0.5-1.1,0.6-1.8s0.2-1.3,0.2-2.1V33.3c0-1.1-0.3-2-0.8-2.8c-0.5-0.8-1.2-1.5-2.1-2.1
		c-0.2-0.2-0.4-0.3-0.7-0.4c-0.3-0.1-0.5-0.2-0.8-0.3c-0.6-0.2-1.1-0.3-1.5-0.4c-0.5-0.1-0.7-0.1-0.8-0.1c0,0,0.3-0.1,0.9-0.2
		c0.6-0.1,1.2-0.4,1.8-0.8c0.4-0.2,0.7-0.5,1.1-0.8c0.4-0.3,0.7-0.7,0.9-1.1c0.1-0.2,0.2-0.5,0.3-0.7c0.1-0.2,0.2-0.4,0.2-0.6
		c0.1-0.3,0.1-0.7,0.2-1c0-0.4,0.1-0.8,0.1-1.2v-9c0-1.2-0.2-2.3-0.7-3.3C259.2,7.5,258.4,6.6,257.3,5.8L257.3,5.8z M244,14.6v8.8
		h-2.8V12h4c0.5,0,0.9,0.1,1.3,0.2c0.4,0.1,0.8,0.3,1.1,0.7c0.2,0.3,0.4,0.5,0.5,0.8s0.2,0.6,0.2,0.9H244z M244.1,34.1v11.5h-2.8
		V31.4h5c0.4,0,0.8,0.1,1.2,0.3c0.4,0.1,0.7,0.4,1,0.7c0.4,0.4,0.6,0.8,0.7,1.2c0.1,0.4,0.1,0.5,0.1,0.6H244.1z"/>
	<path class="st0" d="M278.7,52.5l1.4-7.4h11.5l0.8,2.7h-10l-1.4,7.3h-8l-2.7-2.6H278.7z M286,17.5l1.3,6.5l-2.6,12.7h-2.8L286,17.5
		z M305.1,52.3L294.4,4.5l3.2,2.2l10.8,48.4h-12.7l-3.2-2.8H305.1z"/>
	<path class="st0" d="M323.3,25.5l2.8,9.1v20.6h-8.8l-2.3-2.7h8.4V25.5z M328.6,4.7l3.3,2.3l5.9,19.6v8.9L328.6,4.7z M346.1,52.5
		V4.8l2.6,2.3v47.9h-14.5l-3.1-2.6H346.1z"/>
	<path class="st0" d="M370.2,31l1.4,3l-1.7,2.5v18.7h-12.7l-2.2-2.6H367V35.8L370.2,31z M367.1,4.7l2.6,2.5v9.7l-2.6,4.1V4.7z
		 M388.2,4.8l1.9,2.3l-8.5,12.5l13.6,35.5h-14.2l-2.6-2.6h13.2l-13-33.4L388.2,4.8z"/>
	<path class="st0" d="M432.8,30.4c0,0-0.1-0.1-0.1-0.2c0-0.1-0.1-0.2-0.1-0.3c-0.1-0.1-0.2-0.2-0.2-0.4s-0.2-0.2-0.2-0.3
		c-0.2-0.3-0.4-0.6-0.8-1c0.7,0.3,1.2,0.6,1.6,0.8c0.1,0.1,0.2,0.1,0.3,0.2c0.1,0.1,0.2,0.1,0.3,0.1c0.2,0.1,0.4,0.2,0.5,0.4
		c0.1,0.1,0.2,0.2,0.3,0.3c0.6,0.6,1,1.3,1.3,2s0.4,1.5,0.4,2.5v11.6c0,1.1-0.1,2.1-0.4,3c-0.2,0.9-0.6,1.7-1.2,2.5
		c-0.1,0.1-0.2,0.2-0.3,0.4c-0.1,0.1-0.2,0.2-0.3,0.4c-1.1,1.2-2.3,2-3.6,2.3c-1.3,0.3-2.8,0.5-4.5,0.5h-17c-1.1,0-2.2-0.2-3.1-0.6
		c-0.9-0.4-1.7-0.8-2.3-1.3c-0.5-0.6-1-1.2-1.3-2c-0.4-0.8-0.5-1.6-0.5-2.6c0.2,0.4,0.4,0.7,0.6,1c0.2,0.3,0.5,0.6,0.7,0.8
		c0.2,0.3,0.5,0.5,0.7,0.7c0.2,0.2,0.4,0.3,0.6,0.4c0.5,0.3,0.9,0.5,1.2,0.6c0.3,0.1,0.7,0.2,1,0.2c0.2,0,0.4,0.1,0.6,0.1
		s0.5,0,0.7,0c0.1,0,0.2,0,0.2,0s0.1,0,0.2,0l16.9-0.1c0.1,0,0.2,0.1,0.3,0.1c0.1,0,0.2,0,0.3,0c1.2,0,2.2-0.1,3.2-0.2
		c1-0.1,1.9-0.6,2.8-1.5c0.7-0.8,1.2-1.6,1.4-2.5c0.2-0.8,0.3-1.8,0.3-2.9V33.6c0-0.3,0-0.6,0-0.8c0-0.3,0-0.6-0.1-0.8
		c0-0.2-0.1-0.5-0.2-0.7C433,30.9,433,30.7,432.8,30.4L432.8,30.4z M403,26.4c-0.1-0.2-0.2-0.4-0.3-0.6c-0.1-0.2-0.2-0.5-0.3-0.7
		c-0.2-0.7-0.3-1.6-0.4-2.6c0.2,0.5,0.5,0.9,0.7,1.3c0.1,0.1,0.2,0.2,0.2,0.4c0.1,0.1,0.1,0.2,0.2,0.4c0,0,0.1,0.1,0.1,0.1
		c0,0,0,0.1,0.1,0.1c0.3,0.3,0.5,0.5,0.8,0.7c0.3,0.2,0.5,0.3,0.8,0.5c0.2,0.1,0.3,0.2,0.5,0.2c0.2,0.1,0.3,0.2,0.5,0.2l12.3,5.8
		c0.1,0.1,0.2,0.1,0.2,0.2c0.1,0,0.2,0.1,0.2,0.1c0.2,0.1,0.5,0.3,0.7,0.4c0.2,0.1,0.4,0.3,0.6,0.6c0.2,0.2,0.3,0.3,0.4,0.5
		c0.1,0.2,0.2,0.3,0.3,0.5c0.1,0.2,0.2,0.5,0.2,0.7c0,0.2,0.1,0.5,0.1,0.8c0,0,0,0.1,0,0.1c0,0,0,0.1,0,0.1c0,0,0,0.1,0,0.1
		l-0.6-0.1l-14.7-7.1c-0.6-0.3-1.2-0.6-1.6-1C403.7,27.5,403.3,27,403,26.4L403,26.4z M420.4,13.2C420.4,13.2,420.3,13.2,420.4,13.2
		c-0.1,0.1-0.2,0-0.2,0c-0.1,0-0.2,0-0.3,0s-0.2,0-0.4,0c-0.2,0-0.3,0-0.5,0c-0.2,0-0.4,0.1-0.6,0.1c-0.2,0-0.4,0.1-0.6,0.2
		c-0.2,0.1-0.4,0.3-0.6,0.5c0,0.1-0.1,0.1-0.1,0.2c-0.1,0.1-0.1,0.1-0.2,0.2c-0.2,0.3-0.3,0.6-0.4,0.9c-0.1,0.3-0.1,0.6-0.1,1v4.9
		l-2.8-1.4v-4.9c0-1,0.3-1.8,0.9-2.6c0.6-0.8,1.5-1.1,2.6-1.1h0.1h0.1c0.8,0,1.5,0.2,2,0.5C419.7,12,420.1,12.5,420.4,13.2
		L420.4,13.2z M416.3,36.7v6.1c0,0.4,0.1,0.8,0.2,1s0.2,0.6,0.4,0.8c0,0,0,0.1,0,0.1c0,0,0,0.1,0.1,0.1c0,0.1,0.1,0.2,0.2,0.3
		s0.2,0.2,0.4,0.3c0,0,0.1,0.1,0.1,0.1s0.1,0.1,0.1,0.1c0.2,0.2,0.5,0.4,0.8,0.7c-0.1,0-0.2,0-0.3,0c-0.1,0-0.2,0.1-0.3,0.1
		s-0.2,0-0.4,0c-0.2,0-0.5,0-0.8-0.1c-0.3,0-0.5-0.1-0.8-0.2c-0.3-0.1-0.5-0.2-0.8-0.4c-0.3-0.2-0.5-0.4-0.8-0.7
		c-0.1-0.1-0.2-0.2-0.2-0.4c-0.1-0.1-0.2-0.2-0.2-0.4c-0.2-0.3-0.3-0.7-0.3-1.1c-0.1-0.4-0.1-0.8-0.1-1.2v-8L416.3,36.7z
		 M432.5,20.5v-8.7c0-0.8-0.1-1.5-0.2-2.2c-0.1-0.6-0.4-1.3-0.8-1.9c-0.1-0.1-0.2-0.2-0.2-0.4c-0.1-0.1-0.2-0.2-0.3-0.4
		c-0.2-0.2-0.4-0.4-0.6-0.6c-0.2-0.2-0.5-0.3-0.7-0.5c-0.5-0.4-1-0.6-1.4-0.8c-0.4-0.2-0.7-0.2-0.7-0.2c0.1,0,0.2-0.1,0.3-0.1
		c0.1,0,0.2,0,0.3,0c0.1,0,0.3,0,0.4,0c0.4,0,1,0.1,1.6,0.3c0.6,0.1,1.3,0.4,2,0.9c0.2,0.2,0.4,0.3,0.6,0.5c0.2,0.2,0.4,0.4,0.6,0.7
		c0.7,0.7,1.1,1.5,1.4,2.2c0.2,0.8,0.3,1.6,0.3,2.6v11.4h-11.8l-2.6-2.8H432.5z"/>
</g>
</svg>
