<?xml version="1.0" encoding="utf-8"?>
<!-- Generator: Adobe Illustrator 23.0.1, SVG Export Plug-In . SVG Version: 6.00 Build 0)  -->
<svg version="1.1" class="logo_test" id="Layer_1" xmlns="http://www.w3.org/2000/svg" xmlns:xlink="http://www.w3.org/1999/xlink" x="0px" y="0px"
	 viewBox="0 0 298.4 303.8" style="enable-background:new 0 0 298.4 303.8;" xml:space="preserve">
<style type="text/css">
	.st0{fill:none;stroke:#889696;stroke-width:10;stroke-miterlimit:10;}
	.st1{fill:#889696;}
	.st2{fill:#D2D4C8;}
	.st3{fill:#9E2A2B;}
</style>
<path class="st0" d="M12.8,108.3C-13.1,180,27.9,266,100.9,290c3,1,6,2,9,3c47,14,98,2,135-31c44-38,59-100,41-153.5"/>
<g transform="translate(0.000000,640.000000) scale(0.100000,-0.100000)">
	<path class="st1" d="M188.9,6395.9c-3.9-3.9-4.1-6.8-4.1-70.4c0-63.6,0.2-66.5,4.1-70.4c3.9-3.9,6.8-4.1,70.4-4.1
		s66.5,0.2,70.4,4.1c3.9,3.9,4.1,6.8,4.1,70.4c0,63.6-0.2,66.5-4.1,70.4c-3.9,3.9-6.8,4.1-70.4,4.1S192.8,6399.8,188.9,6395.9z"/>
	<path class="st1" d="M371.6,6396.7c-4.6-3.1-4.6-3.3-4.6-70.4c0-64.4,0.2-67.3,4.1-71.2c3.9-3.9,6.8-4.1,70.4-4.1
		s66.5,0.2,70.4,4.1c3.9,3.9,4.1,6.8,4.1,70.4c0,63.6-0.2,66.5-4.1,70.4c-3.9,3.9-6.8,4.1-69.9,4.1
		C385.8,6400,375.5,6399.5,371.6,6396.7z"/>
	<path class="st1" d="M552.7,6396.3c-3.1-3.6-3.6-11.4-3.6-71.4c0-67.3,0-67.5,4.6-70.6c3.9-2.9,14-3.3,69.6-3.3H688l5.2,5.2
		l5.2,5.2l-0.6,66.5c-0.6,62.9-0.8,66.5-4.6,69.3c-3.3,2.3-16.6,2.9-70.6,2.9C560.7,6400,555.8,6399.8,552.7,6396.3z"/>
	<path class="st1" d="M734.8,6396.3c-3.1-3.6-3.6-11.4-3.6-71.4c0-67.3,0-67.5,4.6-70.6c3.9-2.9,14-3.3,69.1-3.3
		c60.5,0,64.7,0.2,69.3,3.9l4.9,3.9l0.6,62.9c0.5,34.4,0,64.7-0.6,67.3c-2.6,10.9-2.3,10.9-74.3,10.9
		C742.9,6400,737.9,6399.8,734.8,6396.3z"/>
	<path class="st1" d="M917,6396.3c-3.1-3.6-3.6-11.4-3.6-71.4c0-67.3,0-67.5,4.6-70.6c3.9-2.9,14-3.3,68.9-3.3s65,0.5,68.9,3.3
		c4.6,3.1,4.6,3.3,4.6,71c0,63.1-0.2,68.1-3.7,71.2c-3.6,3.1-11.4,3.6-70.1,3.6C925.1,6400,920.1,6399.8,917,6396.3z"/>
	<path class="st1" d="M1098.9,6396.7c-1.8-1.6-3.7-5.2-4.4-7.7c-0.7-2.5-1-32.9-0.6-67.3l0.6-62.9l4.9-3.9c4.6-3.7,8.9-3.9,69.3-3.9
		c55.1,0,65.2,0.5,69.1,3.3c4.6,3.1,4.6,3.3,4.6,71c0,63.1-0.2,68.1-3.7,71.2c-3.6,3.1-11.4,3.6-70.4,3.6
		C1110.9,6400,1101.6,6399.5,1098.9,6396.7z"/>
	<path class="st1" d="M1279.8,6395.9c-3.9-3.9-4.1-6.8-4.1-69.3v-65.4l5.2-4.9l4.9-5.2h64.7c55.4,0,65.7,0.5,69.6,3.3
		c4.6,3.1,4.6,3.3,4.6,71c0,63.1-0.2,68.1-3.7,71.2c-3.6,3.1-11.4,3.6-70.4,3.6C1286.6,6400,1283.7,6399.8,1279.8,6395.9z"/>
	<path class="st1" d="M1462,6395.9c-3.9-3.9-4.1-6.8-4.1-70.1v-66.2l5.4-4.1c5.4-4.1,7.8-4.4,70.4-4.4c62.3,0,65.2,0.2,69.1,4.1
		c3.9,3.9,4.1,6.8,4.1,71.2c0,67,0,67.3-4.6,70.4c-3.9,2.9-14.3,3.3-70.4,3.3C1468.8,6400,1465.9,6399.8,1462,6395.9z"/>
	<path class="st1" d="M1644.1,6395.9c-3.9-3.9-4.1-6.8-4.1-70.4c0-63.6,0.2-66.5,4.1-70.4c3.9-3.9,6.8-4.1,70.4-4.1
		c63.6,0,66.5,0.2,70.4,4.1c3.9,3.9,4.1,6.8,4.1,70.4c0,63.6-0.2,66.5-4.1,70.4c-3.9,3.9-6.8,4.1-70.4,4.1
		C1650.9,6400,1648.1,6399.8,1644.1,6395.9z"/>
	<path class="st1" d="M1826.3,6395.9c-3.9-3.9-4.1-6.8-4.1-70.4c0-63.6,0.2-66.5,4.1-70.4c3.9-3.9,6.8-4.1,70.4-4.1
		c63.6,0,66.5,0.2,70.4,4.1c3.9,3.9,4.1,6.8,4.1,70.4c0,63.6-0.2,66.5-4.1,70.4c-3.9,3.9-6.8,4.1-70.4,4.1
		C1833.1,6400,1830.2,6399.8,1826.3,6395.9z"/>
	<path class="st1" d="M2007.9,6396.3c-3.1-3.6-3.6-11.4-3.6-71.4c0-67.3,0-67.5,4.6-70.6c3.9-2.9,14-3.3,69.6-3.3h64.7l4.9,5.2
		l5.2,4.9v65.4c0,62.6-0.2,65.4-4.1,69.3c-3.9,3.9-6.8,4.1-71,4.1C2015.9,6400,2011,6399.8,2007.9,6396.3z"/>
	<path class="st1" d="M2190.1,6396.3c-3.1-3.6-3.6-11.4-3.6-71.4c0-67.3,0-67.5,4.6-70.6c3.9-2.9,14-3.3,69.6-3.3h64.7l5.2,5.2
		l5.2,5.2l-0.6,66.5c-0.6,62.9-0.8,66.5-4.6,69.3c-3.3,2.3-16.6,2.9-70.6,2.9C2198.1,6400,2193.2,6399.8,2190.1,6396.3z"/>
	<path class="st1" d="M2372.2,6396.3c-3.1-3.6-3.6-11.4-3.6-71.4c0-67.3,0-67.5,4.6-70.6c3.9-2.9,14-3.3,68.9-3.3s65,0.5,68.9,3.3
		c4.6,3.1,4.6,3.3,4.6,71c0,63.1-0.2,68.1-3.7,71.2c-3.6,3.1-11.4,3.6-70.1,3.6C2380.3,6400,2375.3,6399.8,2372.2,6396.3z"/>
	<path class="st1" d="M2554.4,6396.3c-3.1-3.6-3.6-11.4-3.6-71.4v-67.7l4.9-3.1c4.1-2.9,20.9-3.1,138.7-2.6
		c129.9,0.6,134.1,0.8,137.1,4.6c2.3,3.3,2.9,16.3,2.9,69.9c0,63.1-0.2,66-4.1,69.9c-4.1,4.1-6.8,4.1-138.2,4.1
		C2564.5,6400,2557.5,6399.8,2554.4,6396.3z"/>
	<path class="st1" d="M189.4,6218.6c-4.6-3.1-4.6-3.3-4.6-69.9c0-54.3,0.6-67.5,2.9-70.8c2.9-3.7,6.8-3.9,103.3-4.6
		c96.5-0.5,100.4-0.5,105.1,3.6l4.9,3.9l0.6,62.9c0.5,34.4,0,64.7-0.6,67.3c-2.6,11.4,0.6,10.9-107.2,10.9
		C206.8,6222,193.5,6221.5,189.4,6218.6z"/>
	<path class="st1" d="M438.8,6218.3c-3.1-3.6-3.6-11.4-3.6-71.4c0-67.3,0-67.5,4.6-70.6c3.9-2.9,14.3-3.3,70.1-3.3h65.8l4.1,5.4
		c4.1,5.4,4.4,7.8,4.4,70.4c0,62.3-0.2,65.2-4.1,69.1c-3.9,3.9-6.8,4.1-71,4.1C446.9,6222,441.9,6221.7,438.8,6218.3z"/>
	<path class="st1" d="M620.8,6218.6c-1.8-1.6-3.3-4.7-3.3-6.7c0-2,0-32.3-0.2-67.7c0-63.1,0.2-64.2,4.6-67.7
		c3.9-3.3,10.6-3.7,69.6-3.7h65l4.9,5.2l5.2,4.9v63.4c0,62.6-0.6,69.8-7,73.9c-1.3,0.8-32.3,1.6-68.9,1.6
		C632.7,6222,623.4,6221.5,620.8,6218.6z"/>
	<path class="st1" d="M802.5,6219.1c-3.7-2.9-3.9-6-3.9-70.6v-67.7l4.9-3.9c4.6-3.7,8.9-3.9,69.6-3.9c60.6,0,65,0.2,69.6,3.9
		l4.9,3.9l0.6,62.9c0.5,34.4,0,64.7-0.6,67.3c-2.6,10.9-2.3,10.9-74.3,10.9C819,6222,805.8,6221.4,802.5,6219.1z"/>
	<path class="st1" d="M983.8,6217.8c-3.9-3.9-4.1-6.8-4.1-68.5c0-63.4,0.6-70.6,7-74.8c1.3-0.8,31.6-1.6,67.5-1.6
		c55.9,0,66,0.5,69.9,3.3c4.6,3.1,4.6,3.3,4.6,71c0,63.1-0.2,68.1-3.7,71.2c-3.6,3.1-11.4,3.6-70.4,3.6
		C990.6,6222,987.7,6221.7,983.8,6217.8z"/>
	<path class="st1" d="M1166,6217.8c-3.9-3.9-4.1-6.8-4.1-70.4c0-63.6,0.2-66.5,4.1-70.4c3.9-3.9,6.8-4.1,69.9-4.1
		c56.1,0,66.5,0.5,70.4,3.3c4.6,3.1,4.6,3.3,4.6,71c0,63.1-0.2,68.1-3.7,71.2c-3.6,3.1-11.4,3.6-70.4,3.6
		C1172.8,6222,1169.9,6221.7,1166,6217.8z"/>
	<path class="st1" d="M1347.3,6217.4c-2.9-3.9-3.3-14.3-3.3-70.4c0-63.1,0.2-66,4.1-69.9c3.9-3.9,6.8-4.1,70.4-4.1
		c63.6,0,66.5,0.2,70.4,4.1c3.9,3.9,4.1,6.8,4.1,71c0,62.3-0.2,67.3-3.7,70.4c-3.6,3.1-11.4,3.6-71.4,3.6
		C1350.7,6222,1350.4,6222,1347.3,6217.4z"/>
	<path class="st1" d="M1529.7,6218.3c-3.1-3.6-3.6-11.4-3.6-70.4c0-63.9,0.2-66.8,4.1-70.8c3.9-3.9,6.8-4.1,70.4-4.1
		c63.6,0,66.5,0.2,70.4,4.1c3.9,3.9,4.1,6.8,4.1,69.9c0,56.1-0.5,66.5-3.3,70.4c-3.1,4.6-3.3,4.6-71,4.6
		C1537.8,6222,1532.8,6221.7,1529.7,6218.3z"/>
	<path class="st1" d="M1711.9,6218.3c-3.1-3.6-3.6-11.4-3.6-71.4c0-67.3,0-67.5,4.6-70.6c3.9-2.9,14.3-3.3,70.4-3.3
		c63.1,0,66,0.2,69.9,4.1c3.9,3.9,4.1,6.8,4.1,70.4c0,63.6-0.2,66.5-4.1,70.4c-3.9,3.9-6.8,4.1-71,4.1
		C1719.9,6222,1715,6221.7,1711.9,6218.3z"/>
	<path class="st1" d="M1894,6218.3c-3.1-3.6-3.6-11.4-3.6-71.4c0-67.3,0-67.5,4.6-70.6c3.9-2.9,14-3.3,69.9-3.3
		c35.8,0,66.2,0.8,67.5,1.6c6.4,4.1,7,11.4,7,74.8c0,61.6-0.2,64.6-4.1,68.5c-3.9,3.9-6.8,4.1-71,4.1
		C1902.1,6222,1897.1,6221.7,1894,6218.3z"/>
	<path class="st1" d="M2076,6218.6c-1.8-1.6-3.7-5.2-4.4-7.7c-0.6-2.5-1-32.9-0.6-67.3l0.6-62.9l4.9-3.9c4.6-3.7,8.9-3.9,69.6-3.9
		c60.6,0,65,0.2,69.6,3.9l4.9,3.9v67.7c0,64.6-0.2,67.7-3.9,70.6c-3.3,2.3-16.6,2.9-70.8,2.9C2087.9,6222,2078.6,6221.5,2076,6218.6
		z"/>
	<path class="st1" d="M2259.7,6220.4c-6.4-4.1-7-11.4-7-73.9v-63.4l5.2-4.9l4.9-5.2h65c59,0,65.7,0.5,69.6,3.7
		c4.1,3.6,4.4,4.9,4.4,67.7c0,35.4,0,65.8,0,67.7c0,2-1.5,4.9-3.3,6.7c-2.6,2.9-12,3.3-69.8,3.3
		C2292.1,6222,2261,6221.2,2259.7,6220.4z"/>
	<path class="st1" d="M2439.8,6219.1c-3.7-2.9-3.9-6.4-4.6-69.3l-0.6-66.5l5.2-5.2l5.2-5.2h64.7c55.4,0,65.7,0.5,69.6,3.3
		c4.6,3.1,4.6,3.3,4.6,71.2c0,59-0.5,68.5-3.3,71.2c-2.6,2.9-12,3.3-69.9,3.3C2456.4,6222,2443.2,6221.4,2439.8,6219.1z"/>
	<path class="st1" d="M2622.5,6218.6c-1.8-1.6-3.7-5.2-4.4-7.7c-0.6-2.5-1-32.9-0.6-67.3l0.6-62.9l4.9-3.9
		c4.7-3.9,8.7-3.9,105.1-3.6c96.5,0.6,100.4,0.8,103.3,4.6c2.3,3.3,2.9,16.6,2.9,70.8c0,66.7,0,66.8-4.6,69.9
		c-4.1,2.9-17.4,3.3-104.5,3.3C2637.5,6222,2625.3,6221.5,2622.5,6218.6z"/>
	<path class="st1" d="M188.4,6040.3c-3.1-3.6-3.6-11.4-3.6-69.9c0-36.2,0.8-67,1.6-68.3c4.4-6.7,10.3-7,135-7h124.4l4.9,5.2l5.2,4.9
		v65.4c0,62.6-0.2,65.4-4.1,69.3c-4.1,4.1-6.8,4.1-132,4.1C198.3,6044,191.5,6043.7,188.4,6040.3z"/>
	<path class="st1" d="M492.7,6040.3c-3.1-3.6-3.6-11.4-3.6-71.4c0-67.3,0-67.5,4.6-70.6c3.9-2.9,14-3.3,69.6-3.3H628l4.9,5.2
		l5.2,4.9v65.4c0,62.6-0.2,65.4-4.1,69.3c-3.9,3.9-6.8,4.1-71,4.1C500.7,6044,495.8,6043.7,492.7,6040.3z"/>
	<path class="st1" d="M674.8,6040.3c-3.1-3.6-3.6-11.4-3.6-71.4c0-67.3,0-67.5,4.6-70.6c3.9-2.9,14-3.3,69.6-3.3h64.7l5.2,5.2
		l5.2,5.2l-0.6,66.5c-0.6,62.9-0.8,66.5-4.6,69.3c-3.3,2.3-16.6,2.9-70.6,2.9C682.9,6044,677.9,6043.7,674.8,6040.3z"/>
	<path class="st1" d="M856.7,6040.6c-2.9-2.6-3.3-12.2-3.3-71.2c0-67.9,0-68.1,4.6-71.2c3.9-2.9,14-3.3,68.9-3.3s65,0.5,68.9,3.3
		c4.6,3.1,4.6,3.3,4.6,71.2c0,59-0.5,68.5-3.3,71.2c-2.6,2.9-12,3.3-70.1,3.3C868.7,6044,859.4,6043.5,856.7,6040.6z"/>
	<path class="st1" d="M1038.9,6040.6c-2.9-2.6-3.3-12.2-3.3-71.2c0-67.9,0-68.1,4.6-71.2c3.9-2.9,14-3.3,68.9-3.3s65,0.5,68.9,3.3
		c4.6,3.1,4.6,3.3,4.6,71c0,63.1-0.2,68.1-3.7,71.2c-3.6,3.1-11.4,3.6-70.4,3.6C1050.9,6044,1041.5,6043.5,1038.9,6040.6z"/>
	<path class="st1" d="M1220.6,6041.1c-3.7-2.9-3.9-6.4-4.6-69.3l-0.6-66.5l5.2-5.2l5.2-5.2h64.7c55.4,0,65.7,0.5,69.6,3.3
		c4.6,3.1,4.6,3.3,4.6,71c0,63.1-0.2,68.1-3.7,71.2c-3.6,3.1-11.4,3.6-69.9,3.6C1236.9,6044,1223.9,6043.4,1220.6,6041.1z"/>
	<path class="st1" d="M1402,6039.8c-3.9-3.9-4.1-6.8-4.1-69.3V5905l5.2-4.9l4.9-5.2h65.4c62.6,0,65.4,0.2,69.3,4.1
		c3.9,3.9,4.1,6.8,4.1,71c0,62.3-0.2,67.3-3.7,70.4c-3.6,3.1-11.4,3.6-70.4,3.6C1408.7,6044,1405.9,6043.7,1402,6039.8z"/>
	<path class="st1" d="M1584.1,6039.8c-3.9-3.9-4.1-6.8-4.1-70.1c0-71.4,0-71,10.9-73.7c2.5-0.6,33.3-1,68.3-0.6
		c60.5,0.6,63.9,0.8,66.8,4.6c4.6,6.4,4.4,132.9-0.5,139.5c-3.1,4.6-3.3,4.6-70.4,4.6C1590.9,6044,1588,6043.7,1584.1,6039.8z"/>
	<path class="st1" d="M1765.5,6039.4c-4.7-6.7-4.9-133.1-0.5-139.5c2.9-3.7,6.4-3.9,66.8-4.6c35-0.5,65.8,0,68.3,0.6
		c10.9,2.6,10.9,2.3,10.9,73.7c0,63.4-0.2,66.2-4.1,70.1c-3.9,3.9-6.8,4.1-71.2,4.1C1768.8,6044,1768.6,6044,1765.5,6039.4z"/>
	<path class="st1" d="M1947.9,6040.3c-3.1-3.6-3.6-11.4-3.6-70.4c0-63.9,0.2-66.8,4.1-70.8c3.9-4,6.8-4.1,69.3-4.1h65.4l4.9,5.2
		l5.2,4.9v65.4c0,62.6-0.2,65.4-4.1,69.3c-3.9,3.9-6.8,4.1-71,4.1C1955.9,6044,1951,6043.7,1947.9,6040.3z"/>
	<path class="st1" d="M2130,6040.3c-3.1-3.6-3.6-11.4-3.6-70.4c0-63.9,0.2-66.8,4.1-70.8c3.9-3.9,6.8-4.1,69.3-4.1h65.4l5.2,5.2
		l5.2,5.2l-0.6,66.5c-0.6,62.9-0.8,66.5-4.6,69.3c-3.3,2.3-16.6,2.9-70.6,2.9C2138.1,6044,2133.1,6043.7,2130,6040.3z"/>
	<path class="st1" d="M2312.2,6040.3c-3.1-3.6-3.6-11.4-3.6-71.4c0-67.3,0-67.5,4.6-70.6c3.9-2.9,14-3.3,68.9-3.3
		c54.9,0,65,0.5,68.9,3.3c4.6,3.1,4.6,3.3,4.6,71.2c0,59-0.5,68.5-3.3,71.2c-2.6,2.9-12,3.3-69.9,3.3
		C2320.2,6044,2315.3,6043.7,2312.2,6040.3z"/>
	<path class="st1" d="M2494.1,6040.3c-3.1-3.6-3.3-10.8-2.9-72l0.6-67.9l5.2-2.6c4.1-2.1,40.4-2.6,165.1-2.6
		c160.7,0,166.1,0.2,170.5,7c0.8,1.3,1.6,32.1,1.6,68.8c0,61.6-0.2,66.7-3.7,69.8c-3.6,3.3-18.2,3.6-168.5,3.6
		C2504.8,6044,2497.4,6043.7,2494.1,6040.3z"/>
	<path class="st1" d="M188.4,5860.2c-3.1-3.6-3.6-11.4-3.6-70.1c0-61.5,0.2-66.5,3.7-69.6c3.6-3.3,17.4-3.6,155.8-3.6
		c128.1,0,152.7,0.5,156.3,2.9c3.7,2.9,3.9,6,3.9,70.1c0,53.8-0.6,67.7-2.9,70.4c-2.5,3.3-16,3.6-156.5,3.6
		C199.1,5863.9,191.5,5863.6,188.4,5860.2z"/>
	<path class="st1" d="M541.3,5861.3c-3.6-3.6-3.6-138.5,0-142c3.6-3.6,138.5-3.6,142,0c3.6,3.6,3.6,138.5,0,142
		C679.8,5864.9,544.7,5864.9,541.3,5861.3z"/>
	<path class="st1" d="M723.5,5861.3c-3.6-3.6-3.6-138.5,0-142c3.6-3.6,138.5-3.6,142,0c3.6,3.6,3.6,138.5,0,142
		C861.9,5864.9,726.9,5864.9,723.5,5861.3z"/>
	<path class="st1" d="M904.4,5859.3c-2.9-3.9-3.3-14-3.3-68.9c0-54.9,0.5-65,3.3-68.9c3.1-4.6,3.3-4.6,71.2-4.6
		c59,0,68.5,0.5,71.2,3.3c2.9,2.6,3.3,12,3.3,70.1s-0.5,67.5-3.3,70.1c-2.6,2.9-12.2,3.3-71.2,3.3
		C907.7,5863.9,907.5,5863.9,904.4,5859.3z"/>
	<path class="st1" d="M1086.5,5859.3c-2.9-3.9-3.3-14-3.3-68.9c0-54.9,0.5-65,3.3-68.9c3.1-4.6,3.3-4.6,71.2-4.6
		c59,0,68.5,0.5,71.2,3.3c2.9,2.6,3.3,12,3.3,70.1s-0.5,67.5-3.3,70.1c-2.6,2.9-12.2,3.3-71.2,3.3
		C1089.8,5863.9,1089.6,5863.9,1086.5,5859.3z"/>
	<path class="st1" d="M1268.7,5859.3c-2.9-3.9-3.3-14-3.3-68.9c0-54.9,0.5-65,3.3-68.9c3.1-4.6,3.3-4.6,71-4.6
		c63.1,0,68.1,0.2,71.2,3.7c3.1,3.6,3.6,11.4,3.6,70.1c0,61.5-0.2,66.5-3.7,69.6c-3.6,3.1-11.4,3.6-71.4,3.6
		C1272,5863.9,1271.8,5863.9,1268.7,5859.3z"/>
	<path class="st1" d="M1451.1,5860.2c-3.1-3.6-3.6-11.4-3.6-70.1c0-61.5,0.2-66.5,3.7-69.6c3.6-3.1,11.4-3.6,71.2-3.6
		c62.6,0,67.5,0.2,70.6,3.7c3.1,3.6,3.6,11.4,3.6,70.1c0,61.5-0.2,66.5-3.7,69.6c-3.6,3.1-11.4,3.6-71.2,3.6
		C1459.1,5863.9,1454.2,5863.6,1451.1,5860.2z"/>
	<path class="st1" d="M1633.2,5860.2c-3.1-3.6-3.6-11.4-3.6-70.1c0-61.5,0.2-66.5,3.7-69.6c3.6-3.1,11.4-3.6,71.4-3.6
		c67.3,0,67.5,0,70.6,4.6c2.9,3.9,3.3,14,3.3,68.9c0,54.9-0.5,65-3.3,68.9c-3.1,4.6-3.3,4.6-71,4.6
		C1641.3,5863.9,1636.3,5863.6,1633.2,5860.2z"/>
	<path class="st1" d="M1815.2,5860.5c-2.9-2.6-3.3-12-3.3-70.1s0.5-67.5,3.3-70.1c2.6-2.9,12.2-3.3,71.2-3.3c67.9,0,68.1,0,71.2,4.6
		c2.9,3.9,3.3,14,3.3,68.9c0,54.9-0.5,65-3.3,68.9c-3.1,4.6-3.3,4.6-71.2,4.6C1827.3,5863.9,1817.8,5863.4,1815.2,5860.5z"/>
	<path class="st1" d="M1996,5860c-1.3-2.6-2.1-28.4-2.1-69.6s0.8-66.8,2.1-69.6c2.1-3.7,5.2-3.9,71.2-3.9c61.6,0,69.3,0.5,71.9,3.6
		c2.3,2.6,2.9,16.6,2.9,69.9s-0.6,67.3-2.9,69.9c-2.5,3.1-10.1,3.6-71.9,3.6C2001.2,5863.9,1998.1,5863.6,1996,5860z"/>
	<path class="st1" d="M2178.7,5861.3c-1.8-1.8-2.5-20.5-2.5-71s0.6-69.1,2.5-71c3.6-3.6,138.5-3.6,142,0c3.6,3.6,3.6,138.5,0,142
		C2317.1,5864.9,2182.1,5864.9,2178.7,5861.3z"/>
	<path class="st1" d="M2360.8,5861.3c-1.8-1.8-2.5-20.2-2.5-70.1c0-58.8,0.5-68.3,3.3-71c2.9-2.9,26.9-3.3,234.5-3.3
		c221.5,0,231.6,0.2,234.7,3.7c3.1,3.6,3.6,11.4,3.6,70.1c0,61.5-0.2,66.5-3.7,69.6c-3.6,3.3-22.8,3.6-235.5,3.6
		C2417.5,5863.9,2362.7,5863.3,2360.8,5861.3z"/>
	<path class="st1" d="M188.9,5683.8c-3.9-3.9-4.1-6.8-4.1-70.4c0-63.6,0.2-66.5,4.1-70.4c3.9-3.9,6.8-4.1,104.1-4.1
		c99.1,0,100.2,0,104.1,4.4c3.7,4.1,3.9,8.3,3.9,70.6v66.2l-4.9,3.9c-4.6,3.7-9.3,3.9-104,3.9
		C195.7,5687.9,192.8,5687.7,188.9,5683.8z"/>
	<path class="st1" d="M439.9,5684.6c-4.6-3.1-4.6-3.3-4.6-71c0-63.1,0.2-68.1,3.7-71.2c3.6-3.1,11.4-3.6,69.9-3.6
		c36.2,0,67,0.8,68.3,1.6c6.4,4.1,7,11.4,7,73.9v63.4l-5.2,4.9l-4.9,5.2h-64.7C453.9,5687.9,443.8,5687.5,439.9,5684.6z"/>
	<path class="st1" d="M622,5684.6c-4.6-3.1-4.6-3.1-4.6-71.2s0-68.1,4.6-71.2c4.1-2.9,17.4-3.3,103-3.3s98.9,0.5,103,3.3
		c4.6,3.1,4.6,3.1,4.6,71.2s0,68.1-4.6,71.2c-4.1,2.9-17.4,3.3-103,3.3S626.2,5687.5,622,5684.6z"/>
	<path class="st1" d="M871,5682.7l-5.2-4.9v-63.9c0-61.6,0.2-64.2,4.4-69.6l4.1-5.4h584.2c321.3,0,585.2,0.8,586.4,1.6
		c6.4,4.1,7,11.4,7,73.9v63.4l-5.2,4.9l-4.9,5.2h-582.9H875.9L871,5682.7z"/>
	<path class="st1" d="M2077.2,5684.6c-4.6-3.1-4.6-3.3-4.6-71c0-63.1,0.2-68.1,3.7-71.2c3.6-3.1,11.4-3.6,70.1-3.6
		c61.5,0,66.5,0.2,69.6,3.7c3.1,3.5,3.6,11.4,3.6,71.4c0,67.3,0,67.5-4.6,70.6c-3.9,2.9-14,3.3-68.9,3.3
		C2091.3,5687.9,2081.1,5687.5,2077.2,5684.6z"/>
	<path class="st1" d="M2259.4,5684.6c-4.6-3.1-4.6-3.3-4.6-71c0-63.1,0.2-68.1,3.7-71.2c3.6-3.1,11.4-3.6,70.1-3.6
		c61.5,0,66.5,0.2,69.6,3.7c3.1,3.6,3.6,11.4,3.6,71.4c0,67.3,0,67.5-4.6,70.6c-3.9,2.9-14,3.3-68.9,3.3
		S2263.3,5687.5,2259.4,5684.6z"/>
	<path class="st1" d="M2441.6,5684.6c-4.6-3.1-4.6-3.1-4.6-71.2s0-68.1,4.6-71.2c4.1-2.9,17.4-3.3,103.5-3.3
		c96.3,0,99.1,0.2,103,4.1c3.9,3.9,4.1,6.8,4.1,70.4c0,63.6-0.2,66.5-4.1,70.4c-3.9,3.9-6.8,4.1-103,4.1
		C2458.9,5687.9,2445.7,5687.5,2441.6,5684.6z"/>
	<path class="st1" d="M2689.5,5683.8c-3.9-3.9-4.1-6.8-4.1-70.4c0-63.6,0.2-66.5,4.1-70.4c3.9-3.9,6.8-4.1,70.4-4.1
		s66.5,0.2,70.4,4.1c3.9,3.9,4.1,6.8,4.1,70.4c0,63.6-0.2,66.5-4.1,70.4c-3.9,3.9-6.8,4.1-70.4,4.1S2693.4,5687.7,2689.5,5683.8z"/>
</g>
<g>
	<rect x="35.3" y="108.5" class="st2" width="89.9" height="22.4"/>
	<rect x="35.3" y="153.3" class="st2" width="89.6" height="22.4"/>
	<rect x="35.3" y="198.1" class="st2" width="89.6" height="22.4"/>
	<path class="st3" d="M262.4,164.4c5.8,5.7,8.7,13.1,8.7,22.4c0,11-3.9,19.4-11.7,25.1c-7.8,5.7-18.8,8.5-33.1,8.5h-67.2V198h67.1
		c12.5,0,19.6-1.8,21.3-5.3c0.7-1.5,1.1-3.5,1.1-6c0-3.7-0.9-6.2-2.7-7.7c-3-2.4-8.9-3.6-17.8-3.6h-69V153h69.1
		c4.3,0,8.2-0.4,11.6-1.2c5-1.1,7.8-3.1,8.5-5.7c0.2-1.1,0.3-2.5,0.3-4.3c0-3-0.5-5.1-1.4-6.4c-1-1.3-2.8-2.4-5.6-3.3
		c-3.3-1-8.4-1.5-15.4-1.5h-89.6v-22.4h89.6c19.3,0,32.4,5,39.5,15c3.5,5.1,5.3,11.2,5.3,18.5C271.1,151.5,268.2,158.9,262.4,164.4z
		"/>
</g>
</svg>
