<?xml version="1.0" encoding="utf-8"?>
<!-- Generator: Adobe Illustrator 23.0.1, SVG Export Plug-In . SVG Version: 6.00 Build 0)  -->
<svg version="1.1" id="Layer_1" xmlns="http://www.w3.org/2000/svg" xmlns:xlink="http://www.w3.org/1999/xlink" x="0px" y="0px"
	 viewBox="0 0 298 291.4" style="enable-background:new 0 0 298 291.4;" xml:space="preserve">
<style type="text/css">
	.st0{fill:none;stroke:#889696;stroke-width:10;stroke-miterlimit:10;}
	.st1{fill:#889696;}
	.st2{fill:#D2D4C8;}
	.st3{fill:#9E2A2B;}
</style>
<path class="st0" d="M22,74.6C11.2,94.8,5,117.9,5,142.4c0,79.5,64.5,144,144,144s144-64.5,144-144c0-24.6-6.2-47.7-17-67.9"/>
<g transform="translate(0.000000,640.000000) scale(0.100000,-0.100000)">
	<path class="st1" d="M341.6,6396.4c-3.4-3.4-3.6-5.9-3.6-61.2c0-55.3,0.2-57.8,3.6-61.2c3.4-3.4,5.9-3.6,61.2-3.6
		s57.8,0.2,61.2,3.6c3.4,3.4,3.6,5.9,3.6,61.2c0,55.3-0.2,57.8-3.6,61.2c-3.4,3.4-5.9,3.6-61.2,3.6S345,6399.8,341.6,6396.4z"/>
	<path class="st1" d="M500.4,6397.1c-4-2.7-4-2.9-4-61.2c0-56,0.2-58.5,3.6-61.9s5.9-3.6,61.2-3.6s57.8,0.2,61.2,3.6
		s3.6,5.9,3.6,61.2c0,55.3-0.2,57.8-3.6,61.2s-5.9,3.6-60.8,3.6C512.8,6400,503.8,6399.6,500.4,6397.1z"/>
	<path class="st1" d="M657.9,6396.8c-2.7-3.1-3.1-9.9-3.1-62.1c0-58.5,0-58.7,4-61.4c3.4-2.5,12.2-2.9,60.5-2.9h56.3l4.5,4.5
		l4.5,4.5l-0.5,57.8c-0.5,54.7-0.7,57.8-4,60.3c-2.9,2-14.4,2.5-61.4,2.5C664.9,6400,660.6,6399.8,657.9,6396.8z"/>
	<path class="st1" d="M816.3,6396.8c-2.7-3.1-3.1-9.9-3.1-62.1c0-58.5,0-58.7,4-61.4c3.4-2.5,12.2-2.9,60.1-2.9
		c52.6,0,56.3,0.2,60.3,3.4l4.3,3.4l0.5,54.7c0.4,29.9,0,56.3-0.5,58.5c-2.3,9.5-2,9.5-64.6,9.5C823.3,6400,819,6399.8,816.3,6396.8
		z"/>
	<path class="st1" d="M974.7,6396.8c-2.7-3.1-3.1-9.9-3.1-62.1c0-58.5,0-58.7,4-61.4c3.4-2.5,12.2-2.9,59.9-2.9s56.5,0.4,59.9,2.9
		c4,2.7,4,2.9,4,61.7c0,54.9-0.2,59.2-3.2,61.9c-3.1,2.7-9.9,3.1-61,3.1C981.7,6400,977.4,6399.8,974.7,6396.8z"/>
	<path class="st1" d="M1132.9,6397.1c-1.6-1.4-3.2-4.5-3.8-6.7s-0.9-28.6-0.5-58.5l0.5-54.7l4.3-3.4c4-3.2,7.7-3.4,60.3-3.4
		c47.9,0,56.7,0.4,60.1,2.9c4,2.7,4,2.9,4,61.7c0,54.9-0.2,59.2-3.2,61.9c-3.1,2.7-9.9,3.1-61.2,3.1
		C1143.3,6400,1135.2,6399.6,1132.9,6397.1z"/>
	<path class="st1" d="M1290.2,6396.4c-3.4-3.4-3.6-5.9-3.6-60.3v-56.9l4.5-4.3l4.3-4.5h56.3c48.2,0,57.1,0.4,60.5,2.9
		c4,2.7,4,2.9,4,61.7c0,54.9-0.2,59.2-3.2,61.9c-3.1,2.7-9.9,3.1-61.2,3.1C1296.1,6400,1293.6,6399.8,1290.2,6396.4z"/>
	<path class="st1" d="M1448.6,6396.4c-3.4-3.4-3.6-5.9-3.6-61v-57.6l4.7-3.6c4.7-3.6,6.8-3.8,61.2-3.8c54.2,0,56.7,0.2,60.1,3.6
		s3.6,5.9,3.6,61.9c0,58.3,0,58.5-4,61.2c-3.4,2.5-12.4,2.9-61.2,2.9C1454.5,6400,1452,6399.8,1448.6,6396.4z"/>
	<path class="st1" d="M1607,6396.4c-3.4-3.4-3.6-5.9-3.6-61.2c0-55.3,0.2-57.8,3.6-61.2c3.4-3.4,5.9-3.6,61.2-3.6s57.8,0.2,61.2,3.6
		c3.4,3.4,3.6,5.9,3.6,61.2c0,55.3-0.2,57.8-3.6,61.2c-3.4,3.4-5.9,3.6-61.2,3.6S1610.4,6399.8,1607,6396.4z"/>
	<path class="st1" d="M1765.4,6396.4c-3.4-3.4-3.6-5.9-3.6-61.2c0-55.3,0.2-57.8,3.6-61.2c3.4-3.4,5.9-3.6,61.2-3.6
		s57.8,0.2,61.2,3.6c3.4,3.4,3.6,5.9,3.6,61.2c0,55.3-0.2,57.8-3.6,61.2c-3.4,3.4-5.9,3.6-61.2,3.6S1768.8,6399.8,1765.4,6396.4z"/>
	<path class="st1" d="M1923.3,6396.8c-2.7-3.1-3.1-9.9-3.1-62.1c0-58.5,0-58.7,4-61.4c3.4-2.5,12.2-2.9,60.5-2.9h56.3l4.3,4.5
		l4.5,4.3v56.9c0,54.4-0.2,56.9-3.6,60.3s-5.9,3.6-61.7,3.6C1930.3,6400,1926,6399.8,1923.3,6396.8z"/>
	<path class="st1" d="M2081.7,6396.8c-2.7-3.1-3.1-9.9-3.1-62.1c0-58.5,0-58.7,4-61.4c3.4-2.5,12.2-2.9,60.5-2.9h56.3l4.5,4.5
		l4.5,4.5l-0.5,57.8c-0.5,54.7-0.7,57.8-4,60.3c-2.9,2-14.4,2.5-61.4,2.5C2088.7,6400,2084.4,6399.8,2081.7,6396.8z"/>
	<path class="st1" d="M2240.1,6396.8c-2.7-3.1-3.1-9.9-3.1-62.1c0-58.5,0-58.7,4-61.4c3.4-2.5,12.2-2.9,59.9-2.9s56.5,0.4,59.9,2.9
		c4,2.7,4,2.9,4,61.7c0,54.9-0.2,59.2-3.2,61.9c-3.1,2.7-9.9,3.1-61,3.1C2247.1,6400,2242.8,6399.8,2240.1,6396.8z"/>
	<path class="st1" d="M2398.5,6396.8c-2.7-3.1-3.1-9.9-3.1-62.1v-58.9l4.3-2.7c3.6-2.5,18.2-2.7,120.6-2.3
		c113,0.5,116.6,0.7,119.2,4c2,2.9,2.5,14.2,2.5,60.8c0,54.9-0.2,57.4-3.6,60.8c-3.6,3.6-5.9,3.6-120.2,3.6
		C2407.3,6400,2401.2,6399.8,2398.5,6396.8z"/>
	<path class="st1" d="M342,6242.3c-4-2.7-4-2.9-4-60.8c0-47.2,0.5-58.7,2.5-61.6c2.5-3.2,5.9-3.4,89.8-4c83.9-0.4,87.3-0.4,91.4,3.1
		l4.3,3.4l0.5,54.7c0.4,29.9,0,56.3-0.5,58.5c-2.3,9.9,0.5,9.5-93.2,9.5C357.1,6245.2,345.6,6244.8,342,6242.3z"/>
	<path class="st1" d="M558.9,6242c-2.7-3.1-3.1-9.9-3.1-62.1c0-58.5,0-58.7,4-61.4c3.4-2.5,12.4-2.9,61-2.9H678l3.6,4.7
		c3.6,4.7,3.8,6.8,3.8,61.2c0,54.2-0.2,56.7-3.6,60.1c-3.4,3.4-5.9,3.6-61.7,3.6C565.9,6245.2,561.6,6245,558.9,6242z"/>
	<path class="st1" d="M717.1,6242.3c-1.6-1.4-2.9-4.1-2.9-5.8s0-28.1-0.2-58.9c0-54.9,0.2-55.8,4-58.9c3.4-2.9,9.2-3.2,60.5-3.2H835
		l4.3,4.5l4.5,4.3v55.1c0,54.4-0.5,60.7-6.1,64.3c-1.1,0.7-28.1,1.4-59.9,1.4C727.5,6245.2,719.4,6244.8,717.1,6242.3z"/>
	<path class="st1" d="M875.1,6242.7c-3.2-2.5-3.4-5.2-3.4-61.4v-58.9l4.3-3.4c4-3.2,7.7-3.4,60.5-3.4c52.7,0,56.5,0.2,60.5,3.4
		l4.3,3.4l0.5,54.7c0.4,29.9,0,56.3-0.5,58.5c-2.3,9.5-2,9.5-64.6,9.5C889.5,6245.2,878,6244.7,875.1,6242.7z"/>
	<path class="st1" d="M1032.8,6241.6c-3.4-3.4-3.6-5.9-3.6-59.6c0-55.1,0.5-61.4,6.1-65c1.1-0.7,27.5-1.4,58.7-1.4
		c48.6,0,57.4,0.4,60.8,2.9c4,2.7,4,2.9,4,61.7c0,54.9-0.2,59.2-3.2,61.9c-3.1,2.7-9.9,3.1-61.2,3.1
		C1038.7,6245.2,1036.2,6245,1032.8,6241.6z"/>
	<path class="st1" d="M1191.2,6241.6c-3.4-3.4-3.6-5.9-3.6-61.2c0-55.3,0.2-57.8,3.6-61.2c3.4-3.4,5.9-3.6,60.8-3.6
		c48.8,0,57.8,0.4,61.2,2.9c4,2.7,4,2.9,4,61.7c0,54.9-0.2,59.2-3.2,61.9c-3.1,2.7-9.9,3.1-61.2,3.1
		C1197.1,6245.2,1194.6,6245,1191.2,6241.6z"/>
	<path class="st1" d="M1348.9,6241.2c-2.5-3.4-2.9-12.4-2.9-61.2c0-54.9,0.2-57.4,3.6-60.8s5.9-3.6,61.2-3.6s57.8,0.2,61.2,3.6
		c3.4,3.4,3.6,5.9,3.6,61.7c0,54.2-0.2,58.5-3.2,61.2c-3.1,2.7-9.9,3.1-62.1,3.1C1351.8,6245.2,1351.6,6245.2,1348.9,6241.2z"/>
	<path class="st1" d="M1507.5,6242c-2.7-3.1-3.1-9.9-3.1-61.2c0-55.6,0.2-58.1,3.6-61.6c3.4-3.4,5.9-3.6,61.2-3.6s57.8,0.2,61.2,3.6
		c3.4,3.4,3.6,5.9,3.6,60.8c0,48.8-0.4,57.8-2.9,61.2c-2.7,4-2.9,4-61.7,4C1514.5,6245.2,1510.2,6245,1507.5,6242z"/>
	<path class="st1" d="M1665.9,6242c-2.7-3.1-3.1-9.9-3.1-62.1c0-58.5,0-58.7,4-61.4c3.4-2.5,12.4-2.9,61.2-2.9
		c54.9,0,57.4,0.2,60.8,3.6s3.6,5.9,3.6,61.2c0,55.3-0.2,57.8-3.6,61.2c-3.4,3.4-5.9,3.6-61.7,3.6
		C1672.9,6245.2,1668.6,6245,1665.9,6242z"/>
	<path class="st1" d="M1824.3,6242c-2.7-3.1-3.1-9.9-3.1-62.1c0-58.5,0-58.7,4-61.4c3.4-2.5,12.2-2.9,60.8-2.9
		c31.1,0,57.6,0.7,58.7,1.4c5.6,3.6,6.1,9.9,6.1,65c0,53.6-0.2,56.2-3.6,59.6s-5.9,3.6-61.7,3.6
		C1831.3,6245.2,1827,6245,1824.3,6242z"/>
	<path class="st1" d="M1982.5,6242.3c-1.6-1.4-3.2-4.5-3.8-6.7c-0.5-2.2-0.9-28.6-0.5-58.5l0.5-54.7l4.3-3.4c4-3.2,7.7-3.4,60.5-3.4
		c52.7,0,56.5,0.2,60.5,3.4l4.3,3.4v58.9c0,56.2-0.2,58.9-3.4,61.4c-2.9,2-14.4,2.5-61.6,2.5
		C1992.9,6245.2,1984.8,6244.8,1982.5,6242.3z"/>
	<path class="st1" d="M2142.3,6243.8c-5.6-3.6-6.1-9.9-6.1-64.3v-55.1l4.5-4.3l4.3-4.5h56.5c51.3,0,57.1,0.4,60.5,3.2
		c3.6,3.1,3.8,4.3,3.8,58.9c0,30.8,0,57.2,0,58.9s-1.3,4.3-2.9,5.8c-2.3,2.5-10.4,2.9-60.7,2.9
		C2170.4,6245.2,2143.4,6244.5,2142.3,6243.8z"/>
	<path class="st1" d="M2298.9,6242.7c-3.2-2.5-3.4-5.6-4-60.3l-0.5-57.8l4.5-4.5l4.5-4.5h56.3c48.2,0,57.1,0.4,60.5,2.9
		c4,2.7,4,2.9,4,61.9c0,51.3-0.4,59.6-2.9,61.9c-2.3,2.5-10.4,2.9-60.8,2.9C2313.3,6245.2,2301.8,6244.7,2298.9,6242.7z"/>
	<path class="st1" d="M2457.7,6242.3c-1.6-1.4-3.2-4.5-3.8-6.7c-0.5-2.2-0.9-28.6-0.5-58.5l0.5-54.7l4.3-3.4
		c4.1-3.4,7.6-3.4,91.4-3.1c83.9,0.5,87.3,0.7,89.8,4c2,2.9,2.5,14.4,2.5,61.6c0,58,0,58.1-4,60.8c-3.6,2.5-15.1,2.9-90.9,2.9
		C2470.8,6245.2,2460.2,6244.8,2457.7,6242.3z"/>
	<path class="st1" d="M341.1,6087.2c-2.7-3.1-3.1-9.9-3.1-60.8c0-31.5,0.7-58.3,1.4-59.4c3.8-5.8,9-6.1,117.4-6.1H565l4.3,4.5
		l4.5,4.3v56.9c0,54.4-0.2,56.9-3.6,60.3c-3.6,3.6-5.9,3.6-114.8,3.6C349.7,6090.4,343.8,6090.2,341.1,6087.2z"/>
	<path class="st1" d="M605.7,6087.2c-2.7-3.1-3.1-9.9-3.1-62.1c0-58.5,0-58.7,4-61.4c3.4-2.5,12.2-2.9,60.5-2.9h56.3l4.3,4.5
		l4.5,4.3v56.9c0,54.4-0.2,56.9-3.6,60.3c-3.4,3.4-5.9,3.6-61.7,3.6C612.7,6090.4,608.4,6090.2,605.7,6087.2z"/>
	<path class="st1" d="M764.1,6087.2c-2.7-3.1-3.1-9.9-3.1-62.1c0-58.5,0-58.7,4-61.4c3.4-2.5,12.2-2.9,60.5-2.9h56.3l4.5,4.5
		l4.5,4.5l-0.5,57.8c-0.5,54.7-0.7,57.8-4,60.3c-2.9,2-14.4,2.5-61.4,2.5C771.1,6090.4,766.8,6090.2,764.1,6087.2z"/>
	<path class="st1" d="M922.3,6087.5c-2.5-2.3-2.9-10.6-2.9-61.9c0-59,0-59.2,4-61.9c3.4-2.5,12.2-2.9,59.9-2.9s56.5,0.4,59.9,2.9
		c4,2.7,4,2.9,4,61.9c0,51.3-0.4,59.6-2.9,61.9c-2.3,2.5-10.4,2.9-61,2.9S924.6,6090,922.3,6087.5z"/>
	<path class="st1" d="M1080.7,6087.5c-2.5-2.3-2.9-10.6-2.9-61.9c0-59,0-59.2,4-61.9c3.4-2.5,12.2-2.9,59.9-2.9
		c47.7,0,56.5,0.4,59.9,2.9c4,2.7,4,2.9,4,61.7c0,54.9-0.2,59.2-3.2,61.9c-3.1,2.7-9.9,3.1-61.2,3.1
		C1091.1,6090.4,1083,6090,1080.7,6087.5z"/>
	<path class="st1" d="M1238.7,6087.9c-3.2-2.5-3.4-5.6-4-60.3l-0.5-57.8l4.5-4.5l4.5-4.5h56.3c48.2,0,57.1,0.4,60.5,2.9
		c4,2.7,4,2.9,4,61.7c0,54.9-0.2,59.2-3.2,61.9c-3.1,2.7-9.9,3.1-60.8,3.1C1252.9,6090.4,1241.6,6089.9,1238.7,6087.9z"/>
	<path class="st1" d="M1396.4,6086.8c-3.4-3.4-3.6-5.9-3.6-60.3v-56.9l4.5-4.3l4.3-4.5h56.9c54.4,0,56.9,0.2,60.3,3.6
		s3.6,5.9,3.6,61.7c0,54.2-0.2,58.5-3.2,61.2c-3.1,2.7-9.9,3.1-61.2,3.1C1402.3,6090.4,1399.8,6090.2,1396.4,6086.8z"/>
	<path class="st1" d="M1554.8,6086.8c-3.4-3.4-3.6-5.9-3.6-61c0-62.1,0-61.7,9.5-64.1c2.2-0.5,29-0.9,59.4-0.5
		c52.6,0.5,55.6,0.7,58.1,4c4,5.6,3.8,115.6-0.4,121.3c-2.7,4-2.9,4-61.2,4C1560.7,6090.4,1558.2,6090.2,1554.8,6086.8z"/>
	<path class="st1" d="M1712.5,6086.4c-4.1-5.8-4.3-115.7-0.4-121.3c2.5-3.2,5.6-3.4,58.1-4c30.4-0.4,57.2,0,59.4,0.5
		c9.5,2.3,9.5,2,9.5,64.1c0,55.1-0.2,57.6-3.6,61s-5.9,3.6-61.9,3.6C1715.4,6090.4,1715.2,6090.4,1712.5,6086.4z"/>
	<path class="st1" d="M1871.1,6087.2c-2.7-3.1-3.1-9.9-3.1-61.2c0-55.6,0.2-58.1,3.6-61.6s5.9-3.6,60.3-3.6h56.9l4.3,4.5l4.5,4.3
		v56.9c0,54.4-0.2,56.9-3.6,60.3s-5.9,3.6-61.7,3.6C1878.1,6090.4,1873.8,6090.2,1871.1,6087.2z"/>
	<path class="st1" d="M2029.5,6087.2c-2.7-3.1-3.1-9.9-3.1-61.2c0-55.6,0.2-58.1,3.6-61.6c3.4-3.4,5.9-3.6,60.3-3.6h56.9l4.5,4.5
		l4.5,4.5l-0.5,57.8c-0.5,54.7-0.7,57.8-4,60.3c-2.9,2-14.4,2.5-61.4,2.5C2036.5,6090.4,2032.2,6090.2,2029.5,6087.2z"/>
	<path class="st1" d="M2187.9,6087.2c-2.7-3.1-3.1-9.9-3.1-62.1c0-58.5,0-58.7,4-61.4c3.4-2.5,12.2-2.9,59.9-2.9s56.5,0.4,59.9,2.9
		c4,2.7,4,2.9,4,61.9c0,51.3-0.4,59.6-2.9,61.9c-2.3,2.5-10.4,2.9-60.8,2.9C2194.9,6090.4,2190.6,6090.2,2187.9,6087.2z"/>
	<path class="st1" d="M2346.1,6087.2c-2.7-3.1-2.9-9.4-2.5-62.6l0.5-59l4.5-2.3c3.6-1.8,35.1-2.3,143.6-2.3
		c139.7,0,144.4,0.2,148.3,6.1c0.7,1.1,1.4,27.9,1.4,59.8c0,53.6-0.2,58-3.2,60.7c-3.1,2.9-15.8,3.1-146.5,3.1
		C2355.4,6090.4,2349,6090.2,2346.1,6087.2z"/>
	<path class="st1" d="M341.1,5930.6c-2.7-3.1-3.1-9.9-3.1-61c0-53.5,0.2-57.8,3.2-60.5c3.1-2.9,15.1-3.1,135.5-3.1
		c111.4,0,132.8,0.4,135.9,2.5c3.2,2.5,3.4,5.2,3.4,61c0,46.8-0.5,58.9-2.5,61.2c-2.2,2.9-13.9,3.1-136.1,3.1
		C350.4,5933.8,343.8,5933.6,341.1,5930.6z"/>
	<path class="st1" d="M648,5931.6c-3.1-3.1-3.1-120.4,0-123.5s120.4-3.1,123.5,0s3.1,120.4,0,123.5S651,5934.7,648,5931.6z"/>
	<path class="st1" d="M806.4,5931.6c-3.1-3.1-3.1-120.4,0-123.5s120.4-3.1,123.5,0s3.1,120.4,0,123.5S809.4,5934.7,806.4,5931.6z"/>
	<path class="st1" d="M963.7,5929.8c-2.5-3.4-2.9-12.2-2.9-59.9c0-47.7,0.4-56.5,2.9-59.9c2.7-4,2.9-4,61.9-4
		c51.3,0,59.6,0.4,61.9,2.9c2.5,2.3,2.9,10.4,2.9,61s-0.4,58.7-2.9,61c-2.3,2.5-10.6,2.9-61.9,2.9
		C966.6,5933.8,966.4,5933.8,963.7,5929.8z"/>
	<path class="st1" d="M1122.1,5929.8c-2.5-3.4-2.9-12.2-2.9-59.9c0-47.7,0.4-56.5,2.9-59.9c2.7-4,2.9-4,61.9-4
		c51.3,0,59.6,0.4,61.9,2.9c2.5,2.3,2.9,10.4,2.9,61s-0.4,58.7-2.9,61c-2.3,2.5-10.6,2.9-61.9,2.9
		C1125,5933.8,1124.8,5933.8,1122.1,5929.8z"/>
	<path class="st1" d="M1280.5,5929.8c-2.5-3.4-2.9-12.2-2.9-59.9c0-47.7,0.4-56.5,2.9-59.9c2.7-4,2.9-4,61.7-4
		c54.9,0,59.2,0.2,61.9,3.2c2.7,3.1,3.1,9.9,3.1,61c0,53.5-0.2,57.8-3.2,60.5c-3.1,2.7-9.9,3.1-62.1,3.1
		C1283.4,5933.8,1283.2,5933.8,1280.5,5929.8z"/>
	<path class="st1" d="M1439.1,5930.6c-2.7-3.1-3.1-9.9-3.1-61c0-53.5,0.2-57.8,3.2-60.5c3.1-2.7,9.9-3.1,61.9-3.1
		c54.4,0,58.7,0.2,61.4,3.2c2.7,3.1,3.1,9.9,3.1,61c0,53.5-0.2,57.8-3.2,60.5c-3.1,2.7-9.9,3.1-61.9,3.1
		C1446.1,5933.8,1441.8,5933.6,1439.1,5930.6z"/>
	<path class="st1" d="M1597.5,5930.6c-2.7-3.1-3.1-9.9-3.1-61c0-53.5,0.2-57.8,3.2-60.5c3.1-2.7,9.9-3.1,62.1-3.1
		c58.5,0,58.7,0,61.4,4c2.5,3.4,2.9,12.2,2.9,59.9c0,47.7-0.4,56.5-2.9,59.9c-2.7,4-2.9,4-61.7,4
		C1604.5,5933.8,1600.2,5933.6,1597.5,5930.6z"/>
	<path class="st1" d="M1755.7,5930.9c-2.5-2.3-2.9-10.4-2.9-61s0.4-58.7,2.9-61c2.3-2.5,10.6-2.9,61.9-2.9c59,0,59.2,0,61.9,4
		c2.5,3.4,2.9,12.2,2.9,59.9c0,47.7-0.4,56.5-2.9,59.9c-2.7,4-2.9,4-61.9,4C1766.3,5933.8,1758,5933.4,1755.7,5930.9z"/>
	<path class="st1" d="M1913,5930.4c-1.1-2.3-1.8-24.7-1.8-60.5s0.7-58.1,1.8-60.5c1.8-3.2,4.5-3.4,61.9-3.4
		c53.6,0,60.3,0.4,62.5,3.1c2,2.3,2.5,14.4,2.5,60.8s-0.5,58.5-2.5,60.8c-2.2,2.7-8.8,3.1-62.5,3.1
		C1917.5,5933.8,1914.8,5933.6,1913,5930.4z"/>
	<path class="st1" d="M2071.8,5931.6c-1.6-1.6-2.2-17.8-2.2-61.7s0.5-60.1,2.2-61.7c3.1-3.1,120.4-3.1,123.5,0s3.1,120.4,0,123.5
		C2192.2,5934.7,2074.8,5934.7,2071.8,5931.6z"/>
	<path class="st1" d="M2230.2,5931.6c-1.6-1.6-2.2-17.6-2.2-61c0-51.1,0.4-59.4,2.9-61.7c2.5-2.5,23.4-2.9,203.9-2.9
		c192.6,0,201.4,0.2,204.1,3.2c2.7,3.1,3.1,9.9,3.1,61c0,53.5-0.2,57.8-3.2,60.5c-3.1,2.9-19.8,3.1-204.8,3.1
		C2279.5,5933.8,2231.8,5933.3,2230.2,5931.6z"/>
	<path class="st1" d="M341.6,5777.2c-3.4-3.4-3.6-5.9-3.6-61.2c0-55.3,0.2-57.8,3.6-61.2c3.4-3.4,5.9-3.6,90.5-3.6
		c86.2,0,87.1,0,90.5,3.8c3.2,3.6,3.4,7.2,3.4,61.4v57.6l-4.3,3.4c-4,3.2-8.1,3.4-90.4,3.4C347.5,5780.8,345,5780.6,341.6,5777.2z"
		/>
	<path class="st1" d="M559.8,5777.9c-4-2.7-4-2.9-4-61.7c0-54.9,0.2-59.2,3.2-61.9c3.1-2.7,9.9-3.1,60.8-3.1
		c31.5,0,58.3,0.7,59.4,1.4c5.6,3.6,6.1,9.9,6.1,64.3v55.1l-4.5,4.3l-4.3,4.5h-56.3C572,5780.8,563.2,5780.4,559.8,5777.9z"/>
	<path class="st1" d="M718.2,5777.9c-4-2.7-4-2.7-4-61.9s0-59.2,4-61.9c3.6-2.5,15.1-2.9,89.6-2.9s86,0.4,89.6,2.9
		c4,2.7,4,2.7,4,61.9s0,59.2-4,61.9c-3.6,2.5-15.1,2.9-89.6,2.9S721.8,5780.4,718.2,5777.9z"/>
	<path class="st1" d="M934.7,5776.3l-4.5-4.3v-55.6c0-53.6,0.2-55.8,3.8-60.5l3.6-4.7h508c279.4,0,508.9,0.7,509.9,1.4
		c5.6,3.6,6.1,9.9,6.1,64.3v55.1l-4.5,4.3l-4.3,4.5h-506.9H939L934.7,5776.3z"/>
	<path class="st1" d="M1983.6,5777.9c-4-2.7-4-2.9-4-61.7c0-54.9,0.2-59.2,3.2-61.9c3.1-2.7,9.9-3.1,61-3.1
		c53.5,0,57.8,0.2,60.5,3.2s3.1,9.9,3.1,62.1c0,58.5,0,58.7-4,61.4c-3.4,2.5-12.2,2.9-59.9,2.9S1987,5780.4,1983.6,5777.9z"/>
	<path class="st1" d="M2142,5777.9c-4-2.7-4-2.9-4-61.7c0-54.9,0.2-59.2,3.2-61.9c3.1-2.7,9.9-3.1,61-3.1c53.5,0,57.8,0.2,60.5,3.2
		c2.7,3.1,3.1,9.9,3.1,62.1c0,58.5,0,58.7-4,61.4c-3.4,2.5-12.2,2.9-59.9,2.9S2145.4,5780.4,2142,5777.9z"/>
	<path class="st1" d="M2300.4,5777.9c-4-2.7-4-2.7-4-61.9s0-59.2,4-61.9c3.6-2.5,15.1-2.9,90-2.9c83.7,0,86.2,0.2,89.6,3.6
		c3.4,3.4,3.6,5.9,3.6,61.2c0,55.3-0.2,57.8-3.6,61.2c-3.4,3.4-5.9,3.6-89.6,3.6C2315.5,5780.8,2304,5780.4,2300.4,5777.9z"/>
	<path class="st1" d="M2516,5777.2c-3.4-3.4-3.6-5.9-3.6-61.2c0-55.3,0.2-57.8,3.6-61.2c3.4-3.4,5.9-3.6,61.2-3.6s57.8,0.2,61.2,3.6
		s3.6,5.9,3.6,61.2c0,55.3-0.2,57.8-3.6,61.2c-3.4,3.4-5.9,3.6-61.2,3.6S2519.4,5780.6,2516,5777.2z"/>
</g>
<g>
	<rect x="37.2" y="102.7" class="st2" width="89.9" height="22.4"/>
	<rect x="37.2" y="147.5" class="st2" width="89.6" height="22.4"/>
	<rect x="37.2" y="192.3" class="st2" width="89.6" height="22.4"/>
	<path class="st3" d="M264.3,158.6c5.8,5.7,8.7,13.1,8.7,22.4c0,11-3.9,19.4-11.7,25.1c-7.8,5.7-18.8,8.5-33.1,8.5H161v-22.4h67.1
		c12.5,0,19.6-1.8,21.3-5.3c0.7-1.5,1.1-3.5,1.1-6c0-3.7-0.9-6.2-2.7-7.7c-3-2.4-8.9-3.6-17.8-3.6H161v-22.4h69.1
		c4.3,0,8.2-0.4,11.6-1.2c5-1.1,7.8-3.1,8.5-5.7c0.2-1.1,0.3-2.5,0.3-4.3c0-3-0.5-5.1-1.4-6.4c-1-1.3-2.8-2.4-5.6-3.3
		c-3.3-1-8.4-1.5-15.4-1.5h-89.6v-22.4h89.6c19.3,0,32.4,5,39.5,15c3.5,5.1,5.3,11.2,5.3,18.5C273,145.7,270.1,153.1,264.3,158.6z"
		/>
</g>
</svg>
