<?xml version="1.0" encoding="utf-8"?>
<!-- Generator: Adobe Illustrator 23.0.1, SVG Export Plug-In . SVG Version: 6.00 Build 0)  -->
<svg version="1.1" id="Layer_1" xmlns="http://www.w3.org/2000/svg" xmlns:xlink="http://www.w3.org/1999/xlink" x="0px" y="0px"
	 viewBox="0 0 482.9 95.8" style="enable-background:new 0 0 482.9 95.8;" xml:space="preserve">
<style type="text/css">
	.st0{fill:#9E2A2B;}
</style>
<path class="st0" d="M0,0v93.6h96V0H0z M4,4h88v85.6H4V4z M23.2,21.9c0-0.3,0.6-0.5,0.9-0.5c2.6-0.1,6.4-0.2,10.3-0.2
	c11.1,0,15.4,6.1,15.4,13.9c0,10.2-7.4,14.5-16.4,14.5c-1.5,0-2-0.1-3.1-0.1v15.4c0,0.3-0.1,0.5-0.5,0.5h-6.1
	c-0.3,0-0.5-0.1-0.5-0.5V21.9L23.2,21.9z M30.3,43.2c0.9,0.1,1.6,0.1,3.2,0.1c4.7,0,9.1-1.6,9.1-8c0-5.1-3.2-7.6-8.5-7.6
	c-1.6,0-3.1,0.1-3.8,0.1L30.3,43.2L30.3,43.2z M64.7,38.4c-3.2,0-4.2,1.6-4.2,2.9c0,1.4,0.7,2.4,5,4.6c6.3,3,8.2,6,8.2,10.2
	c0,6.4-4.9,9.8-11.5,9.8c-3.5,0-6.5-0.7-8.2-1.7c-0.3-0.1-0.3-0.3-0.3-0.6v-5.9c0-0.4,0.2-0.5,0.5-0.3c2.5,1.6,5.4,2.4,8,2.4
	c3.2,0,4.5-1.3,4.5-3.1c0-1.4-0.9-2.7-5-4.8c-5.7-2.7-8-5.5-8-10.1c0-5.2,4-9.4,11-9.4c3.4,0,5.8,0.5,7.2,1.1
	c0.3,0.2,0.4,0.5,0.4,0.8v5.5c0,0.3-0.2,0.5-0.6,0.4C69.9,39.1,67.3,38.4,64.7,38.4L64.7,38.4z"/>
<g>
	<path class="st0" d="M123.1,22.5c3.4-0.6,7.8-1,13.4-1c6.9,0,11.9,1.6,15.1,4.5c3,2.6,4.7,6.5,4.7,11.3c0,4.9-1.4,8.7-4.2,11.5
		c-3.7,3.9-9.7,5.9-16.5,5.9c-2.1,0-4-0.1-5.6-0.5v21.6h-7V22.5z M130,48.5c1.5,0.4,3.4,0.6,5.8,0.6c8.4,0,13.5-4.1,13.5-11.5
		c0-7.1-5-10.6-12.7-10.6c-3,0-5.4,0.2-6.6,0.6V48.5z"/>
	<path class="st0" d="M165,19h7v24.2h0.2c1.1-2,2.9-3.8,5-5c2.1-1.2,4.6-2,7.2-2c5.2,0,13.5,3.2,13.5,16.6v23h-7V53.6
		c0-6.2-2.3-11.5-9-11.5c-4.6,0-8.2,3.2-9.4,7c-0.4,1-0.5,2-0.5,3.4v23.4h-7V19z"/>
	<path class="st0" d="M244.4,56.1c0,14.3-9.9,20.6-19.3,20.6c-10.5,0-18.6-7.7-18.6-19.9c0-13,8.5-20.6,19.2-20.6
		C236.9,36.2,244.4,44.3,244.4,56.1z M213.7,56.5c0,8.5,4.9,14.9,11.8,14.9c6.7,0,11.8-6.3,11.8-15c0-6.6-3.3-14.9-11.6-14.9
		C217.3,41.5,213.7,49.2,213.7,56.5z"/>
	<path class="st0" d="M261.8,26v11.1h10.1v5.4h-10.1v20.9c0,4.8,1.4,7.5,5.3,7.5c1.8,0,3.2-0.2,4.1-0.5l0.3,5.3
		c-1.4,0.6-3.5,1-6.2,1c-3.3,0-5.9-1-7.6-3c-2-2.1-2.7-5.5-2.7-10.1V42.4h-6v-5.4h6v-9.3L261.8,26z"/>
	<path class="st0" d="M314.4,56.1c0,14.3-9.9,20.6-19.3,20.6c-10.5,0-18.6-7.7-18.6-19.9c0-13,8.5-20.6,19.2-20.6
		C306.8,36.2,314.4,44.3,314.4,56.1z M283.6,56.5c0,8.5,4.9,14.9,11.8,14.9c6.7,0,11.8-6.3,11.8-15c0-6.6-3.3-14.9-11.6-14.9
		C287.2,41.5,283.6,49.2,283.6,56.5z"/>
	<path class="st0" d="M322.3,68.6c2.1,1.4,5.8,2.8,9.3,2.8c5.1,0,7.5-2.6,7.5-5.8c0-3.4-2-5.2-7.2-7.1c-7-2.5-10.2-6.3-10.2-11
		c0-6.2,5-11.4,13.4-11.4c3.9,0,7.4,1.1,9.5,2.4l-1.8,5.1c-1.5-1-4.3-2.2-7.9-2.2c-4.2,0-6.5,2.4-6.5,5.3c0,3.2,2.3,4.6,7.4,6.6
		c6.7,2.6,10.2,5.9,10.2,11.7c0,6.8-5.3,11.6-14.5,11.6c-4.2,0-8.2-1-10.9-2.6L322.3,68.6z"/>
	<path class="st0" d="M354.9,19h7v24.2h0.2c1.1-2,2.9-3.8,5-5c2.1-1.2,4.6-2,7.2-2c5.2,0,13.5,3.2,13.5,16.6v23h-7V53.6
		c0-6.2-2.3-11.5-9-11.5c-4.6,0-8.2,3.2-9.4,7c-0.4,1-0.5,2-0.5,3.4v23.4h-7V19z"/>
	<path class="st0" d="M434.4,56.1c0,14.3-9.9,20.6-19.3,20.6c-10.5,0-18.6-7.7-18.6-19.9c0-13,8.5-20.6,19.2-20.6
		C426.8,36.2,434.4,44.3,434.4,56.1z M403.6,56.5c0,8.5,4.9,14.9,11.8,14.9c6.7,0,11.8-6.3,11.8-15c0-6.6-3.3-14.9-11.6-14.9
		C407.2,41.5,403.6,49.2,403.6,56.5z"/>
	<path class="st0" d="M443.2,49.7c0-5-0.2-9-0.3-12.6h6.3l0.3,6.6h0.2c2.9-4.7,7.4-7.5,13.8-7.5c9.4,0,16.4,7.9,16.4,19.7
		c0,13.9-8.5,20.8-17.6,20.8c-5.1,0-9.6-2.2-11.9-6.1h-0.2v21h-7V49.7z M450.2,60c0,1,0.2,2,0.3,2.9c1.3,4.9,5.5,8.2,10.6,8.2
		c7.4,0,11.8-6.1,11.8-15c0-7.8-4.1-14.4-11.5-14.4c-4.8,0-9.3,3.4-10.6,8.7c-0.2,0.9-0.5,1.9-0.5,2.9V60z"/>
</g>
</svg>
