<?xml version="1.0" encoding="utf-8"?>
<!-- Generator: Adobe Illustrator 23.0.1, SVG Export Plug-In . SVG Version: 6.00 Build 0)  -->
<svg version="1.1" id="Layer_1" xmlns="http://www.w3.org/2000/svg" xmlns:xlink="http://www.w3.org/1999/xlink" x="0px" y="0px"
	 viewBox="0 0 36.9 28.1" style="enable-background:new 0 0 36.9 28.1;" xml:space="preserve">
<style type="text/css">
	.st0{fill:#F2F2F2;}
</style>
<g>
	<g>
		<a href="#">
		<path class="st0" d="M33.6,0H2.2C1,0,0,1,0,2.2v22.7c0,1.8,1.4,3.2,3.2,3.2h30.4c1.8,0,3.2-1.4,3.2-3.2V3.2
			C36.9,1.5,35.4,0,33.6,0z M33.2,2.2L18.5,16.8L3.7,2.2H33.2z M2.2,24.4V3.7L12.6,14L2.2,24.4z M3.7,25.9l10.4-10.4l4.4,4.4
			l4.3-4.3l10.4,10.4H3.7z M34.7,24.4L24.4,14L34.7,3.7V24.4z"/>
		</a>
	</g>
</g>
</svg>
