<svg id="b7e53167-2d5f-459c-a31a-8db3de177518" data-name="b0001be2-79f7-4c83-919f-3fa6d600ef82" xmlns="http://www.w3.org/2000/svg" width="611.49" height="261" viewBox="0 0 611.49 261">
  <defs>
    <style>
      .aa2ce15e-f755-4848-8965-9bbff2ec0243,
      .b580b1af-a820-4cad-a76c-2a2c257c0fb0 {
        fill: none;
        stroke: #000;
        stroke-miterlimit: 10;
      }
      .aa2ce15e-f755-4848-8965-9bbff2ec0243 {
        stroke-width: 16px;
      }
      .b580b1af-a820-4cad-a76c-2a2c257c0fb0 {
        stroke-width: 20px;
      }
    </style>
  </defs>
  <title>used_dog</title><path d="M241.6,130.9a111.82,111.82,0,0,0-5-33.09L187,226.53A111,111,0,0,0,241.6,130.9Z"/><path d="M95.42,236.2a111.45,111.45,0,0,0,71.84-.5l-33.89-87.85Z"/><path d="M24.1,99.52A111,111,0,0,0,76.32,227.73L24.44,100.21Z"/><path
    d="M80.66,92.36l-4.77-.22c-10.4-.17-9.25,10.63-9.25,10.63l36.91,92.57,24.81-59.27-13.85-35.26c-5.55-9.33-19.08-9.23-19.08-9.23V86.66H173l-.12,5.45-8.07.51c-10.06,0-8,9.56-8,9.56l33.68,90,9.65-24.91c17.13-38.83,6.56-67.56,6.56-67.56-17.14-35.28,4.53-40.34,4.53-40.34a36.65,36.65,0,0,1,3.91-.36A111,111,0,0,0,28.52,87.21l52-.54.19,5.69Z"/><path d="M255.29,130.53c0,68.79-56,124.78-124.76,124.78a124.78,124.78,0,1,1,124.76-124.8ZM130.53,0C58.56,0,0,58.56,0,130.53S58.56,261,130.53,261A130.58,130.58,0,0,0,261,130.53C261,58.56,202.48,0,130.53,0Z"/><path
    d="M386.88,32.76H601.73v209H386.88Zm-9.76,218.75H611.49V23H377.12Zm158-134.76c-7.72,0-10.35,3.9-10.35,7.12,0,3.52,1.75,6,12.11,11.33,15.33,7.42,20.11,14.55,20.11,25,0,15.63-11.91,24-28,24-8.49,0-15.82-1.76-20-4.2-.69-.3-.79-.78-.79-1.57V164.11c0-1,.49-1.27,1.18-.78A36.28,36.28,0,0,0,529,169.09c7.72,0,10.94-3.22,10.94-7.62,0-3.51-2.24-6.64-12.11-11.72-13.83-6.64-19.65-13.38-19.65-24.56,0-12.59,9.87-23,27-23,8.4,0,14.26,1.27,17.48,2.73a2.17,2.17,0,0,1,1,2v13.27c0,.78-.48,1.27-1.46,1-4.3-2.73-10.65-4.39-17-4.39Zm-84,11.62c2.25.19,4,.19,7.91.19,11.43,0,22.17-4,22.17-19.53,0-12.4-7.71-18.65-20.7-18.65-3.91,0-7.62.19-9.38.29ZM433.76,76.51c0-.68,1.37-1.17,2.15-1.17,6.25-.29,15.53-.49,25.19-.49,27,0,37.6,14.84,37.6,33.79,0,24.8-18,35.45-40,35.45-3.71,0-5-.2-7.62-.2v37.5c0,.79-.29,1.18-1.17,1.18h-15c-.78,0-1.17-.3-1.17-1.18Z"/><path class="aa2ce15e-f755-4848-8965-9bbff2ec0243" d="M586.8,137.25"/><path class="aa2ce15e-f755-4848-8965-9bbff2ec0243" d="M159.62,131.31"/><path class="aa2ce15e-f755-4848-8965-9bbff2ec0243" d="M374.86,346.56"/><line class="b580b1af-a820-4cad-a76c-2a2c257c0fb0" x1="309.36" y1="5.75" x2="309.36" y2="261"/></svg>
