<svg id="b0001be2-79f7-4c83-919f-3fa6d600ef82" data-name="Layer 1" xmlns="http://www.w3.org/2000/svg" viewBox="0 0 553.5 261.04"><defs><style>.b85ace1c-4ab2-4671-8cb8-9a102d7ec39a{fill:none;}</style></defs><title>used_dog</title><path d="M241.6,130.9a111.93,111.93,0,0,0-5-33.09L187,226.53A111,111,0,0,0,241.6,130.9Z"/><path d="M95.42,236.2a111.45,111.45,0,0,0,71.84-.5l-33.89-87.85L95.42,236.2Z"/><path d="M24.1,99.52A111,111,0,0,0,76.32,227.73L24.44,100.21l-.34-.69Z"/><path d="M80.66,92.36l-4.77-.22c-10.4-.17-9.25,10.63-9.25,10.63l36.91,92.57,24.81-59.27-13.85-35.26c-5.55-9.33-19.08-9.23-19.08-9.23V86.66H173l-.12,5.45-8.07.51c-10.06,0-8,9.56-8,9.56l33.68,90,9.65-24.91c17.13-38.83,6.56-67.56,6.56-67.56-17.14-35.28,4.53-40.34,4.53-40.34a36.9,36.9,0,0,1,3.91-.36A111,111,0,0,0,28.52,87.21l52-.54.19,5.69Z"/><path d="M255.29,130.53c0,68.79-56,124.78-124.76,124.78A124.78,124.78,0,1,1,255.29,130.53ZM130.53,0C58.56,0,0,58.56,0,130.53S58.56,261,130.53,261,261,202.5,261,130.53,202.48,0,130.53,0Z"/><path class="b85ace1c-4ab2-4671-8cb8-9a102d7ec39a" d="M328.89,34.57H543.74v209H328.89Z"/><path d="M328.89,34.57H543.74v209H328.89Zm-9.76,218.75H553.5V24.81H319.13Zm158-134.76c-7.72,0-10.35,3.9-10.35,7.12,0,3.52,1.75,6,12.11,11.33,15.33,7.42,20.11,14.55,20.11,25,0,15.63-11.91,24-28,24-8.49,0-15.82-1.76-20-4.2-.69-.3-.79-.78-.79-1.57V165.92c0-1,.49-1.27,1.18-.78A36.26,36.26,0,0,0,471,170.9c7.72,0,10.94-3.22,10.94-7.62,0-3.51-2.24-6.64-12.11-11.72C456,144.92,450.18,138.18,450.18,127c0-12.59,9.87-23,27-23,8.4,0,14.26,1.27,17.48,2.73a2.16,2.16,0,0,1,1,2V122c0,.78-.48,1.27-1.46,1-4.3-2.73-10.65-4.39-17-4.39Zm-84,11.62c2.25.19,4,.19,7.91.19,11.43,0,22.17-4,22.17-19.53,0-12.4-7.71-18.65-20.7-18.65-3.91,0-7.62.19-9.38.29ZM375.77,78.32c0-.68,1.37-1.17,2.15-1.17,6.25-.29,15.53-.49,25.19-.49,27.05,0,37.6,14.84,37.6,33.79,0,24.8-18,35.45-40,35.45-3.71,0-5-.2-7.62-.2v37.5c0,.79-.29,1.18-1.17,1.18H376.94c-.78,0-1.17-.3-1.17-1.18V78.32Z"/></svg>